<?xml version="1.0" encoding="UTF-8" standalone="no"?>
<!-- Created with Inkscape (http://www.inkscape.org/) -->

<svg
   xmlns:dc="http://purl.org/dc/elements/1.1/"
   xmlns:cc="http://creativecommons.org/ns#"
   xmlns:rdf="http://www.w3.org/1999/02/22-rdf-syntax-ns#"
   xmlns:svg="http://www.w3.org/2000/svg"
   xmlns="http://www.w3.org/2000/svg"
   xmlns:sodipodi="http://sodipodi.sourceforge.net/DTD/sodipodi-0.dtd"
   xmlns:inkscape="http://www.inkscape.org/namespaces/inkscape"
   width="189.08076mm"
   height="62.580078mm"
   viewBox="0 0 669.97121 221.74043"
   id="svg4528"
   version="1.1"
   inkscape:version="0.91 r13725"
   sodipodi:docname="catenary.svg">
  <sodipodi:namedview
     id="base"
     pagecolor="#ffffff"
     bordercolor="#666666"
     borderopacity="1.0"
     inkscape:pageopacity="0.0"
     inkscape:pageshadow="2"
     inkscape:zoom="1"
     inkscape:cx="244.2712"
     inkscape:cy="19.370526"
     inkscape:document-units="px"
     inkscape:current-layer="layer1"
     showgrid="false"
     inkscape:window-width="1600"
     inkscape:window-height="837"
     inkscape:window-x="0"
     inkscape:window-y="30"
     inkscape:window-maximized="1"
     fit-margin-top="0"
     fit-margin-left="0"
     fit-margin-right="0"
     fit-margin-bottom="0" />
  <defs
     id="defs4530">
    <marker
       inkscape:isstock="true"
       style="overflow:visible"
       id="Arrow1Mend"
       refX="0"
       refY="0"
       orient="auto"
       inkscape:stockid="Arrow1Mend">
      <path
         transform="matrix(-0.4,0,0,-0.4,-4,0)"
         style="fill:#000000;fill-opacity:1;fill-rule:evenodd;stroke:#000000;stroke-width:1pt;stroke-opacity:1"
         d="M 0,0 5,-5 -12.5,0 5,5 0,0 Z"
         id="path5097"
         inkscape:connector-curvature="0" />
    </marker>
    <marker
       inkscape:isstock="true"
       style="overflow:visible"
       id="Arrow1Mend-2"
       refX="0"
       refY="0"
       orient="auto"
       inkscape:stockid="Arrow1Mend">
      <path
         inkscape:connector-curvature="0"
         transform="matrix(-0.4,0,0,-0.4,-4,0)"
         style="fill:#000000;fill-opacity:1;fill-rule:evenodd;stroke:#000000;stroke-width:1pt;stroke-opacity:1"
         d="M 0,0 5,-5 -12.5,0 5,5 0,0 Z"
         id="path5097-9" />
    </marker>
    <marker
       inkscape:isstock="true"
       style="overflow:visible"
       id="Arrow1Mend-27"
       refX="0"
       refY="0"
       orient="auto"
       inkscape:stockid="Arrow1Mend">
      <path
         inkscape:connector-curvature="0"
         transform="matrix(-0.4,0,0,-0.4,-4,0)"
         style="fill:#000000;fill-opacity:1;fill-rule:evenodd;stroke:#000000;stroke-width:1pt;stroke-opacity:1"
         d="M 0,0 5,-5 -12.5,0 5,5 0,0 Z"
         id="path5097-0" />
    </marker>
  </defs>
  <metadata
     id="metadata4533">
    <rdf:RDF>
      <cc:Work
         rdf:about="">
        <dc:format>image/svg+xml</dc:format>
        <dc:type
           rdf:resource="http://purl.org/dc/dcmitype/StillImage" />
        <dc:title></dc:title>
      </cc:Work>
    </rdf:RDF>
  </metadata>
  <g
     id="layer1"
     inkscape:groupmode="layer"
     inkscape:label="Layer 1"
     transform="translate(-49.903586,-590.4314)">
    <path
       inkscape:connector-curvature="0"
       id="path5078"
       d="m 102.99869,608.34871 c 0,0 175.79032,88.53536 269.74722,89.74818 93.9569,1.21281 275.30382,-89.3439 275.30382,-89.3439"
       style="fill:none;fill-rule:evenodd;stroke:#2800ff;stroke-width:5;stroke-linecap:butt;stroke-linejoin:miter;stroke-miterlimit:4;stroke-dasharray:none;stroke-opacity:1" />
    <path
       inkscape:connector-curvature="0"
       id="path5080"
       d="m 382,787.3622 0,-179.5"
       style="opacity:0.50400002;fill:none;fill-rule:evenodd;stroke:#000000;stroke-width:3.5;stroke-linecap:butt;stroke-linejoin:miter;stroke-miterlimit:4;stroke-dasharray:none;stroke-opacity:1" />
    <path
       inkscape:connector-curvature="0"
       id="path5082"
       d="m 223.5,606.8622 0,52"
       style="fill:none;fill-rule:evenodd;stroke:#000000;stroke-width:2;stroke-linecap:butt;stroke-linejoin:miter;stroke-miterlimit:4;stroke-dasharray:none;stroke-opacity:1;marker-end:url(#Arrow1Mend)" />
    <path
       inkscape:connector-curvature="0"
       id="path5080-5"
       d="m 102.53049,769.9314 0,-179.5"
       style="opacity:0.50400002;fill:none;fill-rule:evenodd;stroke:#000000;stroke-width:3.5;stroke-linecap:butt;stroke-linejoin:miter;stroke-miterlimit:4;stroke-dasharray:none;stroke-opacity:1" />
    <path
       inkscape:connector-curvature="0"
       id="path5080-5-3"
       d="m 648.41692,773.00247 0,-179.5"
       style="opacity:0.50400002;fill:none;fill-rule:evenodd;stroke:#000000;stroke-width:3.5;stroke-linecap:butt;stroke-linejoin:miter;stroke-miterlimit:4;stroke-dasharray:none;stroke-opacity:1" />
    <path
       inkscape:connector-curvature="0"
       id="path5080-5-5"
       d="m 705.28645,608.29914 -655.382864,0"
       style="opacity:0.50400002;fill:none;fill-rule:evenodd;stroke:#000000;stroke-width:3.5;stroke-linecap:butt;stroke-linejoin:miter;stroke-miterlimit:4;stroke-dasharray:none;stroke-opacity:1" />
    <path
       inkscape:connector-curvature="0"
       id="path5080-5-5-6"
       d="m 710.2362,768.10528 -655.382859,0"
       style="opacity:0.50400002;fill:none;fill-rule:evenodd;stroke:#000000;stroke-width:3.5;stroke-linecap:butt;stroke-linejoin:miter;stroke-miterlimit:4;stroke-dasharray:none;stroke-opacity:1" />
    <g
       id="g5454"
       transform="matrix(0.56659742,0,0,0.56659742,69.314521,438.65546)">
      <g
         word-spacing="normal"
         letter-spacing="normal"
         font-size-adjust="none"
         font-stretch="normal"
         font-weight="normal"
         font-variant="normal"
         font-style="normal"
         stroke-miterlimit="10.433"
         xml:space="preserve"
         transform="matrix(1.0629921,0,0,-1.0629921,-186.02362,789.27165)"
         id="content"
         style="font-style:normal;font-variant:normal;font-weight:normal;font-stretch:normal;letter-spacing:normal;word-spacing:normal;text-anchor:start;fill:none;fill-opacity:1;fill-rule:evenodd;stroke:#000000;stroke-linecap:butt;stroke-linejoin:miter;stroke-miterlimit:10.43299961;stroke-dasharray:none;stroke-dashoffset:0;stroke-opacity:1"><path
           id="path5457"
           d="m 480.21,424.98 0.01,0.03 0.01,0.03 0.01,0.03 0.01,0.03 0.01,0.06 0.02,0.05 0.01,0.06 0.01,0.04 0.02,0.05 0.01,0.04 0.01,0.04 0.01,0.04 0,0.04 0.01,0.04 0.01,0.03 0,0.03 0.01,0.03 0.01,0.03 0,0.03 0,0.03 0.01,0.03 0,0.02 0,0.06 0.01,0.05 0,0.05 0,0.05 0,0.03 0,0.03 0,0.03 0,0.03 c 0,0.9 -0.7,1.35 -1.45,1.35 -0.5,0 -1.29,-0.3 -1.74,-1.05 -0.1,-0.24 -0.5,-1.79 -0.7,-2.69 -0.34,-1.29 -0.7,-2.64 -0.99,-3.98 l -2.24,-8.97 c -0.2,-0.74 -2.34,-4.23 -5.63,-4.23 -2.54,0 -3.09,2.19 -3.09,4.03 0,2.3 0.84,5.38 2.54,9.77 0.8,2.04 1,2.59 1,3.58 0,2.25 -1.6,4.09 -4.09,4.09 -4.73,0 -6.57,-7.23 -6.57,-7.67 0,-0.5 0.49,-0.5 0.59,-0.5 0.5,0 0.55,0.1 0.8,0.9 1.34,4.68 3.34,6.17 5.03,6.17 0.4,0 1.25,0 1.25,-1.59 0,-1.25 -0.5,-2.54 -0.85,-3.49 -1.99,-5.28 -2.89,-8.12 -2.89,-10.46 0,-4.43 3.14,-5.93 6.08,-5.93 1.94,0 3.63,0.85 5.03,2.25 -0.65,-2.6 -1.25,-5.04 -3.24,-7.68 -1.29,-1.69 -3.19,-3.14 -5.48,-3.14 -0.7,0 -2.94,0.16 -3.79,2.1 0.8,0 1.45,0 2.15,0.59 0.49,0.45 0.99,1.1 0.99,2.05 0,1.54 -1.34,1.74 -1.84,1.74 -1.15,0 -2.79,-0.8 -2.79,-3.24 0,-2.49 2.19,-4.33 5.28,-4.33 5.13,0 10.26,4.53 11.66,10.16 z"
           inkscape:connector-curvature="0"
           style="fill:#000000;stroke-width:0" /><path
           id="path5459"
           d="m 498.49,394.04 0,0.03 0,0.03 -0.01,0.01 0,0.02 0,0.01 -0.01,0.02 0,0.02 -0.01,0.01 -0.01,0.02 -0.01,0.02 -0.01,0.03 -0.01,0.02 -0.02,0.02 -0.02,0.03 -0.02,0.03 -0.02,0.03 -0.03,0.03 -0.03,0.04 -0.01,0.02 -0.02,0.02 -0.02,0.02 -0.02,0.02 -0.02,0.02 -0.02,0.03 -0.02,0.02 -0.02,0.02 -0.02,0.03 -0.03,0.02 -0.02,0.03 -0.03,0.03 -0.02,0.03 -0.03,0.03 -0.03,0.03 -0.03,0.03 -0.03,0.03 -0.03,0.03 -0.04,0.04 -0.03,0.03 -0.04,0.04 -0.03,0.03 -0.04,0.04 -0.04,0.04 c -6.23,6.28 -7.82,15.69 -7.82,23.31 0,8.67 1.89,17.34 8.02,23.57 0.65,0.59 0.65,0.69 0.65,0.84 0,0.35 -0.2,0.5 -0.5,0.5 -0.5,0 -4.98,-3.39 -7.92,-9.72 -2.54,-5.47 -3.14,-11 -3.14,-15.19 0,-3.88 0.55,-9.91 3.29,-15.54 2.99,-6.12 7.27,-9.36 7.77,-9.36 0.3,0 0.5,0.15 0.5,0.49 z"
           inkscape:connector-curvature="0"
           style="fill:#000000;stroke-width:0" /><path
           id="path5461"
           d="m 517.64,421.04 0.03,0.13 0.03,0.15 0.05,0.17 0.04,0.18 0.06,0.19 0.06,0.21 0.06,0.21 0.07,0.23 0.08,0.23 0.09,0.24 0.1,0.25 0.1,0.24 0.11,0.25 0.12,0.25 0.13,0.25 0.14,0.25 0.15,0.24 0.15,0.24 0.17,0.23 0.18,0.22 0.18,0.22 0.2,0.2 0.21,0.19 0.22,0.18 0.23,0.16 0.25,0.14 0.12,0.07 0.13,0.06 0.13,0.05 0.14,0.05 0.14,0.05 0.14,0.04 0.14,0.03 0.15,0.03 0.15,0.02 0.16,0.02 0.16,0.01 0.16,0 c 0.25,0 1.45,0 2.49,-0.65 -1.4,-0.25 -2.39,-1.49 -2.39,-2.68 0,-0.8 0.55,-1.75 1.89,-1.75 1.1,0 2.69,0.9 2.69,2.89 0,2.59 -2.94,3.29 -4.63,3.29 -2.89,0 -4.64,-2.64 -5.23,-3.79 -1.24,3.29 -3.94,3.79 -5.38,3.79 -5.18,0 -8.02,-6.43 -8.02,-7.67 0,-0.5 0.5,-0.5 0.6,-0.5 0.39,0 0.54,0.1 0.64,0.54 1.7,5.29 4.98,6.53 6.68,6.53 0.94,0 2.69,-0.45 2.69,-3.33 0,-1.55 -0.85,-4.89 -2.69,-11.86 -0.8,-3.09 -2.54,-5.18 -4.73,-5.18 -0.3,0 -1.45,0 -2.49,0.65 1.24,0.25 2.34,1.29 2.34,2.69 0,1.34 -1.1,1.74 -1.85,1.74 -1.49,0 -2.73,-1.3 -2.73,-2.89 0,-2.29 2.48,-3.29 4.68,-3.29 3.28,0 5.08,3.49 5.22,3.79 0.61,-1.85 2.4,-3.79 5.39,-3.79 5.13,0 7.97,6.43 7.97,7.67 0,0.5 -0.45,0.5 -0.6,0.5 -0.45,0 -0.55,-0.2 -0.65,-0.55 -1.64,-5.33 -5.03,-6.52 -6.62,-6.52 -1.94,0 -2.74,1.59 -2.74,3.29 0,1.09 0.3,2.19 0.85,4.38 z"
           inkscape:connector-curvature="0"
           style="fill:#000000;stroke-width:0" /><path
           id="path5463"
           d="m 544.4,418.45 -0.01,0.37 0,0.39 -0.01,0.39 -0.01,0.41 -0.04,0.84 -0.06,0.88 -0.09,0.92 -0.1,0.94 -0.14,0.98 -0.16,1 -0.2,1.02 -0.23,1.04 -0.27,1.05 -0.3,1.06 -0.35,1.06 -0.39,1.07 -0.22,0.53 -0.22,0.54 -0.24,0.53 -0.25,0.53 c -2.99,6.12 -7.27,9.36 -7.77,9.36 -0.3,0 -0.5,-0.2 -0.5,-0.5 0,-0.15 0,-0.25 0.94,-1.15 4.89,-4.92 7.73,-12.85 7.73,-23.26 0,-8.52 -1.85,-17.28 -8.02,-23.56 -0.65,-0.6 -0.65,-0.69 -0.65,-0.85 0,-0.29 0.2,-0.49 0.5,-0.49 0.5,0 4.98,3.38 7.92,9.71 2.54,5.48 3.14,11.01 3.14,15.19 z"
           inkscape:connector-curvature="0"
           style="fill:#000000;stroke-width:0" /></g>    </g>
    <g
       id="g5635"
       transform="matrix(0.54202613,0,0,0.54202613,491.76354,445.97213)">
      <g
         id="g5637"
         transform="matrix(1.0629921,0,0,-1.0629921,-186.02362,789.27165)"
         xml:space="preserve"
         stroke-miterlimit="10.433"
         font-style="normal"
         font-variant="normal"
         font-weight="normal"
         font-stretch="normal"
         font-size-adjust="none"
         letter-spacing="normal"
         word-spacing="normal"
         style="font-style:normal;font-variant:normal;font-weight:normal;font-stretch:normal;letter-spacing:normal;word-spacing:normal;text-anchor:start;fill:none;fill-opacity:1;fill-rule:evenodd;stroke:#000000;stroke-linecap:butt;stroke-linejoin:miter;stroke-miterlimit:10.43299961;stroke-dasharray:none;stroke-dashoffset:0;stroke-opacity:1"><path
           d="m 480.21,424.98 0.01,0.03 0.01,0.03 0.01,0.03 0.01,0.03 0.01,0.06 0.02,0.05 0.01,0.06 0.01,0.04 0.02,0.05 0.01,0.04 0.01,0.04 0.01,0.04 0,0.04 0.01,0.04 0.01,0.03 0,0.03 0.01,0.03 0.01,0.03 0,0.03 0,0.03 0.01,0.03 0,0.02 0,0.06 0.01,0.05 0,0.05 0,0.05 0,0.03 0,0.03 0,0.03 0,0.03 c 0,0.9 -0.7,1.35 -1.45,1.35 -0.5,0 -1.29,-0.3 -1.74,-1.05 -0.1,-0.24 -0.5,-1.79 -0.7,-2.69 -0.34,-1.29 -0.7,-2.64 -0.99,-3.98 l -2.24,-8.97 c -0.2,-0.74 -2.34,-4.23 -5.63,-4.23 -2.54,0 -3.09,2.19 -3.09,4.03 0,2.3 0.84,5.38 2.54,9.77 0.8,2.04 1,2.59 1,3.58 0,2.25 -1.6,4.09 -4.09,4.09 -4.73,0 -6.57,-7.23 -6.57,-7.67 0,-0.5 0.49,-0.5 0.59,-0.5 0.5,0 0.55,0.1 0.8,0.9 1.34,4.68 3.34,6.17 5.03,6.17 0.4,0 1.25,0 1.25,-1.59 0,-1.25 -0.5,-2.54 -0.85,-3.49 -1.99,-5.28 -2.89,-8.12 -2.89,-10.46 0,-4.43 3.14,-5.93 6.08,-5.93 1.94,0 3.63,0.85 5.03,2.25 -0.65,-2.6 -1.25,-5.04 -3.24,-7.68 -1.29,-1.69 -3.19,-3.14 -5.48,-3.14 -0.7,0 -2.94,0.16 -3.79,2.1 0.8,0 1.45,0 2.15,0.59 0.49,0.45 0.99,1.1 0.99,2.05 0,1.54 -1.34,1.74 -1.84,1.74 -1.15,0 -2.79,-0.8 -2.79,-3.24 0,-2.49 2.19,-4.33 5.28,-4.33 5.13,0 10.26,4.53 11.66,10.16 z"
           id="path5639"
           inkscape:connector-curvature="0"
           style="fill:#000000;stroke-width:0" /><path
           d="m 530.22,422.29 0.14,0 0.15,0 0.15,0.01 0.07,0 0.07,0 0.07,0.01 0.08,0.01 0.07,0.01 0.07,0.01 0.06,0.02 0.07,0.01 0.07,0.02 0.06,0.02 0.06,0.03 0.06,0.03 0.05,0.03 0.06,0.03 0.05,0.04 0.04,0.04 0.05,0.05 0.03,0.05 0.02,0.03 0.02,0.02 0.02,0.03 0.01,0.03 0.02,0.03 0.01,0.04 0.01,0.03 0.01,0.04 0.01,0.03 0.01,0.04 0.01,0.04 0,0.04 0.01,0.04 0,0.04 0,0.05 0,0.05 c 0,0.99 -0.94,0.99 -1.64,0.99 l -29.84,0 c -0.7,0 -1.64,0 -1.64,-0.99 0,-1 0.94,-1 1.69,-1 z"
           id="path5641"
           inkscape:connector-curvature="0"
           style="fill:#000000;stroke-width:0" /><path
           d="m 530.27,412.62 0.13,0.01 0.14,0 0.14,0 0.07,0.01 0.07,0 0.07,0.01 0.07,0.01 0.07,0.01 0.07,0.01 0.06,0.01 0.07,0.02 0.06,0.02 0.06,0.02 0.06,0.02 0.06,0.03 0.06,0.03 0.05,0.04 0.05,0.04 0.04,0.04 0.05,0.04 0.02,0.03 0.02,0.03 0.01,0.02 0.02,0.03 0.02,0.03 0.01,0.03 0.02,0.03 0.01,0.03 0.01,0.04 0.01,0.03 0.01,0.04 0.01,0.04 0.01,0.04 0,0.04 0.01,0.04 0,0.04 0,0.05 0,0.04 c 0,1 -0.94,1 -1.69,1 l -29.74,0 c -0.75,0 -1.69,0 -1.69,-1 0,-1 0.94,-1 1.64,-1 z"
           id="path5643"
           inkscape:connector-curvature="0"
           style="fill:#000000;stroke-width:0" /><path
           d="m 570.91,421.94 0,0.75 -0.01,0.74 -0.02,0.75 -0.03,0.74 -0.05,0.75 -0.06,0.74 -0.07,0.74 -0.1,0.73 -0.11,0.73 -0.14,0.73 -0.16,0.72 -0.19,0.72 -0.22,0.71 -0.24,0.71 -0.28,0.7 -0.15,0.35 -0.16,0.35 c -2.29,4.78 -6.37,5.58 -8.47,5.58 -2.98,0 -6.62,-1.3 -8.67,-5.93 -1.59,-3.44 -1.84,-7.32 -1.84,-11.31 0,-3.74 0.2,-8.22 2.24,-12.01 2.15,-4.03 5.78,-5.03 8.22,-5.03 l 0,1.1 c -1.94,0 -4.88,1.25 -5.78,6.03 -0.54,2.99 -0.54,7.57 -0.54,10.51 0,3.19 0,6.47 0.4,9.16 0.94,5.93 4.68,6.38 5.92,6.38 1.65,0 4.94,-0.9 5.88,-5.83 0.5,-2.79 0.5,-6.57 0.5,-9.71 0,-3.74 0,-7.13 -0.55,-10.31 -0.75,-4.73 -3.58,-6.23 -5.83,-6.23 l 0,0 0,-1.1 c 2.69,0 6.48,1.05 8.67,5.78 1.59,3.44 1.84,7.32 1.84,11.26 z"
           id="path5645"
           inkscape:connector-curvature="0"
           style="fill:#000000;stroke-width:0" /></g>    </g>
    <g
       id="g5719"
       transform="matrix(0.54885676,0,0,0.54885676,182.12124,610.20572)">
      <g
         word-spacing="normal"
         letter-spacing="normal"
         font-size-adjust="none"
         font-stretch="normal"
         font-weight="normal"
         font-variant="normal"
         font-style="normal"
         stroke-miterlimit="10.433"
         xml:space="preserve"
         transform="matrix(1.0629921,0,0,-1.0629921,-186.02362,789.27165)"
         id="g5721"
         style="font-style:normal;font-variant:normal;font-weight:normal;font-stretch:normal;letter-spacing:normal;word-spacing:normal;text-anchor:start;fill:none;fill-opacity:1;fill-rule:evenodd;stroke:#000000;stroke-linecap:butt;stroke-linejoin:miter;stroke-miterlimit:10.43299961;stroke-dasharray:none;stroke-dashoffset:0;stroke-opacity:1"><path
           id="path5723"
           d="m 472.64,421.04 0.03,0.13 0.03,0.15 0.05,0.17 0.04,0.18 0.06,0.19 0.06,0.21 0.06,0.21 0.07,0.23 0.08,0.23 0.09,0.24 0.1,0.25 0.1,0.24 0.11,0.25 0.12,0.25 0.13,0.25 0.14,0.25 0.15,0.24 0.15,0.24 0.17,0.23 0.18,0.22 0.18,0.22 0.2,0.2 0.21,0.19 0.22,0.18 0.23,0.16 0.25,0.14 0.12,0.07 0.13,0.06 0.13,0.05 0.14,0.05 0.14,0.05 0.14,0.04 0.14,0.03 0.15,0.03 0.15,0.02 0.16,0.02 0.16,0.01 0.16,0 c 0.25,0 1.45,0 2.49,-0.65 -1.4,-0.25 -2.39,-1.49 -2.39,-2.68 0,-0.8 0.54,-1.75 1.89,-1.75 1.1,0 2.69,0.9 2.69,2.89 0,2.59 -2.94,3.29 -4.63,3.29 -2.89,0 -4.64,-2.64 -5.23,-3.79 -1.25,3.29 -3.94,3.79 -5.38,3.79 -5.18,0 -8.02,-6.43 -8.02,-7.67 0,-0.5 0.5,-0.5 0.6,-0.5 0.39,0 0.54,0.1 0.64,0.54 1.7,5.29 4.98,6.53 6.68,6.53 0.95,0 2.69,-0.45 2.69,-3.33 0,-1.55 -0.85,-4.89 -2.69,-11.86 -0.8,-3.09 -2.54,-5.18 -4.73,-5.18 -0.3,0 -1.45,0 -2.49,0.65 1.24,0.25 2.34,1.29 2.34,2.69 0,1.34 -1.1,1.74 -1.85,1.74 -1.49,0 -2.73,-1.3 -2.73,-2.89 0,-2.29 2.48,-3.29 4.68,-3.29 3.28,0 5.08,3.49 5.23,3.79 0.6,-1.85 2.39,-3.79 5.38,-3.79 5.13,0 7.97,6.43 7.97,7.67 0,0.5 -0.45,0.5 -0.6,0.5 -0.45,0 -0.55,-0.2 -0.65,-0.55 -1.64,-5.33 -5.03,-6.52 -6.62,-6.52 -1.95,0 -2.74,1.59 -2.74,3.29 0,1.09 0.29,2.19 0.85,4.38 z"
           inkscape:connector-curvature="0"
           style="fill:#000000;stroke-width:0" /><path
           id="path5725"
           d="m 532.22,422.29 0.14,0 0.15,0 0.15,0.01 0.07,0 0.07,0 0.07,0.01 0.08,0.01 0.07,0.01 0.07,0.01 0.06,0.02 0.07,0.01 0.07,0.02 0.06,0.02 0.06,0.03 0.06,0.03 0.05,0.03 0.06,0.03 0.05,0.04 0.04,0.04 0.05,0.05 0.03,0.05 0.02,0.03 0.02,0.02 0.02,0.03 0.01,0.03 0.02,0.03 0.01,0.04 0.01,0.03 0.01,0.04 0.01,0.03 0.01,0.04 0.01,0.04 0,0.04 0.01,0.04 0,0.04 0,0.05 0,0.05 c 0,0.99 -0.94,0.99 -1.64,0.99 l -29.84,0 c -0.7,0 -1.64,0 -1.64,-0.99 0,-1 0.94,-1 1.69,-1 z"
           inkscape:connector-curvature="0"
           style="fill:#000000;stroke-width:0" /><path
           id="path5727"
           d="m 532.27,412.62 0.13,0.01 0.14,0 0.14,0 0.07,0.01 0.07,0 0.07,0.01 0.07,0.01 0.07,0.01 0.07,0.01 0.06,0.01 0.07,0.02 0.06,0.02 0.06,0.02 0.06,0.02 0.06,0.03 0.06,0.03 0.05,0.04 0.05,0.04 0.04,0.04 0.05,0.04 0.02,0.03 0.02,0.03 0.01,0.02 0.02,0.03 0.02,0.03 0.01,0.03 0.02,0.03 0.01,0.03 0.01,0.04 0.01,0.03 0.01,0.04 0.01,0.04 0.01,0.04 0,0.04 0.01,0.04 0,0.04 0,0.05 0,0.04 c 0,1 -0.94,1 -1.69,1 l -29.74,0 c -0.75,0 -1.69,0 -1.69,-1 0,-1 0.94,-1 1.64,-1 z"
           inkscape:connector-curvature="0"
           style="fill:#000000;stroke-width:0" /><path
           id="path5729"
           d="m 572.91,421.94 0,0.75 -0.01,0.74 -0.02,0.75 -0.03,0.74 -0.05,0.75 -0.06,0.74 -0.07,0.74 -0.1,0.73 -0.11,0.73 -0.14,0.73 -0.16,0.72 -0.19,0.72 -0.22,0.71 -0.24,0.71 -0.28,0.7 -0.15,0.35 -0.16,0.35 c -2.29,4.78 -6.37,5.58 -8.47,5.58 -2.98,0 -6.62,-1.3 -8.67,-5.93 -1.59,-3.44 -1.84,-7.32 -1.84,-11.31 0,-3.74 0.2,-8.22 2.24,-12.01 2.15,-4.03 5.78,-5.03 8.22,-5.03 l 0,1.1 c -1.94,0 -4.88,1.25 -5.78,6.03 -0.54,2.99 -0.54,7.57 -0.54,10.51 0,3.19 0,6.47 0.4,9.16 0.94,5.93 4.68,6.38 5.92,6.38 1.65,0 4.94,-0.9 5.88,-5.83 0.5,-2.79 0.5,-6.57 0.5,-9.71 0,-3.74 0,-7.13 -0.55,-10.31 -0.75,-4.73 -3.58,-6.23 -5.83,-6.23 l 0,0 0,-1.1 c 2.69,0 6.48,1.05 8.67,5.78 1.59,3.44 1.84,7.32 1.84,11.26 z"
           inkscape:connector-curvature="0"
           style="fill:#000000;stroke-width:0" /></g>    </g>
    <g
       id="g5815"
       transform="matrix(0.56659742,0,0,0.56659742,444.78822,602.00322)">
      <g
         id="g5817"
         transform="matrix(1.0629921,0,0,-1.0629921,-186.02362,789.27165)"
         xml:space="preserve"
         stroke-miterlimit="10.433"
         font-style="normal"
         font-variant="normal"
         font-weight="normal"
         font-stretch="normal"
         font-size-adjust="none"
         letter-spacing="normal"
         word-spacing="normal"
         style="font-style:normal;font-variant:normal;font-weight:normal;font-stretch:normal;letter-spacing:normal;word-spacing:normal;text-anchor:start;fill:none;fill-opacity:1;fill-rule:evenodd;stroke:#000000;stroke-linecap:butt;stroke-linejoin:miter;stroke-miterlimit:10.43299961;stroke-dasharray:none;stroke-dashoffset:0;stroke-opacity:1"><path
           d="m 472.64,421.04 0.03,0.13 0.03,0.15 0.05,0.17 0.04,0.18 0.06,0.19 0.06,0.21 0.06,0.21 0.07,0.23 0.08,0.23 0.09,0.24 0.1,0.25 0.1,0.24 0.11,0.25 0.12,0.25 0.13,0.25 0.14,0.25 0.15,0.24 0.15,0.24 0.17,0.23 0.18,0.22 0.18,0.22 0.2,0.2 0.21,0.19 0.22,0.18 0.23,0.16 0.25,0.14 0.12,0.07 0.13,0.06 0.13,0.05 0.14,0.05 0.14,0.05 0.14,0.04 0.14,0.03 0.15,0.03 0.15,0.02 0.16,0.02 0.16,0.01 0.16,0 c 0.25,0 1.45,0 2.49,-0.65 -1.4,-0.25 -2.39,-1.49 -2.39,-2.68 0,-0.8 0.54,-1.75 1.89,-1.75 1.1,0 2.69,0.9 2.69,2.89 0,2.59 -2.94,3.29 -4.63,3.29 -2.89,0 -4.64,-2.64 -5.23,-3.79 -1.25,3.29 -3.94,3.79 -5.38,3.79 -5.18,0 -8.02,-6.43 -8.02,-7.67 0,-0.5 0.5,-0.5 0.6,-0.5 0.39,0 0.54,0.1 0.64,0.54 1.7,5.29 4.98,6.53 6.68,6.53 0.95,0 2.69,-0.45 2.69,-3.33 0,-1.55 -0.85,-4.89 -2.69,-11.86 -0.8,-3.09 -2.54,-5.18 -4.73,-5.18 -0.3,0 -1.45,0 -2.49,0.65 1.24,0.25 2.34,1.29 2.34,2.69 0,1.34 -1.1,1.74 -1.85,1.74 -1.49,0 -2.73,-1.3 -2.73,-2.89 0,-2.29 2.48,-3.29 4.68,-3.29 3.28,0 5.08,3.49 5.23,3.79 0.6,-1.85 2.39,-3.79 5.38,-3.79 5.13,0 7.97,6.43 7.97,7.67 0,0.5 -0.45,0.5 -0.6,0.5 -0.45,0 -0.55,-0.2 -0.65,-0.55 -1.64,-5.33 -5.03,-6.52 -6.62,-6.52 -1.95,0 -2.74,1.59 -2.74,3.29 0,1.09 0.29,2.19 0.85,4.38 z"
           id="path5819"
           inkscape:connector-curvature="0"
           style="fill:#000000;stroke-width:0" /><path
           d="m 532.22,422.29 0.14,0 0.15,0 0.15,0.01 0.07,0 0.07,0 0.07,0.01 0.08,0.01 0.07,0.01 0.07,0.01 0.06,0.02 0.07,0.01 0.07,0.02 0.06,0.02 0.06,0.03 0.06,0.03 0.05,0.03 0.06,0.03 0.05,0.04 0.04,0.04 0.05,0.05 0.03,0.05 0.02,0.03 0.02,0.02 0.02,0.03 0.01,0.03 0.02,0.03 0.01,0.04 0.01,0.03 0.01,0.04 0.01,0.03 0.01,0.04 0.01,0.04 0,0.04 0.01,0.04 0,0.04 0,0.05 0,0.05 c 0,0.99 -0.94,0.99 -1.64,0.99 l -29.84,0 c -0.7,0 -1.64,0 -1.64,-0.99 0,-1 0.94,-1 1.69,-1 z"
           id="path5821"
           inkscape:connector-curvature="0"
           style="fill:#000000;stroke-width:0" /><path
           d="m 532.27,412.62 0.13,0.01 0.14,0 0.14,0 0.07,0.01 0.07,0 0.07,0.01 0.07,0.01 0.07,0.01 0.07,0.01 0.06,0.01 0.07,0.02 0.06,0.02 0.06,0.02 0.06,0.02 0.06,0.03 0.06,0.03 0.05,0.04 0.05,0.04 0.04,0.04 0.05,0.04 0.02,0.03 0.02,0.03 0.01,0.02 0.02,0.03 0.02,0.03 0.01,0.03 0.02,0.03 0.01,0.03 0.01,0.04 0.01,0.03 0.01,0.04 0.01,0.04 0.01,0.04 0,0.04 0.01,0.04 0,0.04 0,0.05 0,0.04 c 0,1 -0.94,1 -1.69,1 l -29.74,0 c -0.75,0 -1.69,0 -1.69,-1 0,-1 0.94,-1 1.64,-1 z"
           id="path5823"
           inkscape:connector-curvature="0"
           style="fill:#000000;stroke-width:0" /><path
           d="m 568.58,424.83 -0.08,0.17 -0.09,0.17 -0.1,0.16 -0.09,0.16 -0.1,0.16 -0.1,0.16 -0.11,0.15 -0.11,0.14 -0.11,0.15 -0.12,0.13 -0.12,0.14 -0.12,0.13 -0.13,0.12 -0.13,0.12 -0.14,0.11 -0.14,0.11 -0.14,0.11 -0.15,0.09 -0.15,0.1 -0.15,0.08 -0.16,0.08 -0.17,0.08 -0.17,0.07 -0.17,0.06 -0.17,0.05 -0.19,0.05 -0.18,0.04 -0.19,0.03 -0.19,0.03 -0.2,0.02 -0.21,0.01 -0.2,0.01 0.05,-1.1 c 3.23,0 3.93,-4.08 3.93,-4.38 0,-0.3 -0.1,-0.6 -0.15,-0.85 l -2.49,-9.76 c -0.25,-0.9 -0.25,-1 -0.99,-1.84 -2.19,-2.75 -4.24,-3.54 -5.63,-3.54 -2.49,0 -3.19,2.74 -3.19,4.68 0,2.49 1.59,8.62 2.74,10.91 1.54,2.94 3.78,4.78 5.78,4.78 l -0.05,1.1 c -5.83,0 -12.01,-7.32 -12.01,-14.6 0,-4.68 2.74,-7.97 6.63,-7.97 0.99,0 3.48,0.2 6.47,3.74 0.4,-2.09 2.14,-3.74 4.53,-3.74 1.75,0 2.9,1.15 3.69,2.74 0.85,1.79 1.5,4.83 1.5,4.93 0,0.5 -0.45,0.5 -0.6,0.5 -0.5,0 -0.55,-0.2 -0.7,-0.89 -0.85,-3.24 -1.74,-6.18 -3.78,-6.18 -1.35,0 -1.5,1.29 -1.5,2.29 0,1.09 0.1,1.49 0.65,3.69 0.55,2.09 0.65,2.59 1.1,4.48 l 1.79,6.97 c 0.35,1.4 0.35,1.5 0.35,1.7 0,0.84 -0.6,1.34 -1.45,1.34 -1.19,0 -1.94,-1.09 -2.09,-2.19 z"
           id="path5825"
           inkscape:connector-curvature="0"
           style="fill:#000000;stroke-width:0" /><path
           d="m 598.87,441.47 0.01,0.03 0.01,0.03 0.01,0.03 0.01,0.02 0.01,0.03 0.01,0.03 0.02,0.05 0.02,0.05 0.01,0.05 0.02,0.04 0.01,0.04 0.01,0.04 0.02,0.04 0.01,0.04 0.01,0.03 0,0.03 0.01,0.03 0.01,0.03 0.01,0.03 0,0.02 0.01,0.03 0,0.02 0,0.02 0.01,0.02 0,0.01 0,0.02 0,0.01 0,0.02 0.01,0.01 0,0.01 0,0.01 0,0 0,0.01 0,0.01 0,0 c 0,0.55 -0.45,1 -1,1 -0.35,0 -0.7,-0.15 -0.85,-0.45 l -17.28,-47.47 c -0.25,-0.65 -0.25,-0.85 -0.25,-0.9 0,-0.54 0.45,-0.99 0.99,-0.99 0.65,0 0.8,0.34 1.1,1.19 z"
           id="path5827"
           inkscape:connector-curvature="0"
           style="fill:#000000;stroke-width:0" /><path
           d="m 608.33,409.84 5.27,5.12 c 7.78,6.88 10.77,9.57 10.77,14.55 0,5.68 -4.49,9.67 -10.57,9.67 -5.62,0 -9.31,-4.59 -9.31,-9.02 0,-2.79 2.49,-2.79 2.64,-2.79 0.85,0 2.59,0.6 2.59,2.64 0,1.29 -0.9,2.59 -2.64,2.59 -0.4,0 -0.5,0 -0.65,-0.05 1.15,3.24 3.84,5.08 6.73,5.08 4.53,0 6.67,-4.03 6.67,-8.12 0,-3.98 -2.49,-7.92 -5.23,-11.01 l -9.56,-10.66 c -0.55,-0.54 -0.55,-0.64 -0.55,-1.84 l 18.48,0 1.4,8.67 -1.25,0 c -0.25,-1.5 -0.6,-3.69 -1.1,-4.44 -0.34,-0.39 -3.63,-0.39 -4.73,-0.39 z"
           id="path5829"
           inkscape:connector-curvature="0"
           style="fill:#000000;stroke-width:0" /></g>    </g>
    <g
       id="g5931"
       transform="matrix(0.56659742,0,0,0.56659742,-103.92664,602.00322)">
      <g
         word-spacing="normal"
         letter-spacing="normal"
         font-size-adjust="none"
         font-stretch="normal"
         font-weight="normal"
         font-variant="normal"
         font-style="normal"
         stroke-miterlimit="10.433"
         xml:space="preserve"
         transform="matrix(1.0629921,0,0,-1.0629921,-186.02362,789.27165)"
         id="g5933"
         style="font-style:normal;font-variant:normal;font-weight:normal;font-stretch:normal;letter-spacing:normal;word-spacing:normal;text-anchor:start;fill:none;fill-opacity:1;fill-rule:evenodd;stroke:#000000;stroke-linecap:butt;stroke-linejoin:miter;stroke-miterlimit:10.43299961;stroke-dasharray:none;stroke-dashoffset:0;stroke-opacity:1"><path
           id="path5935"
           d="m 472.64,421.04 0.03,0.13 0.03,0.15 0.05,0.17 0.04,0.18 0.06,0.19 0.06,0.21 0.06,0.21 0.07,0.23 0.08,0.23 0.09,0.24 0.1,0.25 0.1,0.24 0.11,0.25 0.12,0.25 0.13,0.25 0.14,0.25 0.15,0.24 0.15,0.24 0.17,0.23 0.18,0.22 0.18,0.22 0.2,0.2 0.21,0.19 0.22,0.18 0.23,0.16 0.25,0.14 0.12,0.07 0.13,0.06 0.13,0.05 0.14,0.05 0.14,0.05 0.14,0.04 0.14,0.03 0.15,0.03 0.15,0.02 0.16,0.02 0.16,0.01 0.16,0 c 0.25,0 1.45,0 2.49,-0.65 -1.4,-0.25 -2.39,-1.49 -2.39,-2.68 0,-0.8 0.54,-1.75 1.89,-1.75 1.1,0 2.69,0.9 2.69,2.89 0,2.59 -2.94,3.29 -4.63,3.29 -2.89,0 -4.64,-2.64 -5.23,-3.79 -1.25,3.29 -3.94,3.79 -5.38,3.79 -5.18,0 -8.02,-6.43 -8.02,-7.67 0,-0.5 0.5,-0.5 0.6,-0.5 0.39,0 0.54,0.1 0.64,0.54 1.7,5.29 4.98,6.53 6.68,6.53 0.95,0 2.69,-0.45 2.69,-3.33 0,-1.55 -0.85,-4.89 -2.69,-11.86 -0.8,-3.09 -2.54,-5.18 -4.73,-5.18 -0.3,0 -1.45,0 -2.49,0.65 1.24,0.25 2.34,1.29 2.34,2.69 0,1.34 -1.1,1.74 -1.85,1.74 -1.49,0 -2.73,-1.3 -2.73,-2.89 0,-2.29 2.48,-3.29 4.68,-3.29 3.28,0 5.08,3.49 5.23,3.79 0.6,-1.85 2.39,-3.79 5.38,-3.79 5.13,0 7.97,6.43 7.97,7.67 0,0.5 -0.45,0.5 -0.6,0.5 -0.45,0 -0.55,-0.2 -0.65,-0.55 -1.64,-5.33 -5.03,-6.52 -6.62,-6.52 -1.95,0 -2.74,1.59 -2.74,3.29 0,1.09 0.29,2.19 0.85,4.38 z"
           inkscape:connector-curvature="0"
           style="fill:#000000;stroke-width:0" /><path
           id="path5937"
           d="m 532.22,422.29 0.14,0 0.15,0 0.15,0.01 0.07,0 0.07,0 0.07,0.01 0.08,0.01 0.07,0.01 0.07,0.01 0.06,0.02 0.07,0.01 0.07,0.02 0.06,0.02 0.06,0.03 0.06,0.03 0.05,0.03 0.06,0.03 0.05,0.04 0.04,0.04 0.05,0.05 0.03,0.05 0.02,0.03 0.02,0.02 0.02,0.03 0.01,0.03 0.02,0.03 0.01,0.04 0.01,0.03 0.01,0.04 0.01,0.03 0.01,0.04 0.01,0.04 0,0.04 0.01,0.04 0,0.04 0,0.05 0,0.05 c 0,0.99 -0.94,0.99 -1.64,0.99 l -29.84,0 c -0.7,0 -1.64,0 -1.64,-0.99 0,-1 0.94,-1 1.69,-1 z"
           inkscape:connector-curvature="0"
           style="fill:#000000;stroke-width:0" /><path
           id="path5939"
           d="m 532.27,412.62 0.13,0.01 0.14,0 0.14,0 0.07,0.01 0.07,0 0.07,0.01 0.07,0.01 0.07,0.01 0.07,0.01 0.06,0.01 0.07,0.02 0.06,0.02 0.06,0.02 0.06,0.02 0.06,0.03 0.06,0.03 0.05,0.04 0.05,0.04 0.04,0.04 0.05,0.04 0.02,0.03 0.02,0.03 0.01,0.02 0.02,0.03 0.02,0.03 0.01,0.03 0.02,0.03 0.01,0.03 0.01,0.04 0.01,0.03 0.01,0.04 0.01,0.04 0.01,0.04 0,0.04 0.01,0.04 0,0.04 0,0.05 0,0.04 c 0,1 -0.94,1 -1.69,1 l -29.74,0 c -0.75,0 -1.69,0 -1.69,-1 0,-1 0.94,-1 1.64,-1 z"
           inkscape:connector-curvature="0"
           style="fill:#000000;stroke-width:0" /><path
           id="path5941"
           d="m 582.83,417.46 0.16,0 0.16,0 0.15,0 0.08,0.01 0.08,0 0.07,0.01 0.08,0.01 0.07,0.01 0.07,0.01 0.07,0.01 0.07,0.02 0.06,0.02 0.07,0.02 0.06,0.03 0.05,0.02 0.06,0.04 0.05,0.03 0.05,0.04 0.05,0.04 0.04,0.05 0.04,0.05 0.01,0.02 0.02,0.03 0.02,0.03 0.01,0.03 0.02,0.03 0.01,0.04 0.01,0.03 0.01,0.03 0.01,0.04 0.01,0.04 0,0.04 0.01,0.04 0,0.04 0.01,0.04 0,0.05 0,0.04 c 0,1 -0.9,1 -1.74,1 l -26.95,0 c -0.85,0 -1.75,0 -1.75,-1 0,-0.99 0.9,-0.99 1.75,-0.99 z"
           inkscape:connector-curvature="0"
           style="fill:#000000;stroke-width:0" /><path
           id="path5943"
           d="m 607.58,424.83 -0.08,0.17 -0.09,0.17 -0.1,0.16 -0.09,0.16 -0.1,0.16 -0.1,0.16 -0.11,0.15 -0.11,0.14 -0.11,0.15 -0.12,0.13 -0.12,0.14 -0.12,0.13 -0.13,0.12 -0.13,0.12 -0.14,0.11 -0.14,0.11 -0.14,0.11 -0.15,0.09 -0.15,0.1 -0.15,0.08 -0.16,0.08 -0.17,0.08 -0.17,0.07 -0.17,0.06 -0.17,0.05 -0.19,0.05 -0.18,0.04 -0.19,0.03 -0.19,0.03 -0.2,0.02 -0.21,0.01 -0.2,0.01 0.05,-1.1 c 3.23,0 3.93,-4.08 3.93,-4.38 0,-0.3 -0.1,-0.6 -0.15,-0.85 l -2.49,-9.76 c -0.25,-0.9 -0.25,-1 -0.99,-1.84 -2.19,-2.75 -4.24,-3.54 -5.63,-3.54 -2.49,0 -3.19,2.74 -3.19,4.68 0,2.49 1.59,8.62 2.74,10.91 1.54,2.94 3.78,4.78 5.78,4.78 l -0.05,1.1 c -5.83,0 -12.01,-7.32 -12.01,-14.6 0,-4.68 2.74,-7.97 6.63,-7.97 0.99,0 3.48,0.2 6.47,3.74 0.4,-2.09 2.14,-3.74 4.53,-3.74 1.75,0 2.9,1.15 3.69,2.74 0.85,1.79 1.5,4.83 1.5,4.93 0,0.5 -0.45,0.5 -0.6,0.5 -0.5,0 -0.55,-0.2 -0.7,-0.89 -0.85,-3.24 -1.74,-6.18 -3.78,-6.18 -1.35,0 -1.5,1.29 -1.5,2.29 0,1.09 0.1,1.49 0.65,3.69 0.55,2.09 0.65,2.59 1.1,4.48 l 1.79,6.97 c 0.35,1.4 0.35,1.5 0.35,1.7 0,0.84 -0.6,1.34 -1.45,1.34 -1.19,0 -1.94,-1.09 -2.09,-2.19 z"
           inkscape:connector-curvature="0"
           style="fill:#000000;stroke-width:0" /><path
           id="path5945"
           d="m 636.87,441.47 0.01,0.03 0.01,0.03 0.01,0.03 0.01,0.02 0.01,0.03 0.01,0.03 0.02,0.05 0.02,0.05 0.01,0.05 0.02,0.04 0.01,0.04 0.01,0.04 0.02,0.04 0.01,0.04 0.01,0.03 0,0.03 0.01,0.03 0.01,0.03 0.01,0.03 0,0.02 0.01,0.03 0,0.02 0,0.02 0.01,0.02 0,0.01 0,0.02 0,0.01 0,0.02 0.01,0.01 0,0.01 0,0.01 0,0 0,0.01 0,0.01 0,0 c 0,0.55 -0.45,1 -1,1 -0.35,0 -0.7,-0.15 -0.85,-0.45 l -17.28,-47.47 c -0.25,-0.65 -0.25,-0.85 -0.25,-0.9 0,-0.54 0.45,-0.99 0.99,-0.99 0.65,0 0.8,0.34 1.1,1.19 z"
           inkscape:connector-curvature="0"
           style="fill:#000000;stroke-width:0" /><path
           id="path5947"
           d="m 646.33,409.84 5.27,5.12 c 7.78,6.88 10.77,9.57 10.77,14.55 0,5.68 -4.49,9.67 -10.57,9.67 -5.62,0 -9.31,-4.59 -9.31,-9.02 0,-2.79 2.49,-2.79 2.64,-2.79 0.85,0 2.59,0.6 2.59,2.64 0,1.29 -0.9,2.59 -2.64,2.59 -0.4,0 -0.5,0 -0.65,-0.05 1.15,3.24 3.84,5.08 6.73,5.08 4.53,0 6.67,-4.03 6.67,-8.12 0,-3.98 -2.49,-7.92 -5.23,-11.01 l -9.56,-10.66 c -0.55,-0.54 -0.55,-0.64 -0.55,-1.84 l 18.48,0 1.4,8.67 -1.25,0 c -0.25,-1.5 -0.6,-3.69 -1.1,-4.44 -0.34,-0.39 -3.63,-0.39 -4.73,-0.39 z"
           inkscape:connector-curvature="0"
           style="fill:#000000;stroke-width:0" /></g>    </g>
  </g>
</svg>
