<?xml version="1.0" encoding="UTF-8" standalone="no"?>
<!-- Created with Inkscape (http://www.inkscape.org/) -->

<svg
   xmlns:dc="http://purl.org/dc/elements/1.1/"
   xmlns:cc="http://creativecommons.org/ns#"
   xmlns:rdf="http://www.w3.org/1999/02/22-rdf-syntax-ns#"
   xmlns:svg="http://www.w3.org/2000/svg"
   xmlns="http://www.w3.org/2000/svg"
   xmlns:sodipodi="http://sodipodi.sourceforge.net/DTD/sodipodi-0.dtd"
   xmlns:inkscape="http://www.inkscape.org/namespaces/inkscape"
   width="126.8166mm"
   height="93.232147mm"
   viewBox="0 0 449.35018 330.35013"
   id="svg2"
   version="1.1"
   inkscape:version="0.91 r13725"
   sodipodi:docname="laplacemethod.svg">
  <sodipodi:namedview
     id="base"
     pagecolor="#ffffff"
     bordercolor="#666666"
     borderopacity="1.0"
     inkscape:pageopacity="0.0"
     inkscape:pageshadow="2"
     inkscape:zoom="1.4142136"
     inkscape:cx="107.34227"
     inkscape:cy="119.83507"
     inkscape:document-units="px"
     inkscape:current-layer="g8240"
     showgrid="false"
     inkscape:window-width="1600"
     inkscape:window-height="837"
     inkscape:window-x="0"
     inkscape:window-y="30"
     inkscape:window-maximized="1"
     fit-margin-top="0"
     fit-margin-left="0"
     fit-margin-right="0"
     fit-margin-bottom="0" />
  <defs
     id="defs4">
    <marker
       inkscape:isstock="true"
       style="overflow:visible"
       id="marker7130"
       refX="0"
       refY="0"
       orient="auto"
       inkscape:stockid="Arrow1Mstart">
      <path
         inkscape:connector-curvature="0"
         transform="matrix(0.4,0,0,0.4,4,0)"
         style="fill:#000000;fill-opacity:0.63313611;fill-rule:evenodd;stroke:#000000;stroke-width:1pt;stroke-opacity:0.63313611"
         d="M 0,0 5,-5 -12.5,0 5,5 0,0 Z"
         id="path7132" />
    </marker>
    <marker
       inkscape:isstock="true"
       style="overflow:visible"
       id="marker4528"
       refX="0"
       refY="0"
       orient="auto"
       inkscape:stockid="Arrow1Mend">
      <path
         transform="matrix(-0.4,0,0,-0.4,-4,0)"
         style="fill:#000000;fill-opacity:1;fill-rule:evenodd;stroke:#000000;stroke-width:1pt;stroke-opacity:1"
         d="M 0,0 5,-5 -12.5,0 5,5 0,0 Z"
         id="path4530"
         inkscape:connector-curvature="0" />
    </marker>
    <marker
       inkscape:isstock="true"
       style="overflow:visible"
       id="marker4482"
       refX="0"
       refY="0"
       orient="auto"
       inkscape:stockid="Arrow1Mstart"
       inkscape:collect="always">
      <path
         transform="matrix(0.4,0,0,0.4,4,0)"
         style="fill:#000000;fill-opacity:1;fill-rule:evenodd;stroke:#000000;stroke-width:1pt;stroke-opacity:1"
         d="M 0,0 5,-5 -12.5,0 5,5 0,0 Z"
         id="path4484"
         inkscape:connector-curvature="0" />
    </marker>
    <marker
       inkscape:stockid="Arrow1Mend"
       orient="auto"
       refY="0"
       refX="0"
       id="Arrow1Mend"
       style="overflow:visible"
       inkscape:isstock="true"
       inkscape:collect="always">
      <path
         id="path4153"
         d="M 0,0 5,-5 -12.5,0 5,5 0,0 Z"
         style="fill:#000000;fill-opacity:1;fill-rule:evenodd;stroke:#000000;stroke-width:1pt;stroke-opacity:1"
         transform="matrix(-0.4,0,0,-0.4,-4,0)"
         inkscape:connector-curvature="0" />
    </marker>
    <marker
       inkscape:stockid="Arrow1Mstart"
       orient="auto"
       refY="0"
       refX="0"
       id="Arrow1Mstart"
       style="overflow:visible"
       inkscape:isstock="true"
       inkscape:collect="always">
      <path
         id="path4150"
         d="M 0,0 5,-5 -12.5,0 5,5 0,0 Z"
         style="fill:#000000;fill-opacity:1;fill-rule:evenodd;stroke:#000000;stroke-width:1pt;stroke-opacity:1"
         transform="matrix(0.4,0,0,0.4,4,0)"
         inkscape:connector-curvature="0" />
    </marker>
    <marker
       inkscape:stockid="Arrow1Mstart"
       orient="auto"
       refY="0"
       refX="0"
       id="marker4627-6"
       style="overflow:visible"
       inkscape:isstock="true">
      <path
         inkscape:connector-curvature="0"
         id="path4629-2"
         d="M 0,0 5,-5 -12.5,0 5,5 0,0 Z"
         style="fill:#0024ff;fill-opacity:1;fill-rule:evenodd;stroke:#0024ff;stroke-width:1pt;stroke-opacity:1"
         transform="matrix(0.4,0,0,0.4,4,0)" />
    </marker>
    <marker
       inkscape:stockid="Arrow1Mstart"
       orient="auto"
       refY="0"
       refX="0"
       id="marker4627-9"
       style="overflow:visible"
       inkscape:isstock="true">
      <path
         inkscape:connector-curvature="0"
         id="path4629-1"
         d="M 0,0 5,-5 -12.5,0 5,5 0,0 Z"
         style="fill:#73ff00;fill-opacity:1;fill-rule:evenodd;stroke:#73ff00;stroke-width:1pt;stroke-opacity:1"
         transform="matrix(0.4,0,0,0.4,4,0)" />
    </marker>
  </defs>
  <metadata
     id="metadata7">
    <rdf:RDF>
      <cc:Work
         rdf:about="">
        <dc:format>image/svg+xml</dc:format>
        <dc:type
           rdf:resource="http://purl.org/dc/dcmitype/StillImage" />
        <dc:title></dc:title>
      </cc:Work>
    </rdf:RDF>
  </metadata>
  <g
     inkscape:label="Layer 1"
     inkscape:groupmode="layer"
     id="layer1"
     transform="translate(-154.95881,-179.31745)">
    <path
       style="fill:none;fill-rule:evenodd;stroke:#000000;stroke-width:2;stroke-linecap:butt;stroke-linejoin:miter;stroke-miterlimit:4;stroke-dasharray:none;stroke-opacity:1;marker-start:url(#marker4482);marker-end:url(#marker4528)"
       d="m 299.28571,183.13748 0,322.71006"
       id="path4136"
       inkscape:connector-curvature="0" />
    <path
       style="fill:none;fill-rule:evenodd;stroke:#000000;stroke-width:2;stroke-linecap:butt;stroke-linejoin:miter;stroke-miterlimit:4;stroke-dasharray:none;stroke-opacity:1;marker-start:url(#Arrow1Mstart);marker-end:url(#Arrow1Mend)"
       d="m 158.77884,380.93363 441.7101,0"
       id="path4138"
       inkscape:connector-curvature="0" />
    <g
       id="g8164">
      <path
         style="color:#000000;font-style:normal;font-variant:normal;font-weight:normal;font-stretch:normal;font-size:medium;line-height:normal;font-family:sans-serif;text-indent:0;text-align:start;text-decoration:none;text-decoration-line:none;text-decoration-style:solid;text-decoration-color:#000000;letter-spacing:normal;word-spacing:normal;text-transform:none;direction:ltr;block-progression:tb;writing-mode:lr-tb;baseline-shift:baseline;text-anchor:start;white-space:normal;clip-rule:nonzero;display:inline;overflow:visible;visibility:visible;opacity:1;isolation:auto;mix-blend-mode:normal;color-interpolation:sRGB;color-interpolation-filters:linearRGB;solid-color:#000000;solid-opacity:1;fill:#ff0000;fill-opacity:1;fill-rule:evenodd;stroke:none;stroke-width:2.5;stroke-linecap:butt;stroke-linejoin:miter;stroke-miterlimit:4;stroke-dasharray:none;stroke-dashoffset:0;stroke-opacity:1;color-rendering:auto;image-rendering:auto;shape-rendering:auto;text-rendering:auto;enable-background:accumulate"
         d="m 227.99414,192.51758 c -1.58305,0.0887 -3.09638,0.33719 -4.52344,0.76562 -3.35922,1.00852 -8.75354,4.07365 -15.20898,8.60157 -6.45545,4.52791 -13.86919,10.50878 -20.82227,17.29687 -13.90614,13.57618 -26.15519,30.33869 -24.56445,45.53906 0.81527,7.79036 6.91413,13.79617 15.50391,18.23047 8.58977,4.4343 19.80615,7.41229 31.51171,9.16602 11.70557,1.75372 23.89288,2.27179 34.39649,1.69531 10.50361,-0.57648 19.27614,-2.17906 24.41992,-4.97656 2.48906,-1.3537 4.21032,-2.71247 5.29883,-4.18946 1.08851,-1.47698 1.48506,-3.12481 1.24609,-4.66992 -0.47793,-3.09021 -3.00626,-5.61955 -5.84375,-8.17968 -2.83748,-2.56014 -6.10908,-5.12517 -8.43359,-7.72461 -2.32451,-2.59945 -3.60081,-5.0506 -3.04883,-7.60352 0.60944,-2.81864 2.01418,-4.75154 4.04492,-6.4082 2.03075,-1.65666 4.70682,-2.98138 7.66602,-4.33594 5.9184,-2.70913 12.99432,-5.56372 17.92969,-12.26172 l 0.0332,-0.0449 0.0293,-0.0469 c 0.96028,-1.58174 0.61326,-3.52896 -0.30274,-5.49023 -0.91599,-1.96127 -2.47193,-4.10538 -4.51953,-6.39844 -4.0952,-4.58612 -10.17811,-9.7385 -17.08984,-14.4375 -6.91174,-4.69899 -14.64223,-8.93565 -22.04492,-11.61719 -5.55202,-2.01115 -10.92858,-3.17615 -15.67774,-2.91015 z m 0.14258,2.51172 c 4.24822,-0.21862 9.33406,0.81219 14.68359,2.75 7.13271,2.58374 14.72051,6.7302 21.49219,11.33398 6.77168,4.60378 12.73515,9.67463 16.62891,14.03516 1.94688,2.18026 3.37223,4.18984 4.11914,5.78906 0.73751,1.5791 0.73748,2.58276 0.43554,3.10547 -4.45595,5.99894 -10.93375,8.67895 -16.90039,11.41015 -2.99517,1.37104 -5.8539,2.75186 -8.20508,4.66993 -2.35117,1.91806 -4.1758,4.42908 -4.9082,7.8164 -0.78985,3.65305 1.07879,6.94709 3.62891,9.79883 2.55011,2.85174 5.88355,5.44429 8.62305,7.91602 2.73949,2.47173 4.75954,4.84728 5.04687,6.70508 0.14366,0.92889 -0.0214,1.76573 -0.78711,2.80468 -0.76568,1.03895 -2.18925,2.22851 -4.48047,3.47461 -4.41676,2.4021 -13.04755,4.11157 -23.36328,4.67774 -10.31573,0.56617 -22.36379,0.0567 -33.88867,-1.66993 -11.52488,-1.72665 -22.53225,-4.68082 -30.73633,-8.91601 -8.20408,-4.23519 -13.46977,-9.6352 -14.16406,-16.26953 -1.42839,-13.649 10.13916,-30.1299 23.82422,-43.49024 6.84252,-6.68017 14.16728,-12.59096 20.51172,-17.04101 6.34443,-4.45005 11.81277,-7.44753 14.49218,-8.25196 1.20917,-0.36302 2.53119,-0.57556 3.94727,-0.64843 z"
         id="path7247"
         inkscape:connector-curvature="0" />
      <path
         inkscape:connector-curvature="0"
         style="fill:#ff0000;fill-opacity:1;fill-rule:evenodd;stroke:#ff0000;stroke-width:1pt;stroke-opacity:1"
         d="m 191.48482,217.53208 -0.0863,-7.07054 -8.64392,16.01664 15.80079,-9.03244 -7.07054,0.0863 z"
         id="path8176" />
    </g>
    <g
       id="g8198">
      <path
         style="color:#000000;font-style:normal;font-variant:normal;font-weight:normal;font-stretch:normal;font-size:medium;line-height:normal;font-family:sans-serif;text-indent:0;text-align:start;text-decoration:none;text-decoration-line:none;text-decoration-style:solid;text-decoration-color:#000000;letter-spacing:normal;word-spacing:normal;text-transform:none;direction:ltr;block-progression:tb;writing-mode:lr-tb;baseline-shift:baseline;text-anchor:start;white-space:normal;clip-rule:nonzero;display:inline;overflow:visible;visibility:visible;opacity:1;isolation:auto;mix-blend-mode:normal;color-interpolation:sRGB;color-interpolation-filters:linearRGB;solid-color:#000000;solid-opacity:1;fill:#0024ff;fill-opacity:1;fill-rule:evenodd;stroke:none;stroke-width:2.5;stroke-linecap:butt;stroke-linejoin:miter;stroke-miterlimit:4;stroke-dasharray:none;stroke-dashoffset:0;stroke-opacity:1;color-rendering:auto;image-rendering:auto;shape-rendering:auto;text-rendering:auto;enable-background:accumulate"
         d="m 285.07227,313.99609 c -0.92976,0.0814 -1.90609,0.39747 -2.88672,0.85547 -1.96127,0.916 -4.10538,2.47193 -6.39844,4.51953 -4.58612,4.09521 -9.73851,10.17811 -14.4375,17.08985 -4.69899,6.91173 -8.93565,14.64223 -11.61719,22.04492 -2.68154,7.40269 -3.85827,14.49294 -2.14453,20.20117 1.00852,3.35923 4.07365,8.75354 8.60156,15.20899 4.52792,6.45544 10.50879,13.86919 17.29688,20.82226 13.57618,13.90615 30.33869,26.15519 45.53906,24.56445 7.79036,-0.81527 13.79617,-6.91412 18.23047,-15.5039 4.4343,-8.58978 7.41229,-19.80615 9.16602,-31.51172 1.75372,-11.70557 2.27179,-23.89287 1.69531,-34.39649 -0.57648,-10.50361 -2.17907,-19.27613 -4.97657,-24.41992 -1.35369,-2.48905 -2.71246,-4.21032 -4.18945,-5.29882 -1.47698,-1.08851 -3.12481,-1.48507 -4.66992,-1.2461 -3.09021,0.47794 -5.61955,3.00627 -8.17969,5.84375 -2.56014,2.83749 -5.12516,6.10909 -7.72461,8.43359 -2.59944,2.32451 -5.0506,3.60082 -7.60351,3.04883 -2.81865,-0.60943 -4.75155,-2.01418 -6.40821,-4.04492 -1.65665,-2.03074 -2.98137,-4.70682 -4.33593,-7.66601 -2.70913,-5.9184 -5.56372,-12.99433 -12.26172,-17.92969 l -0.0449,-0.0332 -0.0469,-0.0293 c -0.79087,-0.48015 -1.67376,-0.63409 -2.60351,-0.55274 z m 0.14453,2.50782 c 0.50624,-0.0524 0.87283,0.0287 1.13086,0.17773 5.99893,4.45595 8.67699,10.93375 11.4082,16.90039 1.37103,2.99518 2.75381,5.85391 4.67187,8.20508 1.91807,2.35117 4.42909,4.17581 7.81641,4.9082 3.65305,0.78985 6.94709,-1.07879 9.79883,-3.6289 2.85174,-2.55012 5.44429,-5.88355 7.91601,-8.62305 2.47173,-2.7395 4.84729,-4.75955 6.70508,-5.04688 0.9289,-0.14366 1.76574,0.0214 2.80469,0.78711 1.03895,0.76569 2.22851,2.18926 3.47461,4.48047 2.4021,4.41676 4.11156,13.04755 4.67773,23.36328 0.56617,10.31574 0.0567,22.3638 -1.66992,33.88868 -1.72665,11.52487 -4.68083,22.53225 -8.91601,30.73632 -4.23519,8.20408 -9.63521,13.46977 -16.26954,14.16407 -13.649,1.42838 -30.12989,-10.13917 -43.49023,-23.82422 -6.68017,-6.84253 -12.59096,-14.16728 -17.04101,-20.51172 -4.45006,-6.34444 -7.44753,-11.81278 -8.25196,-14.49219 -1.45208,-4.83667 -0.48218,-11.49815 2.10156,-18.63086 2.58375,-7.13271 6.73021,-14.7205 11.33399,-21.49219 4.60378,-6.77168 9.67463,-12.73514 14.03515,-16.6289 2.18027,-1.94688 4.18984,-3.37224 5.78907,-4.11914 0.79961,-0.37346 1.4553,-0.55958 1.97461,-0.61328 z"
         id="path4619"
         inkscape:connector-curvature="0" />
      <path
         style="fill:#0024ff;fill-opacity:1;fill-rule:evenodd;stroke:#0024ff;stroke-width:1pt;stroke-opacity:1"
         d="m 345.41113,346.45841 6.12373,3.53552 -9.35898,-15.60959 -0.30028,18.1978 3.53553,-6.12373 z"
         id="path8206"
         inkscape:connector-curvature="0" />
    </g>
    <g
       id="g8240">
      <path
         style="color:#000000;font-style:normal;font-variant:normal;font-weight:normal;font-stretch:normal;font-size:medium;line-height:normal;font-family:sans-serif;text-indent:0;text-align:start;text-decoration:none;text-decoration-line:none;text-decoration-style:solid;text-decoration-color:#000000;letter-spacing:normal;word-spacing:normal;text-transform:none;direction:ltr;block-progression:tb;writing-mode:lr-tb;baseline-shift:baseline;text-anchor:start;white-space:normal;clip-rule:nonzero;display:inline;overflow:visible;visibility:visible;opacity:1;isolation:auto;mix-blend-mode:normal;color-interpolation:sRGB;color-interpolation-filters:linearRGB;solid-color:#000000;solid-opacity:1;fill:#73ff00;fill-opacity:1;fill-rule:evenodd;stroke:none;stroke-width:2.5;stroke-linecap:butt;stroke-linejoin:miter;stroke-miterlimit:4;stroke-dasharray:none;stroke-dashoffset:0;stroke-opacity:1;color-rendering:auto;image-rendering:auto;shape-rendering:auto;text-rendering:auto;enable-background:accumulate"
         d="m 449.90625,316.94727 c -7.79036,0.81527 -13.79617,6.91217 -18.23047,15.50195 -4.4343,8.58978 -7.41229,19.8081 -9.16601,31.51367 -1.75373,11.70557 -2.2718,23.89287 -1.69532,34.39649 0.57649,10.50361 2.18102,19.27613 4.97852,24.41992 l 0.004,0.01 0.006,0.01 c 0.75848,1.33592 1.97897,2.22493 3.3711,2.71289 1.39213,0.48796 2.96464,0.64079 4.71875,0.67383 3.50821,0.0661 7.78662,-0.37096 12.66797,-0.25 9.7627,0.24191 21.85451,2.58932 34.44726,15.5664 l 0.11133,0.11524 0.13672,0.084 c 1.45863,0.88555 3.2873,0.5796 4.60742,-0.45117 1.32013,-1.03077 2.42109,-2.65364 3.47656,-4.74023 2.11095,-4.1732 3.95607,-10.26234 5.35157,-17.17579 2.79099,-13.82689 3.78138,-30.83063 0.49023,-41.79296 -1.77896,-5.92543 -5.57941,-21.74442 -12.5957,-35.7168 -3.50815,-6.98619 -7.82381,-13.54216 -13.20117,-18.21875 -5.37737,-4.67659 -11.89779,-7.45154 -19.47852,-6.6582 z m 0.25977,2.48632 c 6.84395,-0.71622 12.57721,1.70745 17.57812,6.05664 5.00092,4.3492 9.18805,10.64567 12.60742,17.45508 6.83876,13.61883 10.58862,29.16457 12.43555,35.31641 3.0405,10.12747 2.18815,27.03818 -0.54492,40.57812 -1.36654,6.76997 -3.20267,12.72526 -5.13281,16.54102 -0.96508,1.90788 -1.97558,3.26631 -2.78516,3.89844 -0.78444,0.6125 -1.11721,0.64924 -1.71875,0.29882 -12.98481,-13.27326 -25.90645,-15.8929 -35.98242,-16.14257 -5.06353,-0.12547 -9.4308,0.31127 -12.6836,0.25 -1.6264,-0.0306 -2.96325,-0.19172 -3.9375,-0.53321 -0.97,-0.33999 -1.56986,-0.79675 -2.01757,-1.58007 -2.39944,-4.41957 -4.10806,-13.04112 -4.67383,-23.34961 -0.56617,-10.31574 -0.0567,-22.36575 1.66992,-33.89063 1.72665,-11.52488 4.68278,-22.5303 8.91797,-30.73437 4.23519,-8.20408 9.63324,-13.46977 16.26758,-14.16407 z"
         id="path4619-2"
         inkscape:connector-curvature="0" />
      <path
         style="fill:#73ff00;fill-opacity:1;fill-rule:evenodd;stroke:#73ff00;stroke-width:1pt;stroke-opacity:1"
         d="m 485.91569,352.74336 6.40856,2.98837 -10.68381,-14.73453 1.28689,18.15473 2.98836,-6.40857 z"
         id="path8250"
         inkscape:connector-curvature="0" />
    </g>
    <g
       id="g8220">
      <path
         style="color:#000000;font-style:normal;font-variant:normal;font-weight:normal;font-stretch:normal;font-size:medium;line-height:normal;font-family:sans-serif;text-indent:0;text-align:start;text-decoration:none;text-decoration-line:none;text-decoration-style:solid;text-decoration-color:#000000;letter-spacing:normal;word-spacing:normal;text-transform:none;direction:ltr;block-progression:tb;writing-mode:lr-tb;baseline-shift:baseline;text-anchor:start;white-space:normal;clip-rule:nonzero;display:inline;overflow:visible;visibility:visible;opacity:1;isolation:auto;mix-blend-mode:normal;color-interpolation:sRGB;color-interpolation-filters:linearRGB;solid-color:#000000;solid-opacity:1;fill:#000000;fill-opacity:0.63313611;fill-rule:nonzero;stroke:none;stroke-width:2.50000024;stroke-linecap:round;stroke-linejoin:miter;stroke-miterlimit:4;stroke-dasharray:5.00000045, 5.00000045;stroke-dashoffset:0;stroke-opacity:1;color-rendering:auto;image-rendering:auto;shape-rendering:auto;text-rendering:auto;enable-background:accumulate"
         d="m 381.72461,280.0625 -0.23438,1.07227 0.70313,0.84375 0.50195,0.10937 3.21485,0.0234 0.0176,0 1.75,0.0351 0.9961,-0.46093 0.24805,-1.06836 -0.68946,-0.85352 -0.50195,-0.11523 -1.76953,-0.0371 -0.008,0 -0.008,0 -3.23242,-0.0234 z m -4.92188,-0.45117 -0.01,0 -0.008,0 -4.10547,0.0859 -0.97657,0.50195 -0.20312,1.07812 0.72461,0.82227 0.50781,0.0957 4.08594,-0.084 0.0176,0 0.87695,-0.008 0.98242,-0.48829 0.21875,-1.07421 -0.71289,-0.83399 -0.50586,-0.10351 z m 14.94141,0.61914 -0.26367,1.06641 0.67773,0.86132 0.5,0.12305 2.27344,0.0801 0,-0.002 2.70508,0.13281 1.00781,-0.4336 0.2793,-1.06054 -0.66797,-0.87305 -0.49805,-0.12891 -2.72265,-0.13281 -0.008,0 -0.01,-0.002 -2.27149,-0.0781 z m -28.50586,-0.15039 -0.01,0.002 -0.008,0 -0.58398,0.0371 -0.95313,0.54102 -0.16015,1.08593 0.75976,0.79297 0.50977,0.0742 0.56641,-0.0352 4.41015,-0.21484 0.96094,-0.5293 0.17383,-1.08398 -0.74805,-0.80273 -0.50781,-0.082 z m 38.51563,0.62304 -0.29297,1.0586 0.65429,0.88086 0.4961,0.13672 1.18164,0.0742 0.0176,0.002 3.76953,0.28906 1.01953,-0.40625 0.30859,-1.05273 -0.64258,-0.89063 -0.49414,-0.14258 -3.7871,-0.29101 -0.01,-0.002 -0.008,0 -1.19922,-0.0742 z m -47.39844,-0.004 -0.008,0 -0.01,0.002 -1.70898,0.1543 -0.9375,0.56836 -0.12891,1.08984 0.78125,0.77149 0.51172,0.0605 1.69141,-0.15429 0.0176,-0.002 3.25586,-0.24804 0.94727,-0.55664 0.14258,-1.08789 -0.76954,-0.78126 -0.50976,-0.0684 z m 57.38867,0.78711 -0.32226,1.04883 0.6289,0.90039 0.48438,0.14843 0,0.002 0.008,0 0.008,0.002 0.002,0 4.29883,0.45117 0.008,0 0.01,0.002 0.61133,0.0723 1.03515,-0.36133 0.35157,-1.03906 -0.60352,-0.91797 -0.48828,-0.16406 -0.62695,-0.0742 -0.01,-0.002 -0.008,0 -4.33398,-0.45508 -0.01,-0.002 -0.008,0 -0.01,-0.002 z m -66.12891,0.0684 -0.008,0 -0.01,0.002 -2.94727,0.35156 -0.92187,0.59375 -0.0977,1.09375 0.80273,0.74805 0.51172,0.0469 2.93164,-0.3496 0.01,-0.002 0.008,0 2.00195,-0.21094 0.92969,-0.58203 0.11328,-1.09179 -0.79101,-0.75977 -0.51367,-0.0527 z m 76.09961,1.03515 -0.36718,1.03516 0.59179,0.92383 0.48438,0.17187 2.94531,0.39453 0.0176,0.002 1.97266,0.29297 1.04492,-0.33204 0.38086,-1.02929 -0.57618,-0.93164 -0.48437,-0.17969 -1.98828,-0.29492 -0.01,-0.002 -0.008,0 -2.96289,-0.39648 z m -84.6875,0.0508 -0.008,0 -0.01,0.002 -4.21485,0.625 -0.008,0.002 -0.01,0 -0.0859,0.0156 -0.89649,0.63281 -0.0488,1.0957 0.83399,0.71485 0.51367,0.0234 0.0684,-0.0117 0.0176,-0.002 4.17969,-0.62109 0.0176,-0.002 0.62891,-0.084 0.91211,-0.60742 0.082,-1.09571 -0.8125,-0.73632 -0.51367,-0.0391 z m 94.60547,1.38868 -0.39648,1.02343 0.56445,0.94141 0.48047,0.18555 1.44141,0.23437 0.0176,0.004 3.44922,0.61328 1.05469,-0.30078 0.41016,-1.01758 -0.54883,-0.94922 -0.47852,-0.19336 -3.46679,-0.61719 -0.01,-0.002 -0.008,0 -1.45899,-0.23828 z m -107.17578,0.6582 -0.01,0.002 -0.008,0.002 -1.63476,0.3164 -0.87696,0.65821 -0.0176,1.09765 0.85351,0.68945 0.51563,0.008 1.61523,-0.31055 0.0176,-0.004 3.26758,-0.58203 0.88476,-0.64648 0.0352,-1.0957 -0.84375,-0.70118 -0.51563,-0.0176 z m 117.05274,1.10156 -0.43946,1.00391 0.52149,0.96484 0.47265,0.20703 3.85547,0.80274 0.0156,0.004 0.002,0 1,0.22461 1.06641,-0.2539 0.45507,-1 -0.50781,-0.97266 -0.46679,-0.21289 -1.01758,-0.22852 -0.01,-0.002 -0.01,-0.002 -3.87305,-0.80664 z m -125.21094,0.53516 -0.01,0.002 -0.008,0.002 -3.29883,0.73829 -0.85742,0.68554 0.0137,1.09766 0.875,0.66406 0.51563,-0.008 3.27929,-0.73438 0.002,0 0.0156,-0.004 1.56836,-0.32617 0.86719,-0.67188 0.002,-1.09765 -0.86328,-0.67579 -0.51562,-0.002 z m 135.0039,1.5957 -0.46875,0.99219 0.49219,0.98047 0.46485,0.2207 2.02148,0.48438 0.0195,0.004 2.79297,0.71485 1.07422,-0.22266 0.48437,-0.98437 -0.47656,-0.98633 -0.46289,-0.22852 -2.81055,-0.71875 -0.01,-0.002 -0.01,-0.002 -2.03906,-0.49024 z m -143.2207,0.31446 -3.6582,0.93554 -0.01,0.004 -0.01,0.002 -1.17969,0.32227 -0.82617,0.72265 0.0645,1.09571 0.9043,0.62304 0.51367,-0.0293 1.16211,-0.31641 0.0195,-0.006 3.63867,-0.93164 0.83594,-0.71094 -0.0469,-1.0957 -0.89453,-0.63672 z m 152.93164,2.16796 -0.5,0.97657 0.46289,0.99609 0.45899,0.23438 0.0684,0.0176 0.0195,0.006 3.74609,1.08399 0.0137,0.004 0.006,0.002 0.90821,0.27734 1.08203,-0.17188 0.53125,-0.96093 -0.43164,-1.00781 -0.45118,-0.25 -0.92578,-0.28321 -0.01,-0.004 -0.01,-0.002 -3.7832,-1.09375 -0.01,-0.004 -0.01,-0.002 -0.0879,-0.0234 z m -162.62305,0.44727 -1.62695,0.4707 -0.01,0.002 -0.01,0.004 -3.16211,0.96875 -0.80078,0.75 0.0977,1.0918 0.92382,0.59375 0.51172,-0.0449 3.14453,-0.96289 0.0176,-0.006 1.60742,-0.46485 0.81446,-0.73633 -0.082,-1.0957 -0.91211,-0.60742 z m 172.24219,2.41601 -0.54687,0.95313 0.41601,1.01563 0.44532,0.25585 1.68554,0.54688 0.0195,0.006 3.01563,1.03125 1.08984,-0.13672 0.56055,-0.94336 -0.39844,-1.02148 -0.4414,-0.26368 -3.03516,-1.0371 -0.01,-0.004 -0.01,-0.004 -1.70508,-0.55273 z m -181.8457,0.58204 -3.09961,1.06054 -0.01,0.004 -0.01,0.002 -1.62109,0.58594 -0.76368,0.78711 0.15235,1.08789 0.94922,0.54688 0.50976,-0.0703 1.60156,-0.57812 0.0195,-0.008 3.08204,-1.05273 0.77734,-0.77539 -0.13477,-1.08789 -0.9414,-0.56445 z m 191.33984,2.67187 -0.59179,0.92383 0.36328,1.03516 0.43359,0.27929 2.91016,1.10547 0.0215,0.008 1.71094,0.6836 1.0957,-0.082 0.60742,-0.91211 -0.3457,-1.04102 -0.42969,-0.28711 -1.73046,-0.6914 -0.0117,-0.004 -0.01,-0.004 -2.92969,-1.11328 z M 279.3418,297.25 l -0.7461,0.2832 -0.01,0.004 -0.01,0.004 -3.43555,1.37304 -0.01,0.004 -0.01,0.004 -0.46484,0.19531 -0.72266,0.82617 0.20703,1.07812 0.97852,0.49805 0.50586,-0.0976 0.44336,-0.1875 0.0215,-0.008 3.39258,-1.35547 0.0215,-0.008 0.72461,-0.27539 0.75195,-0.80078 -0.17188,-1.08399 -0.95898,-0.5332 z m 210.10742,2.96094 -0.625,0.90234 0.32812,1.04688 0.42383,0.29296 0.43164,0.17969 0,0.002 3.28711,1.44921 0.0195,0.01 0.79102,0.36719 1.09765,-0.0234 0.65626,-0.87891 -0.28907,-1.05859 -0.41211,-0.30664 -0.8125,-0.37695 -0.0117,-0.006 -0.01,-0.004 -3.30664,-1.45898 -0.01,-0.006 -0.0117,-0.004 -0.45117,-0.18945 z m -219.41016,0.88281 -1.61718,0.71289 -0.01,0.004 -0.0117,0.006 -2.93164,1.35937 -0.69336,0.85156 0.24805,1.06836 0.99414,0.46289 0.50195,-0.11523 2.91211,-1.34961 0.008,-0.004 0.0137,-0.006 1.59571,-0.70312 0.70703,-0.83984 -0.22656,-1.07422 -0.98633,-0.48047 z m 228.56055,3.25195 -0.67383,0.86719 0.27149,1.0625 0.40625,0.31641 1.0625,0.51758 0.0215,0.01 3.06055,1.56055 0,0.002 0.27343,0.14453 1.09766,0.041 0.70508,-0.83985 -0.22852,-1.07422 -0.39453,-0.33007 -0.27344,-0.14649 -0.01,-0.006 -0.0117,-0.006 -3.10352,-1.58398 -0.0117,-0.004 -0.01,-0.006 -1.08398,-0.52734 z m -237.66406,1.05078 -2.09571,1.06836 -0.0117,0.006 -0.01,0.006 -2.33398,1.24805 -0.64258,0.89062 0.30859,1.05274 1.01953,0.40625 0.49414,-0.14453 2.33399,-1.24805 2.07422,-1.05859 0.66015,-0.87696 -0.28711,-1.06054 -1.01172,-0.42383 z m 245.85937,4.39258 0.20703,1.07813 0.38867,0.33984 1.3125,0.73633 0.0215,0.0117 2.8457,1.67578 0.0215,0.0137 0.0762,0.0469 1.0918,0.10742 0.75781,-0.79492 -0.16211,-1.08399 -0.37305,-0.35547 -0.0996,-0.0605 -0.0117,-0.008 -0.01,-0.006 -2.89063,-1.70117 -0.0117,-0.008 -0.0117,-0.006 -1.33399,-0.74805 -1.0957,-0.0625 z m -254.71484,0.40821 -2.19336,1.29296 -0.0117,0.006 -0.0117,0.008 -2.08789,1.28906 -0.58594,0.92773 0.37305,1.03125 1.04297,0.3418 0.48437,-0.17383 2.06446,-1.27539 0.0215,-0.0137 2.17383,-1.2793 0.60547,-0.91406 -0.35156,-1.04102 -1.03516,-0.36328 z m 263.29492,4.6875 0.13867,1.08984 0.36524,0.36328 1.20117,0.77734 0.0137,0.01 0.01,0.006 2.61523,1.7793 0.0234,0.0176 0.23633,0.16993 1.08203,0.18164 0.80859,-0.74219 -0.0879,-1.0957 -0.34766,-0.37891 -0.26171,-0.18555 -0.0117,-0.008 -0.0117,-0.008 -2.66211,-1.8125 -0.0117,-0.008 -0.0117,-0.008 -1.22461,-0.79297 -1.08984,-0.13281 z m -271.83984,0.6582 -1.9375,1.31836 -0.0117,0.008 -0.0117,0.008 -2.16211,1.54493 -0.52149,0.96484 0.43946,1.00586 1.06445,0.26953 0.4707,-0.20703 2.13868,-1.52735 0.0234,-0.0176 1.91407,-1.30078 0.54297,-0.95313 -0.41602,-1.01563 -1.05664,-0.29296 z m 280.05664,5.00195 0.0625,1.0957 0.33789,0.38672 0.76758,0.57618 0.0117,0.01 0.0137,0.01 2.375,1.87695 0.0234,0.0195 0.6836,0.56836 1.06445,0.26172 0.86133,-0.68164 -0.008,-1.0957 -0.31836,-0.4043 -0.70703,-0.58985 -0.0137,-0.01 -0.0117,-0.01 -2.42383,-1.91601 -0.0117,-0.01 -0.0117,-0.008 -0.79297,-0.5957 -1.07812,-0.20703 z m -288.21289,0.9336 -1.36719,1.08007 -0.0117,0.01 -0.0117,0.01 -2.3418,1.94922 -0.0137,0.0117 -0.0117,0.01 -0.1582,0.13867 -0.42383,1.01367 0.53906,0.95508 1.08594,0.16406 0.44922,-0.2539 0.13281,-0.11719 0.0176,-0.0137 0.008,-0.008 2.29102,-1.9082 0.0254,-0.0195 1.3418,-1.06055 0.47461,-0.99023 -0.48828,-0.98242 -1.07618,-0.21875 z m 295.96875,5.33593 -0.0215,1.09766 0.3086,0.41211 0.0723,0.0625 0.0234,0.0215 0.002,0.002 2.1211,1.96484 0.0254,0.0254 1.33789,1.3125 1.04101,0.3457 0.91407,-0.60937 0.082,-1.09375 -0.28711,-0.42774 -1.36328,-1.33789 -0.0117,-0.0117 -0.0137,-0.0117 -2.17187,-2.01368 -0.0117,-0.0117 -0.0117,-0.01 -0.0976,-0.0859 -1.0586,-0.28906 z m -303.62696,1.24024 -0.55273,0.51172 -0.0137,0.0117 -0.0117,0.0117 -2.08594,2.04493 -0.0117,0.0117 -0.0137,0.0137 -0.91992,0.95507 -0.33594,1.04493 0.61719,0.9082 1.09375,0.0703 0.42578,-0.28906 0.89453,-0.92969 0.0176,-0.0156 0.008,-0.01 2.03516,-1.99414 0.0254,-0.0254 0.52734,-0.48828 0.39649,-1.02344 -0.56446,-0.9414 -1.08984,-0.13282 z m 310.79492,5.67578 -0.14453,1.08789 0.25977,0.44531 1.13476,1.25 0.0176,0.0215 0.008,0.008 1.76562,2.07226 0.0176,0.0234 0.008,0.008 0.26953,0.3379 0.99024,0.46874 0.98047,-0.49218 0.21484,-1.07617 -0.23242,-0.46094 -0.29297,-0.36719 -0.0137,-0.0156 -0.0117,-0.0156 -1.81641,-2.13281 -0.0137,-0.0137 -0.0117,-0.0156 -1.16211,-1.2793 -1.01953,-0.40625 z m -317.83398,1.62695 -1.41992,1.66797 -0.0137,0.0156 -0.0117,0.0156 -1.72461,2.1582 -0.0137,0.0156 -0.0117,0.0176 -0.0274,0.0352 -0.20312,1.08008 0.72656,0.82227 1.0957,-0.0664 0.38477,-0.33984 0.002,-0.004 0.0117,-0.0156 0.0137,-0.0176 1.67383,-2.09571 0.008,-0.008 0.0176,-0.0234 1.39649,-1.63671 0.27148,-1.0625 -0.66992,-0.86914 -1.09766,-0.006 z m 324.22461,6.01953 -0.24805,1.06836 0.20703,0.44727 -0.004,0.002 0.0137,0.0195 1.49609,2.15625 0.004,0.008 0.0215,0.0293 1.2129,1.88672 0.9375,0.56836 1.02539,-0.38867 0.32226,-1.05078 -0.18359,-0.48047 -1.23633,-1.92383 -0.0117,-0.0195 -0.0137,-0.0176 -1.5332,-2.21289 -0.0137,-0.0176 -0.0117,-0.0176 -0.0117,-0.0156 -0.97657,-0.50195 z m -330.02148,1.64258 -0.375,0.35352 -0.21289,0.30859 -0.0137,0.0176 -0.0117,0.0195 -1.4375,2.23828 -0.0137,0.0195 -0.0117,0.0195 -1,1.68946 -0.0879,1.09375 0.8086,0.74218 1.08203,-0.18164 0.34765,-0.38086 1.00196,-1.68945 1.38867,-2.16211 0.0195,-0.0293 0.006,-0.008 0.18945,-0.27148 0.16602,-1.08594 -0.75391,-0.79687 z m 335.42382,6.71094 -0.40039,1.02344 0.14844,0.49218 0.26563,0.49024 1.14062,2.30859 0.71875,1.61719 0.8418,0.70508 1.07226,-0.23047 0.47852,-0.98828 -0.10742,-0.50391 -0.74024,-1.66015 -0.01,-0.0234 -0.0117,-0.0215 -1.14063,-2.31054 -0.01,-0.0215 -0.0117,-0.0215 -0.28906,-0.53125 -0.89453,-0.63672 z m -340.57617,2.04687 -0.3164,0.4043 -0.375,0.75781 -0.0117,0.0215 -0.01,0.0234 -1.03906,2.33203 -0.01,0.0234 -0.01,0.0234 -0.5918,1.48828 0.084,1.09571 0.91602,0.60546 1.03906,-0.34765 0.28516,-0.42969 0.57226,-1.44141 0.008,-0.0195 0.0117,-0.0273 1.01367,-2.27344 0.006,-0.0137 0.35156,-0.71094 0.006,-1.09765 -0.86328,-0.67774 z m 344.70899,6.99219 -0.5586,0.94531 0.0664,0.51172 0.24219,0.68946 0.002,0.006 0.71875,2.37304 0.004,0.0156 0.41015,1.60742 0.71094,0.83789 1.0957,-0.0469 0.63672,-0.89453 -0.0215,-0.51367 -0.42383,-1.66016 -0.006,-0.0273 -0.01,-0.0254 -0.72265,-2.39453 -0.008,-0.0254 -0.01,-0.0254 -0.25781,-0.74219 -0.78125,-0.77148 z m -348.48243,2.45703 -0.24804,0.45313 -0.27344,0.9082 -0.008,0.0254 -0.008,0.0273 -0.61719,2.41407 -0.006,0.0273 -0.006,0.0274 -0.31836,1.52539 0.27148,1.0625 1.00391,0.4414 0.96484,-0.52148 0.20704,-0.47266 0.30664,-1.4707 0.002,-0.006 0.59961,-2.35742 0.004,-0.0156 0.27149,-0.89258 -0.17578,-1.08398 -0.96289,-0.52734 z m 350.34571,7.96875 -0.0234,0.51563 0.11523,0.71094 0.28125,2.43945 0.11719,1.70508 0.54883,0.95117 1.08789,0.15039 0.78711,-0.76367 0.0703,-0.50977 -0.12304,-1.76367 -0.002,-0.0293 -0.002,-0.0273 -0.28516,-2.46875 -0.004,-0.0274 -0.004,-0.0293 -0.12109,-0.73828 -0.63282,-0.89649 -1.0957,-0.0508 z m -352.45313,2 -0.16406,0.48828 -0.10352,0.89063 -0.002,0.0273 -0.002,0.0293 -0.17188,2.48437 -0.004,0.0293 0,0.0293 -0.0371,1.61328 0.45898,0.99609 1.06836,0.25 0.85352,-0.6875 0.11914,-0.50195 0.0371,-1.60937 0,-0.004 0.16797,-2.41016 0.002,-0.0156 0.0977,-0.83399 -0.36524,-1.03515 -1.04102,-0.34766 z m 353.16602,5.97657 -0.11719,0.50195 -0.0586,2.5 -0.16407,2.37109 0,0.008 -0.004,0.0488 0.0215,0.002 0.34766,0.98437 1.04101,0.34766 0.91407,-0.60743 0.16211,-0.48828 0.002,-0.008 0.002,-0.0293 0.002,-0.0293 0.17382,-2.48438 0.002,-0.0293 0,-0.0274 0.0586,-2.5 -0.45898,-0.99804 -1.06836,-0.25 z m -353.42774,4.21484 -0.0703,0.50976 0.0606,0.87696 0.002,0.0293 0.002,0.0293 0.28711,2.4668 0.002,0.0293 0.006,0.0274 0.26171,1.61523 0.63282,0.89649 1.0957,0.0508 0.71484,-0.83203 0.0234,-0.51563 -0.2539,-1.55859 -0.002,-0.0234 -0.27734,-2.38672 -0.002,-0.0156 -0.0586,-0.86133 -0.54883,-0.95117 -1.08789,-0.15039 z m 352.62305,5.5332 -0.20703,0.4707 -0.48828,2.3418 -0.004,0.0156 -0.59765,2.3457 -0.002,0.006 -0.0156,0.0527 0.17578,1.08399 0.96289,0.52734 1.00781,-0.43555 0.2461,-0.45117 0.0176,-0.0605 0.01,-0.0254 0.006,-0.0254 0.61719,-2.41601 0.006,-0.0273 0.006,-0.0254 0.5,-2.39454 -0.27148,-1.06445 -1.00391,-0.43945 z m -350.37891,3.63672 -0.63867,0.89453 0.0234,0.51367 0.20313,0.80078 0.008,0.0254 0.008,0.0254 0.72266,2.39648 0.008,0.0254 0.01,0.0254 0.55079,1.57813 0.78125,0.77148 1.08789,-0.14062 0.55859,-0.94532 -0.0664,-0.50976 -0.53515,-1.5293 -0.002,-0.004 -0.7207,-2.38477 -0.002,-0.006 -0.18946,-0.74805 -0.71093,-0.83593 z m 347.83204,5.81836 -0.28516,0.42969 -0.90039,2.26758 -0.008,0.0195 -0.0117,0.0273 -1,2.24609 0.0391,1.09571 0.88867,0.64453 1.05274,-0.30664 0.30273,-0.41602 1.02148,-2.29492 0.01,-0.0215 0.01,-0.0254 0.91796,-2.3125 -0.082,-1.09375 -0.91601,-0.60743 z m -344.6543,3.70508 -0.47852,0.98828 0.10742,0.50195 0.37891,0.85157 0.01,0.0215 0.0117,0.0234 1.14062,2.31054 0.0117,0.0215 0.01,0.0195 0.7129,1.3125 0.89453,0.63672 1.05078,-0.3125 0.39844,-1.02344 -0.14649,-0.49219 -0.68945,-1.26953 -1.11914,-2.26562 -0.006,-0.0137 -0.37305,-0.83593 -0.8418,-0.70508 z m 340.53125,5.24609 -0.33399,0.39258 -0.082,0.1543 -0.0137,0.0254 -0.01,0.0156 -1.29297,2.1836 -0.0176,0.0293 -0.006,0.008 -1.13867,1.76953 -0.12696,1.08984 0.78125,0.77148 1.08789,-0.14257 0.36133,-0.36719 1.16211,-1.80664 0.0117,-0.0195 0.0117,-0.0195 1.33984,-2.26368 0.0117,-0.0195 0.0117,-0.0215 0.10547,-0.19336 0.0469,-1.09766 -0.83593,-0.71093 z m -335.88867,3.65235 -0.32227,1.04882 0.18359,0.48243 0.75586,1.17773 0.0117,0.0176 0.0137,0.0176 1.53515,2.21289 0.0117,0.0176 0.0117,0.0176 0.54297,0.72657 0.97461,0.5039 0.99609,-0.46094 0.25,-1.06835 -0.2168,-0.46876 -0.54101,-0.72656 -1.48633,-2.14062 -0.004,-0.008 -0.0215,-0.0293 -0.73242,-1.14063 -0.9375,-0.57031 z m 330.54492,4.5957 -0.38672,0.3418 -0.55664,0.74609 -1.69922,2.12695 -0.82031,0.96289 -0.27149,1.0625 0.66993,0.86914 1.09765,0.004 0.4082,-0.31445 0.84571,-0.99219 0.0117,-0.0156 0.0137,-0.0156 1.72266,-2.16016 0.0137,-0.0156 0.0117,-0.0156 0.55859,-0.74804 0.20312,-1.07813 -0.72656,-0.82422 z m -324.73633,3.58789 -0.17773,1.08203 0.24609,0.45313 1.54492,1.81445 0.0137,0.0156 0.0137,0.0137 1.75586,1.9375 1.01953,0.4082 0.94726,-0.55469 0.14649,-1.08789 -0.26172,-0.44531 -1.73047,-1.90821 -0.0176,-0.0215 -0.008,-0.008 -1.52149,-1.78516 -1.00586,-0.4375 z m 317.98633,4.25391 -1.50977,1.57031 -0.0176,0.0156 -0.008,0.01 -1.96484,1.92383 -0.36719,1.03515 0.5918,0.92383 1.09179,0.10352 0.4336,-0.27735 1.99023,-1.94922 0.0117,-0.0137 0.0137,-0.0117 1.53516,-1.5957 0.33789,-1.04492 -0.61719,-0.9082 -1.0957,-0.0703 z m -311.24024,3.16015 -0.082,1.09571 0.28516,0.42773 0.73047,0.71484 0.0117,0.0117 0.0137,0.0137 2.17187,2.01172 0.0117,0.0117 0.0137,0.0117 0.76368,0.66992 1.05859,0.28906 0.87891,-0.6582 0.0215,-1.09766 -0.31055,-0.4121 -0.73828,-0.64844 -2.14648,-1.98828 -0.0254,-0.0234 -0.70508,-0.69141 -1.04102,-0.3457 z m 304.0918,3.67578 -0.80078,0.70313 -2.31641,1.92969 -0.0234,0.0195 -0.64649,0.51172 -0.47461,0.98828 0.48828,0.98242 1.07422,0.21875 0.46094,-0.22852 0.67188,-0.53125 0.0117,-0.01 0.0137,-0.01 2.33984,-1.94922 0.0137,-0.01 0.0117,-0.0117 0.82617,-0.72461 0.42188,-1.01172 -0.53711,-0.95703 L 530.75,428 Z m -296.66601,3.05274 0.008,1.09765 0.32031,0.40235 0.0254,0.0215 0.0117,0.01 0.0117,0.01 2.42383,1.91602 0.0117,0.01 0.0137,0.01 1.5,1.12891 1.07812,0.20703 0.82617,-0.72266 -0.0625,-1.0957 -0.33984,-0.38867 -1.47656,-1.10938 -0.0117,-0.01 -0.0137,-0.01 -2.37305,-1.87695 -0.0254,-0.0195 -1.06641,-0.26172 z m 288.93945,3.13867 -0.26953,0.20312 -0.0254,0.0176 -2.53711,1.81446 -0.0234,0.0156 -1.17969,0.80274 -0.54492,0.95312 0.41797,1.01367 1.05664,0.29492 0.47656,-0.19531 1.20313,-0.81836 0.0117,-0.008 0.0117,-0.01 2.58593,-1.84765 0.0117,-0.008 0.0117,-0.01 0.29297,-0.2207 0.5,-0.97657 -0.46484,-0.99414 -1.07032,-0.24414 z m -280.97852,2.95898 0.11328,1.08985 0.35743,0.37109 2.19336,1.49414 0.0117,0.008 0.0117,0.008 1.97071,1.27539 1.08789,0.13281 0.77539,-0.7793 -0.13867,-1.08789 -0.36524,-0.36328 -1.94726,-1.26172 -0.0137,-0.01 -0.01,-0.006 -2.16992,-1.47656 -1.08594,-0.15626 z m 272.79297,2.63086 -0.004,0.002 -2.79297,1.72656 -0.0215,0.0137 -1.4082,0.82813 -0.60547,0.91406 0.34961,1.04101 1.03711,0.36329 0.48828,-0.16407 1.42969,-0.84179 0.01,-0.008 0.0117,-0.006 2.81641,-1.74023 0.0117,-0.006 0.0117,-0.008 0.0254,-0.0176 0.5664,-0.93945 -0.39453,-1.02539 -1.05078,-0.31836 z m -264.40429,2.84571 0.18554,1.08007 0.38086,0.34766 2.22461,1.31055 0.0117,0.006 0.0117,0.006 2.10742,1.18359 1.0957,0.0625 0.72266,-0.82617 -0.20703,-1.07617 -0.38672,-0.33985 -2.08594,-1.16992 -0.0195,-0.0117 -0.004,-0.002 -2.20312,-1.29688 -1.09375,-0.084 z m 255.85742,2.1875 -0.0586,0.0332 -3.01172,1.61328 -0.0234,0.0117 -1.28321,0.6543 -0.66015,0.87695 0.28711,1.06055 1.01172,0.42382 0.49804,-0.13476 1.30469,-0.66602 0.0117,-0.006 0.01,-0.006 3.03516,-1.62304 0.0117,-0.006 0.01,-0.006 0.082,-0.0449 0.62304,-0.90235 -0.32812,-1.04882 -1.02735,-0.38282 z m -247.13672,2.74414 0.25,1.06836 0.40039,0.32421 2.58984,1.32032 0.01,0.006 0.0117,0.006 1.88086,0.91406 1.09765,-0.002 0.67383,-0.86719 -0.27148,-1.0625 -0.40625,-0.31641 -1.86133,-0.90429 -0.0215,-0.0117 -2.56836,-1.3086 -1.0957,-0.0195 z m 238.30273,1.77929 -0.47265,0.22852 -3.22071,1.49219 -0.0195,0.01 -0.78515,0.34571 -0.70704,0.83984 0.22657,1.07422 0.98632,0.48047 0.50391,-0.10743 0.80469,-0.35546 0.01,-0.004 0.0117,-0.004 3.24024,-1.50195 0.01,-0.006 0.0117,-0.004 0.49219,-0.24023 0.67578,-0.86523 -0.26562,-1.06446 -1.00391,-0.44336 z m -227.58008,1.72852 -1.08007,0.0215 -0.65625,0.87891 0.29101,1.05859 0.41211,0.3086 0.006,0.004 0.0117,0.004 0.01,0.004 3.30664,1.46093 0.01,0.004 0.0117,0.004 1.26953,0.5332 1.0957,-0.0605 0.625,-0.90234 -0.32812,-1.04883 -0.42383,-0.29297 -1.25,-0.52344 -0.0215,-0.01 -3.26368,-1.44141 -0.0215,-0.01 z m 218.51172,2.32031 -1.26172,0.53125 -0.0195,0.008 -3.33203,1.33204 -0.73633,0.8125 0.18946,1.08203 0.96875,0.51562 0.50586,-0.0898 3.35156,-1.33789 0.01,-0.004 0.01,-0.006 1.2832,-0.53711 0.72266,-0.82617 -0.20703,-1.07812 -0.97852,-0.49805 z m -210.4375,1.62305 -0.60937,0.91211 0.3457,1.04297 0.42969,0.28515 0.9082,0.36328 0.01,0.004 0.01,0.004 3.4961,1.32812 0.01,0.002 0.01,0.004 0.26562,0.0957 1.0918,-0.11718 0.57617,-0.9336 -0.38086,-1.02929 -0.43945,-0.27149 -0.24414,-0.0879 -0.004,-0.002 -0.0176,-0.006 -3.45507,-1.3125 -0.0215,-0.008 -0.88672,-0.35547 z m 201.1836,1.99023 -2.43555,0.88086 -0.0195,0.006 -2.24219,0.76563 -0.77539,0.77539 0.13281,1.08984 0.94141,0.56445 0.51172,-0.0625 2.25976,-0.77343 0.01,-0.004 0.01,-0.004 2.45704,-0.88476 0.76367,-0.78906 -0.15235,-1.08594 -0.95117,-0.54883 z m -191.85743,1.50196 -0.56054,0.94336 0.39844,1.02343 0.4414,0.26172 2.19531,0.75196 0.01,0.004 0.01,0.002 2.55078,0.82618 1.08593,-0.1543 0.54493,-0.95117 -0.41407,-1.01563 -0.44726,-0.25781 -2.5293,-0.81836 -0.0195,-0.006 -2.17578,-0.74609 z m 182.43165,1.70898 -0.26172,0.084 -0.0176,0.006 -3.69141,1.13086 -0.006,0.002 -0.0137,0.004 -0.75586,0.2168 -0.8125,0.73828 0.0801,1.09375 0.91406,0.60938 0.51367,-0.0391 0.77344,-0.22461 0.01,-0.002 0.01,-0.002 3.72852,-1.14258 0.01,-0.004 0.01,-0.002 0.2793,-0.0918 0.78906,-0.76172 -0.11524,-1.09179 -0.93164,-0.57813 z m -172.94532,1.37305 -0.53125,0.96094 0.43164,1.00976 0.45118,0.24805 0.0781,0.0254 0.01,0.002 0.01,0.002 3.78516,1.09571 0.008,0.002 0.01,0.002 0.94531,0.25782 1.07812,-0.20508 0.5,-0.97656 -0.46289,-0.9961 -0.45898,-0.23437 -0.92578,-0.25196 -0.0176,-0.006 -3.74805,-1.08203 -0.0176,-0.006 -0.0605,-0.0195 z m 163.40821,1.42578 -2.01954,0.55078 -2.79882,0.7168 -0.83594,0.71093 0.0488,1.09571 0.89258,0.63672 0.51562,-0.0215 2.79688,-0.71679 0.01,-0.002 0.01,-0.002 2.03711,-0.55664 0.82421,-0.72266 -0.0625,-1.0957 -0.90429,-0.62305 z m -153.81641,1.26953 -0.48437,0.98437 0.47851,0.98633 0.46094,0.22852 1.95117,0.5 0.01,0.002 0.01,0.002 2.90235,0.69531 1.07226,-0.23828 0.4707,-0.99024 -0.49414,-0.98047 -0.46484,-0.2207 -2.88477,-0.69141 -0.0195,-0.006 -1.93164,-0.49414 z m 144.1582,1.17578 -0.15429,0.0371 -0.0195,0.004 -3.95312,0.88476 -0.002,0 -0.0156,0.004 -0.69922,0.14648 -0.86718,0.67188 -0.002,1.09765 0.86328,0.67579 0.51563,0.002 0.7168,-0.15039 0.01,-0.002 0.01,-0.002 3.98828,-0.89258 0.01,-0.002 0.01,-0.002 0.17383,-0.043 0.8457,-0.69727 -0.0293,-1.09765 -0.88476,-0.65039 z m -134.45703,1.15039 -0.45508,0.99805 0.50782,0.97265 0.46875,0.21485 0.15234,0.0332 0.008,0.002 0.01,0.002 4.03711,0.8418 0.01,0.002 0.01,0.002 0.70703,0.13672 1.05859,-0.28711 0.42579,-1.01172 -0.53711,-0.95703 -0.47461,-0.19922 -0.68946,-0.13281 -0.0176,-0.004 -4.00195,-0.83398 -0.0176,-0.004 -0.13281,-0.0293 z m 122.24414,1.39844 -0.0176,0.004 -2.39257,0.42382 -0.88672,0.64844 -0.0332,1.0957 0.84375,0.70118 0.51368,0.0176 2.41015,-0.42968 0.01,-0.002 0.008,-0.002 2.50586,-0.48242 0.87695,-0.66016 0.0195,-1.09765 -0.85546,-0.68946 -0.51368,-0.008 z m -112.47461,0.57422 -0.41211,1.01758 0.55078,0.94922 0.47852,0.19335 2.5918,0.46094 0.01,0.002 0.008,0.002 2.33593,0.38086 1.05078,-0.31641 0.39649,-1.02344 -0.56445,-0.9414 -0.48047,-0.1875 -2.31836,-0.37696 -0.0176,-0.004 -2.57422,-0.45703 z m 104.20703,0.83398 -3.98046,0.5918 -0.90625,0.62109 -0.0645,1.09571 0.82227,0.72461 0.51367,0.0312 3.98242,-0.58985 0.01,-0.002 0.008,-0.002 0.96289,-0.15625 0.89453,-0.63477 0.0508,-1.0957 -0.83398,-0.71289 -0.51367,-0.0234 z m -94.36328,0.79297 -0.38281,1.0293 0.57813,0.93359 0.48242,0.17774 1.11133,0.16601 0.01,0 0.008,0.002 3.84375,0.51368 1.04102,-0.34766 0.36523,-1.0332 -0.58984,-0.92578 -0.48633,-0.17188 -3.82422,-0.51172 -0.0176,-0.002 -1.09376,-0.16211 z m 81.64844,0.9082 -0.01,0.002 -0.008,0 -1.11914,0.11719 -0.92969,0.58203 -0.11328,1.09179 0.79102,0.75977 0.51367,0.0527 1.13672,-0.11914 0.008,-0.002 0.01,0 3.83008,-0.45703 0.92187,-0.5957 0.0957,-1.0918 -0.80078,-0.75 -0.51367,-0.0449 z m -71.76953,0.40235 -0.33594,1.04492 0.61719,0.9082 0.48828,0.15821 4.08203,0.42773 0.008,0 0.008,0.002 0.89453,0.0801 1.02539,-0.39062 0.32226,-1.04883 -0.6289,-0.89844 -0.49219,-0.15039 -0.87695,-0.0801 -0.0176,-0.002 -4.0625,-0.42578 z m 63.09961,0.44531 -0.0176,0.002 -2.37109,0.18164 -0.94727,0.55664 -0.14258,1.0879 0.76953,0.78125 0.51172,0.0664 2.38867,-0.18164 0.008,-0.002 0.01,0 2.59375,-0.23633 0.9375,-0.56836 0.12891,-1.08984 -0.78125,-0.77149 -0.51172,-0.0586 z m -53.16797,0.52149 -0.30664,1.05273 0.64062,0.89062 0.49415,0.14454 2.90429,0.22265 0.008,0 0.008,0 2.08593,0.13086 1.01368,-0.41797 0.29297,-1.05859 -0.6543,-0.88086 -0.4961,-0.13672 -2.06836,-0.12891 0,-0.002 -2.90234,-0.22266 z m 44.33789,0.0937 -3.50586,0.17188 -0.96094,0.52734 -0.17382,1.08399 0.74804,0.80273 0.50782,0.082 3.52343,-0.17187 0.01,0 0.008,0 1.4707,-0.0918 0.95313,-0.54297 0.1582,-1.08593 -0.75781,-0.79297 -0.50977,-0.0742 z m -34.38086,0.56055 -0.2793,1.0625 0.66797,0.8711 0.49805,0.13085 1.83594,0.0899 0.01,0 0.008,0 3.16015,0.10937 1.00195,-0.44726 0.26172,-1.06446 -0.67773,-0.86328 -0.5,-0.12304 -3.14258,-0.10938 -0.0176,0 -1.81836,-0.0898 z m 25.45508,-0.1875 -0.0176,0 -4.49805,0.0937 -0.008,0 -0.01,0 0,0.004 -0.97266,0.48437 -0.21875,1.07618 0.71484,0.83203 0.50391,0.10351 0.008,0 0.008,0 0.008,0 4.53515,-0.0957 0.008,0 0.01,0 0.45703,-0.0156 0.96875,-0.51562 0.18946,-1.08203 -0.73633,-0.8125 -0.50781,-0.0879 z m -15.48438,0.53711 -0.24804,1.06836 0.6914,0.85352 0.50196,0.11523 0.88086,0.0195 0.008,0 0.01,0 4.11719,0.0274 0.99024,-0.47461 0.23437,-1.07227 -0.70312,-0.8418 -0.50391,-0.11132 -4.10156,-0.0274 -0.0176,0 -0.86328,-0.0176 z"
         id="path6126"
         inkscape:connector-curvature="0" />
      <path
         id="path8230"
         d="m 391.3732,280.82901 5,-5 -17.5,5 17.5,5 -5,-5 z"
         style="fill:#000000;fill-opacity:0.63313611;fill-rule:evenodd;stroke:#000000;stroke-width:1pt;stroke-opacity:0.63313611"
         inkscape:connector-curvature="0" />
    </g>
    <g
       transform="matrix(1.2948143,0,0,1.2948143,42.803272,30.594421)"
       id="g7252">
      <g
         style="font-style:normal;font-variant:normal;font-weight:normal;font-stretch:normal;letter-spacing:normal;word-spacing:normal;text-anchor:start;fill:none;fill-opacity:1;fill-rule:evenodd;stroke:#000000;stroke-linecap:butt;stroke-linejoin:miter;stroke-miterlimit:10.43299961;stroke-dasharray:none;stroke-dashoffset:0;stroke-opacity:1"
         id="content"
         transform="matrix(0.47192875,0,0,-0.47192875,-82.587532,337.01262)"
         xml:space="preserve"
         stroke-miterlimit="10.433"
         font-style="normal"
         font-variant="normal"
         font-weight="normal"
         font-stretch="normal"
         font-size-adjust="none"
         letter-spacing="normal"
         word-spacing="normal"><path
           style="fill:#000000;stroke-width:0"
           inkscape:connector-curvature="0"
           d="m 458.04,418.65 0.1,0.27 0.09,0.25 0.11,0.25 0.11,0.24 0.11,0.23 0.11,0.23 0.12,0.22 0.13,0.21 0.13,0.2 0.13,0.19 0.13,0.19 0.14,0.18 0.28,0.35 0.29,0.31 0.3,0.29 0.31,0.27 0.31,0.25 0.32,0.22 0.31,0.2 0.32,0.18 0.32,0.17 0.31,0.14 0.32,0.13 0.3,0.11 0.3,0.1 0.29,0.08 0.28,0.07 0.26,0.06 0.26,0.05 0.24,0.04 0.22,0.03 0.2,0.03 0.19,0.02 0.16,0.01 0.15,0 0.11,0.01 0.1,0 0.06,0 c 7.52,0 8.07,-8.72 8.07,-12.65 0,-3.04 -0.24,-3.89 -0.6,-4.88 -1.09,-3.64 -2.59,-9.42 -2.59,-10.71 0,-0.55 0.25,-0.9 0.65,-0.9 0.65,0 1.05,1.1 1.6,2.99 1.14,4.18 1.64,7.02 1.84,8.57 0.1,0.65 0.2,1.29 0.4,1.94 1.59,4.93 4.78,12.35 6.77,16.29 0.35,0.6 0.95,1.69 0.95,1.89 0,0.5 -0.5,0.5 -0.6,0.5 -0.15,0 -0.45,0 -0.6,-0.35 -2.59,-4.73 -4.58,-9.71 -6.57,-14.74 -0.05,1.54 -0.1,5.33 -2.05,10.16 -1.19,3.04 -3.18,5.48 -6.62,5.48 -6.23,0 -9.71,-7.57 -9.71,-9.12 0,-0.5 0.44,-0.5 0.94,-0.5 z"
           id="path7255" /><path
           style="fill:#000000;stroke-width:0"
           inkscape:connector-curvature="0"
           d="m 498.99,410.12 0,0.71 -0.02,0.68 -0.03,0.66 -0.04,0.64 -0.06,0.62 -0.08,0.59 -0.09,0.58 -0.11,0.56 -0.12,0.55 -0.15,0.53 -0.17,0.51 -0.19,0.5 -0.21,0.49 -0.24,0.48 -0.26,0.47 -0.14,0.24 -0.15,0.23 c -1.07,1.6 -3.24,2.99 -6.03,2.99 l 0,-0.97 c 1.89,0 3.7,-1.15 4.33,-3.18 0.56,-1.88 0.59,-4.39 0.59,-7.42 0,-2.58 0,-5.17 -0.45,-7.36 -0.7,-3.17 -3.07,-3.94 -4.47,-3.94 l 0,0 c -1.6,0 -3.73,0.94 -4.43,3.8 -0.49,2.06 -0.49,4.92 -0.49,7.5 0,2.54 0,5.19 0.53,7.11 0.73,2.76 2.96,3.49 4.39,3.49 l 0,0.97 c -8.09,0 -8.09,-9.52 -8.09,-12.03 0,-2.51 0,-11.82 8.09,-11.82 8.09,0 8.09,9.31 8.09,11.82 z"
           id="path7257" /></g>    </g>
    <g
       transform="matrix(1.2948143,0,0,1.2948143,175.73935,138.07466)"
       id="g7319">
      <g
         style="font-style:normal;font-variant:normal;font-weight:normal;font-stretch:normal;letter-spacing:normal;word-spacing:normal;text-anchor:start;fill:none;fill-opacity:1;fill-rule:evenodd;stroke:#000000;stroke-linecap:butt;stroke-linejoin:miter;stroke-miterlimit:10.43299961;stroke-dasharray:none;stroke-dashoffset:0;stroke-opacity:1"
         word-spacing="normal"
         letter-spacing="normal"
         font-size-adjust="none"
         font-stretch="normal"
         font-weight="normal"
         font-variant="normal"
         font-style="normal"
         stroke-miterlimit="10.433"
         xml:space="preserve"
         transform="matrix(0.47192875,0,0,-0.47192875,-82.587532,337.01262)"
         id="g7321"><path
           style="fill:#000000;stroke-width:0"
           inkscape:connector-curvature="0"
           id="path7323"
           d="m 458.04,418.65 0.1,0.27 0.09,0.25 0.11,0.25 0.11,0.24 0.11,0.23 0.11,0.23 0.12,0.22 0.13,0.21 0.13,0.2 0.13,0.19 0.13,0.19 0.14,0.18 0.28,0.35 0.29,0.31 0.3,0.29 0.31,0.27 0.31,0.25 0.32,0.22 0.31,0.2 0.32,0.18 0.32,0.17 0.31,0.14 0.32,0.13 0.3,0.11 0.3,0.1 0.29,0.08 0.28,0.07 0.26,0.06 0.26,0.05 0.24,0.04 0.22,0.03 0.2,0.03 0.19,0.02 0.16,0.01 0.15,0 0.11,0.01 0.1,0 0.06,0 c 7.52,0 8.07,-8.72 8.07,-12.65 0,-3.04 -0.24,-3.89 -0.6,-4.88 -1.09,-3.64 -2.59,-9.42 -2.59,-10.71 0,-0.55 0.25,-0.9 0.65,-0.9 0.65,0 1.05,1.1 1.6,2.99 1.14,4.18 1.64,7.02 1.84,8.57 0.1,0.65 0.2,1.29 0.4,1.94 1.59,4.93 4.78,12.35 6.77,16.29 0.35,0.6 0.95,1.69 0.95,1.89 0,0.5 -0.5,0.5 -0.6,0.5 -0.15,0 -0.45,0 -0.6,-0.35 -2.59,-4.73 -4.58,-9.71 -6.57,-14.74 -0.05,1.54 -0.1,5.33 -2.05,10.16 -1.19,3.04 -3.18,5.48 -6.62,5.48 -6.23,0 -9.71,-7.57 -9.71,-9.12 0,-0.5 0.44,-0.5 0.94,-0.5 z" /><path
           style="fill:#000000;stroke-width:0"
           inkscape:connector-curvature="0"
           id="path7325"
           d="m 492.68,421.18 0,0.04 0,0.04 0,0.04 0,0.04 0,0.04 0,0.04 0,0.03 0,0.04 -0.01,0.03 0,0.03 0,0.04 0,0.03 -0.01,0.02 0,0.03 0,0.03 -0.01,0.03 0,0.02 0,0.02 -0.02,0.05 -0.01,0.04 -0.01,0.04 -0.02,0.03 -0.02,0.03 -0.02,0.03 -0.03,0.03 -0.02,0.02 -0.03,0.02 -0.04,0.02 -0.03,0.01 -0.04,0.01 -0.05,0.02 -0.05,0 -0.02,0.01 -0.03,0 -0.03,0.01 -0.02,0 -0.03,0 -0.03,0 -0.04,0 -0.03,0.01 -0.03,0 -0.04,0 -0.03,0 -0.04,0 -0.04,0 -0.04,0 -0.04,0 -0.04,0 -0.05,0 -0.04,0 c -2.24,-2.19 -5.41,-2.23 -6.84,-2.23 l 0,-1.25 c 0.84,0 3.14,0 5.06,0.97 l 0,-17.78 c 0,-1.15 0,-1.61 -3.49,-1.61 l -1.33,0 0,-1.25 12.45,0 0,1.25 -1.32,0 c -3.49,0 -3.49,0.46 -3.49,1.61 z" /></g>    </g>
    <g
       transform="matrix(1.2948143,0,0,1.2948143,315.03939,155.04523)"
       id="g7395">
      <g
         style="font-style:normal;font-variant:normal;font-weight:normal;font-stretch:normal;letter-spacing:normal;word-spacing:normal;text-anchor:start;fill:none;fill-opacity:1;fill-rule:evenodd;stroke:#000000;stroke-linecap:butt;stroke-linejoin:miter;stroke-miterlimit:10.43299961;stroke-dasharray:none;stroke-dashoffset:0;stroke-opacity:1"
         id="g7397"
         transform="matrix(0.47192875,0,0,-0.47192875,-82.587532,337.01262)"
         xml:space="preserve"
         stroke-miterlimit="10.433"
         font-style="normal"
         font-variant="normal"
         font-weight="normal"
         font-stretch="normal"
         font-size-adjust="none"
         letter-spacing="normal"
         word-spacing="normal"><path
           style="fill:#000000;stroke-width:0"
           inkscape:connector-curvature="0"
           d="m 458.04,418.65 0.1,0.27 0.09,0.25 0.11,0.25 0.11,0.24 0.11,0.23 0.11,0.23 0.12,0.22 0.13,0.21 0.13,0.2 0.13,0.19 0.13,0.19 0.14,0.18 0.28,0.35 0.29,0.31 0.3,0.29 0.31,0.27 0.31,0.25 0.32,0.22 0.31,0.2 0.32,0.18 0.32,0.17 0.31,0.14 0.32,0.13 0.3,0.11 0.3,0.1 0.29,0.08 0.28,0.07 0.26,0.06 0.26,0.05 0.24,0.04 0.22,0.03 0.2,0.03 0.19,0.02 0.16,0.01 0.15,0 0.11,0.01 0.1,0 0.06,0 c 7.52,0 8.07,-8.72 8.07,-12.65 0,-3.04 -0.24,-3.89 -0.6,-4.88 -1.09,-3.64 -2.59,-9.42 -2.59,-10.71 0,-0.55 0.25,-0.9 0.65,-0.9 0.65,0 1.05,1.1 1.6,2.99 1.14,4.18 1.64,7.02 1.84,8.57 0.1,0.65 0.2,1.29 0.4,1.94 1.59,4.93 4.78,12.35 6.77,16.29 0.35,0.6 0.95,1.69 0.95,1.89 0,0.5 -0.5,0.5 -0.6,0.5 -0.15,0 -0.45,0 -0.6,-0.35 -2.59,-4.73 -4.58,-9.71 -6.57,-14.74 -0.05,1.54 -0.1,5.33 -2.05,10.16 -1.19,3.04 -3.18,5.48 -6.62,5.48 -6.23,0 -9.71,-7.57 -9.71,-9.12 0,-0.5 0.44,-0.5 0.94,-0.5 z"
           id="path7399" /><path
           style="fill:#000000;stroke-width:0"
           inkscape:connector-curvature="0"
           d="m 498.61,405.35 -1.19,0 c -0.1,-0.77 -0.45,-2.83 -0.9,-3.18 -0.28,-0.21 -2.97,-0.21 -3.45,-0.21 l -6.42,0 c 3.66,3.25 4.88,4.22 6.97,5.86 2.58,2.06 4.99,4.22 4.99,7.54 0,4.21 -3.7,6.79 -8.16,6.79 -4.33,0 -7.25,-3.03 -7.25,-6.24 0,-1.78 1.5,-1.95 1.84,-1.95 0.84,0 1.85,0.59 1.85,1.85 0,0.62 -0.24,1.85 -2.05,1.85 1.08,2.47 3.45,3.24 5.09,3.24 3.48,0 5.3,-2.72 5.3,-5.54 0,-3.04 -2.16,-5.45 -3.28,-6.7 l -8.4,-8.3 c -0.35,-0.31 -0.35,-0.38 -0.35,-1.36 l 14.36,0 z"
           id="path7401" /></g>    </g>
    <g
       transform="matrix(1.2948143,0,0,1.2948143,223.11551,75.849264)"
       id="g7479">
      <g
         style="font-style:normal;font-variant:normal;font-weight:normal;font-stretch:normal;letter-spacing:normal;word-spacing:normal;text-anchor:start;fill:none;fill-opacity:1;fill-rule:evenodd;stroke:#000000;stroke-linecap:butt;stroke-linejoin:miter;stroke-miterlimit:10.43299961;stroke-dasharray:none;stroke-dashoffset:0;stroke-opacity:1"
         word-spacing="normal"
         letter-spacing="normal"
         font-size-adjust="none"
         font-stretch="normal"
         font-weight="normal"
         font-variant="normal"
         font-style="normal"
         stroke-miterlimit="10.433"
         xml:space="preserve"
         transform="matrix(0.47192875,0,0,-0.47192875,-82.587532,337.01262)"
         id="g7481"><path
           style="fill:#000000;stroke-width:0"
           inkscape:connector-curvature="0"
           id="path7483"
           d="m 458.04,418.65 0.1,0.27 0.09,0.25 0.11,0.25 0.11,0.24 0.11,0.23 0.11,0.23 0.12,0.22 0.13,0.21 0.13,0.2 0.13,0.19 0.13,0.19 0.14,0.18 0.28,0.35 0.29,0.31 0.3,0.29 0.31,0.27 0.31,0.25 0.32,0.22 0.31,0.2 0.32,0.18 0.32,0.17 0.31,0.14 0.32,0.13 0.3,0.11 0.3,0.1 0.29,0.08 0.28,0.07 0.26,0.06 0.26,0.05 0.24,0.04 0.22,0.03 0.2,0.03 0.19,0.02 0.16,0.01 0.15,0 0.11,0.01 0.1,0 0.06,0 c 7.52,0 8.07,-8.72 8.07,-12.65 0,-3.04 -0.24,-3.89 -0.6,-4.88 -1.09,-3.64 -2.59,-9.42 -2.59,-10.71 0,-0.55 0.25,-0.9 0.65,-0.9 0.65,0 1.05,1.1 1.6,2.99 1.14,4.18 1.64,7.02 1.84,8.57 0.1,0.65 0.2,1.29 0.4,1.94 1.59,4.93 4.78,12.35 6.77,16.29 0.35,0.6 0.95,1.69 0.95,1.89 0,0.5 -0.5,0.5 -0.6,0.5 -0.15,0 -0.45,0 -0.6,-0.35 -2.59,-4.73 -4.58,-9.71 -6.57,-14.74 -0.05,1.54 -0.1,5.33 -2.05,10.16 -1.19,3.04 -3.18,5.48 -6.62,5.48 -6.23,0 -9.71,-7.57 -9.71,-9.12 0,-0.5 0.44,-0.5 0.94,-0.5 z" /><path
           style="fill:#000000;stroke-width:0"
           inkscape:connector-curvature="0"
           id="path7485"
           d="m 490.52,410.64 0.25,0 0.25,-0.02 0.24,-0.02 0.24,-0.04 0.23,-0.05 0.23,-0.06 0.22,-0.07 0.22,-0.09 0.21,-0.09 0.2,-0.11 0.19,-0.11 0.19,-0.13 0.18,-0.13 0.18,-0.15 0.17,-0.16 0.15,-0.17 0.16,-0.18 0.14,-0.2 0.13,-0.2 0.13,-0.21 0.12,-0.23 0.11,-0.23 0.09,-0.25 0.09,-0.26 0.08,-0.27 0.07,-0.28 0.06,-0.29 0.05,-0.3 0.04,-0.31 0.03,-0.32 0.02,-0.33 0,-0.35 c 0,-4.32 -2.51,-5.61 -4.53,-5.61 -1.39,0 -4.46,0.38 -5.93,2.44 1.64,0.07 2.02,1.22 2.02,1.95 0,1.12 -0.83,1.92 -1.91,1.92 -0.98,0 -1.96,-0.59 -1.96,-2.02 0,-3.28 3.63,-5.41 7.85,-5.41 4.84,0 8.19,3.25 8.19,6.73 0,2.72 -2.23,5.44 -6.06,6.24 3.66,1.33 4.98,3.94 4.98,6.07 0,2.76 -3.17,4.81 -7.04,4.81 -3.87,0 -6.84,-1.88 -6.84,-4.67 0,-1.18 0.77,-1.85 1.82,-1.85 1.08,0 1.77,0.8 1.77,1.78 0,1.01 -0.69,1.75 -1.77,1.81 1.22,1.54 3.62,1.92 4.92,1.92 1.56,0 3.76,-0.76 3.76,-3.8 0,-1.46 -0.49,-3.07 -1.39,-4.15 -1.16,-1.32 -2.13,-1.39 -3.87,-1.5 -0.88,-0.07 -0.95,-0.07 -1.12,-0.1 -0.07,0 -0.35,-0.07 -0.35,-0.46 0,-0.49 0.31,-0.49 0.91,-0.49 z" /></g>    </g>
    <g
       transform="matrix(1.2362681,0,0,1.2362681,140.27866,224.32282)"
       id="g7571">
      <g
         style="font-style:normal;font-variant:normal;font-weight:normal;font-stretch:normal;letter-spacing:normal;word-spacing:normal;text-anchor:start;fill:none;fill-opacity:1;fill-rule:evenodd;stroke:#000000;stroke-linecap:butt;stroke-linejoin:miter;stroke-miterlimit:10.43299961;stroke-dasharray:none;stroke-dashoffset:0;stroke-opacity:1"
         id="g7573"
         transform="matrix(0.47192875,0,0,-0.47192875,-82.587532,337.01262)"
         xml:space="preserve"
         stroke-miterlimit="10.433"
         font-style="normal"
         font-variant="normal"
         font-weight="normal"
         font-stretch="normal"
         font-size-adjust="none"
         letter-spacing="normal"
         word-spacing="normal"><path
           style="fill:#000000;stroke-width:0"
           inkscape:connector-curvature="0"
           d="m 478.91,421.94 0,0.75 -0.01,0.74 -0.02,0.75 -0.03,0.74 -0.05,0.75 -0.06,0.74 -0.07,0.74 -0.1,0.73 -0.11,0.73 -0.14,0.73 -0.16,0.72 -0.19,0.72 -0.22,0.71 -0.24,0.71 -0.28,0.7 -0.15,0.35 -0.16,0.35 c -2.29,4.78 -6.37,5.58 -8.47,5.58 -2.99,0 -6.62,-1.3 -8.66,-5.93 -1.6,-3.44 -1.85,-7.32 -1.85,-11.31 0,-3.74 0.2,-8.22 2.24,-12.01 2.15,-4.03 5.78,-5.03 8.22,-5.03 l 0,1.1 c -1.94,0 -4.88,1.25 -5.78,6.03 -0.54,2.99 -0.54,7.57 -0.54,10.51 0,3.19 0,6.47 0.4,9.16 0.94,5.93 4.68,6.38 5.92,6.38 1.65,0 4.94,-0.9 5.88,-5.83 0.5,-2.79 0.5,-6.57 0.5,-9.71 0,-3.74 0,-7.13 -0.55,-10.31 -0.75,-4.73 -3.59,-6.23 -5.83,-6.23 l 0,0 0,-1.1 c 2.69,0 6.48,1.05 8.67,5.78 1.59,3.44 1.84,7.32 1.84,11.26 z"
           id="path7575" /></g>    </g>
    <g
       transform="matrix(1.2772535,0,0,1.2772535,287.92237,218.29782)"
       id="g7769">
      <g
         style="font-style:normal;font-variant:normal;font-weight:normal;font-stretch:normal;letter-spacing:normal;word-spacing:normal;text-anchor:start;fill:none;fill-opacity:1;fill-rule:evenodd;stroke:#000000;stroke-linecap:butt;stroke-linejoin:miter;stroke-miterlimit:10.43299961;stroke-dasharray:none;stroke-dashoffset:0;stroke-opacity:1"
         id="g7771"
         transform="matrix(0.47192875,0,0,-0.47192875,-82.587532,337.01262)"
         xml:space="preserve"
         stroke-miterlimit="10.433"
         font-style="normal"
         font-variant="normal"
         font-weight="normal"
         font-stretch="normal"
         font-size-adjust="none"
         letter-spacing="normal"
         word-spacing="normal"><path
           style="fill:#000000;stroke-width:0"
           inkscape:connector-curvature="0"
           d="m 470.64,437.88 0,0.05 0,0.06 0,0.05 0,0.05 0,0.05 0,0.05 0,0.04 0,0.05 0,0.04 0,0.04 0,0.04 0,0.04 0,0.04 -0.01,0.04 0,0.03 0,0.04 -0.01,0.03 0,0.03 -0.01,0.06 -0.01,0.05 -0.02,0.05 -0.01,0.05 -0.02,0.04 -0.02,0.04 -0.03,0.04 -0.03,0.03 -0.03,0.02 -0.03,0.03 -0.04,0.02 -0.05,0.02 -0.02,0.01 -0.03,0.01 -0.02,0 -0.03,0.01 -0.03,0.01 -0.03,0 -0.03,0.01 -0.03,0 -0.03,0.01 -0.04,0 -0.04,0 -0.03,0 -0.04,0.01 -0.04,0 -0.04,0 -0.05,0 -0.04,0 -0.05,0 -0.05,0.01 -0.05,0 -0.05,0 -0.05,0 c -3.09,-3.19 -7.47,-3.19 -9.07,-3.19 l 0,-1.55 c 1,0 3.94,0 6.53,1.3 l 0,-25.81 c 0,-1.79 -0.15,-2.39 -4.63,-2.39 l -1.6,0 0,-1.54 16.14,0 0,1.54 -1.59,0 c -4.49,0 -4.64,0.55 -4.64,2.39 z"
           id="path7773" /></g>    </g>
    <g
       id="g7934"
       transform="translate(275.77166,74.953328)">
      <g
         word-spacing="normal"
         letter-spacing="normal"
         font-size-adjust="none"
         font-stretch="normal"
         font-weight="normal"
         font-variant="normal"
         font-style="normal"
         stroke-miterlimit="10.433"
         xml:space="preserve"
         transform="matrix(0.47192875,0,0,-0.47192875,-82.587532,337.01262)"
         id="g7936"
         style="font-style:normal;font-variant:normal;font-weight:normal;font-stretch:normal;letter-spacing:normal;word-spacing:normal;text-anchor:start;fill:none;fill-opacity:1;fill-rule:evenodd;stroke:#000000;stroke-linecap:butt;stroke-linejoin:miter;stroke-miterlimit:10.43299961;stroke-dasharray:none;stroke-dashoffset:0;stroke-opacity:1"><path
           id="path7938"
           d="m 458.79,423.04 0.02,-0.96 0.07,-0.95 0.12,-0.92 0.15,-0.91 0.2,-0.89 0.24,-0.88 0.29,-0.85 0.31,-0.83 0.36,-0.8 0.39,-0.79 0.43,-0.76 0.46,-0.73 0.49,-0.71 0.53,-0.68 0.55,-0.65 0.58,-0.63 0.61,-0.59 0.64,-0.56 0.66,-0.53 0.68,-0.5 0.7,-0.46 0.73,-0.43 0.74,-0.39 0.77,-0.35 0.78,-0.32 0.79,-0.28 0.82,-0.24 0.82,-0.19 0.84,-0.16 0.84,-0.11 0.86,-0.07 0.86,-0.02 c 8.12,0 13,6.93 13,12.71 0,0.5 0,0.84 -0.64,0.84 -0.55,0 -0.55,-0.29 -0.6,-0.79 -0.4,-7.13 -5.73,-11.21 -11.16,-11.21 -3.04,0 -12.8,1.69 -12.8,16.53 0,14.9 9.71,16.59 12.75,16.59 5.43,0 9.87,-4.53 10.86,-11.8 0.1,-0.7 0.1,-0.85 0.8,-0.85 0.79,0 0.79,0.15 0.79,1.2 l 0,11.8 c 0,0.85 0,1.2 -0.54,1.2 -0.2,0 -0.4,0 -0.8,-0.6 l -2.49,-3.68 c -1.84,1.79 -4.38,4.28 -9.17,4.28 -9.31,0 -17.33,-7.92 -17.33,-18.08 z"
           inkscape:connector-curvature="0"
           style="fill:#000000;stroke-width:0" /><path
           id="path7940"
           d="m 515.46,416.66 -0.01,0.59 -0.05,0.59 -0.07,0.58 -0.09,0.57 -0.13,0.56 -0.15,0.55 -0.17,0.54 -0.2,0.53 -0.22,0.52 -0.25,0.5 -0.26,0.49 -0.29,0.47 -0.31,0.46 -0.33,0.44 -0.35,0.42 -0.36,0.41 -0.39,0.39 -0.4,0.36 -0.41,0.35 -0.44,0.33 -0.44,0.3 -0.46,0.29 -0.48,0.26 -0.48,0.23 -0.5,0.21 -0.51,0.19 -0.52,0.16 -0.53,0.13 -0.54,0.1 -0.55,0.08 -0.56,0.04 -0.56,0.02 -0.05,-1.1 c 2.19,0 4.34,-1.1 5.63,-3.24 1.3,-2.14 1.3,-5.03 1.3,-6.92 0,-1.79 0,-4.49 -1.1,-6.68 -1.09,-2.24 -3.28,-3.68 -5.78,-3.68 l 0,0 c -2.14,0 -4.33,1.04 -5.68,3.34 -1.24,2.19 -1.24,5.23 -1.24,7.02 0,1.94 0,4.63 1.2,6.82 1.34,2.3 3.68,3.34 5.67,3.34 l 0.05,1.1 c -6.22,0 -11.06,-5.43 -11.06,-11.66 0,-6.43 5.18,-11.21 11.01,-11.21 6.03,0 11.06,4.88 11.06,11.21 z"
           inkscape:connector-curvature="0"
           style="fill:#000000;stroke-width:0" /><path
           id="path7942"
           d="m 521.48,423.14 0,-13.35 c 0,-2.25 -0.55,-2.25 -3.89,-2.25 l 0,-1.54 11.21,0 0,1.54 c -3.33,0 -3.88,0 -3.88,2.25 l 0,9.16 c 0,5.18 3.53,7.97 6.72,7.97 3.14,0 3.69,-2.69 3.69,-5.53 l 0,-11.6 c 0,-2.25 -0.55,-2.25 -3.89,-2.25 l 0,-1.54 11.21,0 0,1.54 c -3.34,0 -3.88,0 -3.88,2.25 l 0,9.16 c 0,5.18 3.53,7.97 6.72,7.97 3.14,0 3.69,-2.69 3.69,-5.53 l 0,-11.6 c 0,-2.25 -0.55,-2.25 -3.89,-2.25 l 0,-1.54 11.21,0 0,1.54 c -2.59,0 -3.84,0 -3.89,1.5 l 0,9.51 c 0,4.29 0,5.83 -1.54,7.63 -0.7,0.84 -2.34,1.84 -5.23,1.84 -4.19,0 -6.38,-2.99 -7.23,-4.88 -0.69,4.33 -4.38,4.88 -6.62,4.88 -3.64,0 -5.98,-2.14 -7.37,-5.23 l 0,5.23 -7.03,-0.55 0,-1.54 c 3.49,0 3.89,-0.35 3.89,-2.79 z"
           inkscape:connector-curvature="0"
           style="fill:#000000;stroke-width:0" /><path
           id="path7944"
           d="m 566.57,424.73 0,3.29 -7.17,-0.55 0,-1.54 c 3.53,0 3.88,-0.31 3.88,-2.5 l 0,-23.31 c 0,-2.24 -0.55,-2.24 -3.88,-2.24 l 0,-1.54 11.2,0 0,1.54 c -3.33,0 -3.88,0 -3.88,2.24 l 0,8.37 0,0.45 0.69,0.65 c -0.69,1.04 -0.69,1.09 -0.69,2.09 l 0,0 0,11.11 c 1.44,2.54 3.88,3.98 6.43,3.98 3.63,0 6.67,-4.38 6.67,-10.01 0,-6.03 -3.49,-10.21 -7.17,-10.21 -2,0 -3.89,0.99 -5.24,3.04 l -0.69,-0.65 c 0.25,-0.8 2.34,-3.49 6.12,-3.49 5.93,0 11.11,4.88 11.11,11.31 0,6.33 -4.83,11.26 -10.41,11.26 -3.88,0 -5.98,-2.2 -6.97,-3.29 z"
           inkscape:connector-curvature="0"
           style="fill:#000000;stroke-width:0" /><path
           id="path7946"
           d="m 594.82,440.57 -7.17,-0.55 0,-1.54 c 3.48,0 3.88,-0.35 3.88,-2.79 l 0,-25.9 c 0,-2.25 -0.55,-2.25 -3.88,-2.25 l 0,-1.54 11.05,0 0,1.54 c -3.34,0 -3.88,0 -3.88,2.25 z"
           inkscape:connector-curvature="0"
           style="fill:#000000;stroke-width:0" /><path
           id="path7948"
           d="m 605.53,417.51 0.05,1.04 c 0.3,7.43 4.48,8.67 6.18,8.67 5.13,0 5.63,-6.72 5.63,-8.67 l -11.81,0 -0.05,-1.04 13.9,0 c 1.09,0 1.24,0 1.24,1.04 0,4.93 -2.69,9.77 -8.91,9.77 -5.78,0 -10.36,-5.14 -10.36,-11.36 0,-6.67 5.22,-11.51 10.95,-11.51 6.08,0 8.32,5.53 8.32,6.48 0,0.5 -0.4,0.6 -0.65,0.6 -0.44,0 -0.54,-0.3 -0.64,-0.7 -1.75,-5.13 -6.23,-5.13 -6.73,-5.13 -2.49,0 -4.48,1.49 -5.63,3.34 -1.49,2.39 -1.49,5.67 -1.49,7.47 z"
           inkscape:connector-curvature="0"
           style="fill:#000000;stroke-width:0" /><path
           id="path7950"
           d="m 636.3,417.71 0.28,0.36 0.29,0.37 0.3,0.38 0.3,0.38 0.62,0.78 0.3,0.38 0.31,0.38 0.3,0.38 0.3,0.36 0.29,0.36 0.28,0.34 0.14,0.16 0.13,0.16 0.13,0.15 0.13,0.15 0.13,0.14 0.12,0.14 0.11,0.13 0.12,0.13 c 1.54,1.79 3.59,2.54 5.93,2.59 l 0,1.54 -8.87,0 0,-1.54 c 1.04,-0.11 1.45,-0.75 1.45,-1.55 0,-0.79 -0.5,-1.44 -0.75,-1.74 l -3.09,-3.89 -3.89,5.04 c -0.44,0.49 -0.44,0.59 -0.44,0.89 0,0.75 0.74,1.2 1.74,1.25 l 0,1.54 -10.11,0 0,-1.54 c 3.48,0 3.53,-0.05 5.88,-3.04 l 4.93,-6.43 -4.69,-5.93 c -2.39,-2.89 -5.32,-2.99 -6.37,-2.99 l 0,-1.54 8.87,0 0,1.54 c -1.1,0.16 -1.45,0.8 -1.45,1.55 0,1.09 1.45,2.74 4.48,6.32 l 3.79,-4.98 c 0.4,-0.54 1.05,-1.34 1.05,-1.64 0,-0.45 -0.45,-1.2 -1.8,-1.25 l 0,-1.54 10.16,0 0,1.54 c -2.68,0 -3.58,0.1 -4.73,1.55 z"
           inkscape:connector-curvature="0"
           style="fill:#000000;stroke-width:0" /><path
           id="path7952"
           d="m 675.26,425.93 4.69,0 c 0.99,0 1.49,0 1.49,0.99 0,0.55 -0.5,0.55 -1.4,0.55 l -4.38,0 c 1.79,7.07 2.04,8.07 2.04,8.37 0,0.84 -0.6,1.34 -1.44,1.34 -0.15,0 -1.54,-0.05 -1.99,-1.79 l -1.95,-7.92 -4.68,0 c -0.99,0 -1.49,0 -1.49,-0.95 0,-0.59 0.39,-0.59 1.39,-0.59 l 4.39,0 c -3.59,-14.15 -3.79,-15 -3.79,-15.89 0,-2.7 1.89,-4.59 4.58,-4.59 5.08,0 7.92,7.28 7.92,7.67 0,0.5 -0.4,0.5 -0.6,0.5 -0.45,0 -0.49,-0.15 -0.74,-0.69 -2.14,-5.19 -4.78,-6.38 -6.48,-6.38 -1.05,0 -1.54,0.65 -1.54,2.29 0,1.2 0.1,1.54 0.29,2.39 z"
           inkscape:connector-curvature="0"
           style="fill:#000000;stroke-width:0" /><path
           id="path7954"
           d="m 707.57,424.73 0,3.29 -7.17,-0.55 0,-1.54 c 3.53,0 3.88,-0.31 3.88,-2.5 l 0,-23.31 c 0,-2.24 -0.55,-2.24 -3.88,-2.24 l 0,-1.54 11.2,0 0,1.54 c -3.33,0 -3.88,0 -3.88,2.24 l 0,8.37 0,0.45 0.69,0.65 c -0.69,1.04 -0.69,1.09 -0.69,2.09 l 0,0 0,11.11 c 1.44,2.54 3.88,3.98 6.43,3.98 3.63,0 6.67,-4.38 6.67,-10.01 0,-6.03 -3.49,-10.21 -7.17,-10.21 -2,0 -3.89,0.99 -5.24,3.04 l -0.69,-0.65 c 0.25,-0.8 2.34,-3.49 6.12,-3.49 5.93,0 11.11,4.88 11.11,11.31 0,6.33 -4.83,11.26 -10.41,11.26 -3.88,0 -5.98,-2.2 -6.97,-3.29 z"
           inkscape:connector-curvature="0"
           style="fill:#000000;stroke-width:0" /><path
           id="path7956"
           d="m 735.82,440.57 -7.17,-0.55 0,-1.54 c 3.48,0 3.88,-0.35 3.88,-2.79 l 0,-25.9 c 0,-2.25 -0.55,-2.25 -3.88,-2.25 l 0,-1.54 11.05,0 0,1.54 c -3.34,0 -3.88,0 -3.88,2.25 z"
           inkscape:connector-curvature="0"
           style="fill:#000000;stroke-width:0" /><path
           id="path7958"
           d="m 757.59,409.79 0.02,-0.19 0.03,-0.19 0.03,-0.19 0.04,-0.18 0.05,-0.19 0.06,-0.18 0.06,-0.18 0.07,-0.18 0.07,-0.18 0.08,-0.18 0.09,-0.17 0.1,-0.16 0.1,-0.17 0.1,-0.15 0.12,-0.16 0.12,-0.14 0.12,-0.15 0.13,-0.13 0.14,-0.13 0.15,-0.12 0.15,-0.12 0.15,-0.1 0.17,-0.1 0.17,-0.09 0.17,-0.08 0.18,-0.07 0.19,-0.07 0.19,-0.05 0.2,-0.04 0.21,-0.03 0.21,-0.01 0.21,-0.01 c 1.05,0 4.09,0.7 4.09,4.73 l 0,2.79 -1.25,0 0,-2.79 c 0,-2.89 -1.24,-3.18 -1.79,-3.18 -1.64,0 -1.84,2.24 -1.84,2.48 l 0,9.97 c 0,2.09 0,4.03 -1.8,5.88 -1.94,1.94 -4.43,2.74 -6.82,2.74 -4.09,0 -7.53,-2.34 -7.53,-5.63 0,-1.5 1,-2.34 2.3,-2.34 1.39,0 2.29,0.99 2.29,2.29 0,0.59 -0.25,2.24 -2.54,2.29 1.35,1.74 3.78,2.29 5.38,2.29 2.44,0 5.28,-1.94 5.28,-6.38 l 0,-1.84 0,-1.04 0,-4.99 c 0,-4.73 -3.59,-6.42 -5.83,-6.42 -2.44,0 -4.48,1.74 -4.48,4.23 0,2.74 2.09,6.88 10.31,7.18 l 0,0 0,1.04 c -2.54,-0.15 -6.03,-0.3 -9.17,-1.79 -3.73,-1.69 -4.98,-4.28 -4.98,-6.48 0,-4.03 4.84,-5.28 7.97,-5.28 3.29,0 5.58,2 6.53,4.34 z"
           inkscape:connector-curvature="0"
           style="fill:#000000;stroke-width:0" /><path
           id="path7960"
           d="m 771.48,423.14 0,-13.35 c 0,-2.25 -0.55,-2.25 -3.89,-2.25 l 0,-1.54 11.21,0 0,1.54 c -3.33,0 -3.88,0 -3.88,2.25 l 0,9.16 c 0,5.18 3.53,7.97 6.72,7.97 3.14,0 3.69,-2.69 3.69,-5.53 l 0,-11.6 c 0,-2.25 -0.55,-2.25 -3.89,-2.25 l 0,-1.54 11.21,0 0,1.54 c -2.59,0 -3.84,0 -3.88,1.5 l 0,9.51 c 0,4.29 0,5.83 -1.55,7.63 -0.7,0.84 -2.34,1.84 -5.23,1.84 -3.64,0 -5.98,-2.14 -7.37,-5.23 l 0,5.23 -7.03,-0.55 0,-1.54 c 3.49,0 3.89,-0.35 3.89,-2.79 z"
           inkscape:connector-curvature="0"
           style="fill:#000000;stroke-width:0" /><path
           id="path7962"
           d="m 798.53,417.51 0.05,1.04 c 0.3,7.43 4.48,8.67 6.18,8.67 5.13,0 5.63,-6.72 5.63,-8.67 l -11.81,0 -0.05,-1.04 13.9,0 c 1.09,0 1.24,0 1.24,1.04 0,4.93 -2.69,9.77 -8.91,9.77 -5.78,0 -10.36,-5.14 -10.36,-11.36 0,-6.67 5.22,-11.51 10.95,-11.51 6.08,0 8.32,5.53 8.32,6.48 0,0.5 -0.4,0.6 -0.65,0.6 -0.44,0 -0.54,-0.3 -0.64,-0.7 -1.75,-5.13 -6.23,-5.13 -6.73,-5.13 -2.49,0 -4.48,1.49 -5.63,3.34 -1.49,2.39 -1.49,5.67 -1.49,7.47 z"
           inkscape:connector-curvature="0"
           style="fill:#000000;stroke-width:0" /></g>    </g>
  </g>
</svg>
