<?xml version="1.0" encoding="UTF-8" standalone="no"?>
<!-- Created with Inkscape (http://www.inkscape.org/) -->

<svg
   xmlns:dc="http://purl.org/dc/elements/1.1/"
   xmlns:cc="http://creativecommons.org/ns#"
   xmlns:rdf="http://www.w3.org/1999/02/22-rdf-syntax-ns#"
   xmlns:svg="http://www.w3.org/2000/svg"
   xmlns="http://www.w3.org/2000/svg"
   xmlns:sodipodi="http://sodipodi.sourceforge.net/DTD/sodipodi-0.dtd"
   xmlns:inkscape="http://www.inkscape.org/namespaces/inkscape"
   width="119.19576mm"
   height="84.860062mm"
   viewBox="0 0 119.19576 84.860062"
   version="1.1"
   id="svg8"
   inkscape:version="0.92.3 (2405546, 2018-03-11)"
   sodipodi:docname="wkb-eigenvalue.svg">
  <sodipodi:namedview
     id="base"
     pagecolor="#ffffff"
     bordercolor="#666666"
     borderopacity="1.0"
     inkscape:pageopacity="0.0"
     inkscape:pageshadow="2"
     inkscape:zoom="1.979899"
     inkscape:cx="258.84547"
     inkscape:cy="160.24135"
     inkscape:document-units="mm"
     inkscape:current-layer="layer1"
     showgrid="false"
     inkscape:window-width="1853"
     inkscape:window-height="1025"
     inkscape:window-x="1433"
     inkscape:window-y="27"
     inkscape:window-maximized="1"
     fit-margin-top="0"
     fit-margin-left="0"
     fit-margin-right="0"
     fit-margin-bottom="0" />
  <defs
     id="defs2">
    <marker
       inkscape:isstock="true"
       style="overflow:visible"
       id="marker1679"
       refX="0"
       refY="0"
       orient="auto"
       inkscape:stockid="Arrow2Mend">
      <path
         inkscape:connector-curvature="0"
         transform="scale(-0.6)"
         d="M 8.7185878,4.0337352 -2.2072895,0.01601326 8.7185884,-4.0017078 c -1.7454984,2.3720609 -1.7354408,5.6174519 -6e-7,8.035443 z"
         style="fill:#000000;fill-opacity:1;fill-rule:evenodd;stroke:#000000;stroke-width:0.625;stroke-linejoin:round;stroke-opacity:1"
         id="path1677" />
    </marker>
    <marker
       inkscape:isstock="true"
       style="overflow:visible"
       id="Arrow1Mstart"
       refX="0"
       refY="0"
       orient="auto"
       inkscape:stockid="Arrow1Mstart">
      <path
         inkscape:connector-curvature="0"
         transform="matrix(0.4,0,0,0.4,4,0)"
         style="fill:#000000;fill-opacity:1;fill-rule:evenodd;stroke:#000000;stroke-width:1.00000003pt;stroke-opacity:1"
         d="M 0,0 5,-5 -12.5,0 5,5 Z"
         id="path1373" />
    </marker>
    <marker
       inkscape:isstock="true"
       style="overflow:visible"
       id="Arrow2Mstart"
       refX="0"
       refY="0"
       orient="auto"
       inkscape:stockid="Arrow2Mstart">
      <path
         inkscape:connector-curvature="0"
         transform="scale(0.6)"
         d="M 8.7185878,4.0337352 -2.2072895,0.01601326 8.7185884,-4.0017078 c -1.7454984,2.3720609 -1.7354408,5.6174519 -6e-7,8.035443 z"
         style="fill:#000000;fill-opacity:1;fill-rule:evenodd;stroke:#000000;stroke-width:0.625;stroke-linejoin:round;stroke-opacity:1"
         id="path1391" />
    </marker>
    <marker
       inkscape:isstock="true"
       style="overflow:visible"
       id="Arrow2Mend"
       refX="0"
       refY="0"
       orient="auto"
       inkscape:stockid="Arrow2Mend">
      <path
         inkscape:connector-curvature="0"
         transform="scale(-0.6)"
         d="M 8.7185878,4.0337352 -2.2072895,0.01601326 8.7185884,-4.0017078 c -1.7454984,2.3720609 -1.7354408,5.6174519 -6e-7,8.035443 z"
         style="fill:#000000;fill-opacity:1;fill-rule:evenodd;stroke:#000000;stroke-width:0.625;stroke-linejoin:round;stroke-opacity:1"
         id="path1394" />
    </marker>
  </defs>
  <metadata
     id="metadata5">
    <rdf:RDF>
      <cc:Work
         rdf:about="">
        <dc:format>image/svg+xml</dc:format>
        <dc:type
           rdf:resource="http://purl.org/dc/dcmitype/StillImage" />
        <dc:title />
      </cc:Work>
    </rdf:RDF>
  </metadata>
  <g
     transform="translate(-37.376722,-93.140651)"
     id="layer1"
     inkscape:groupmode="layer"
     inkscape:label="Layer 1">
    <path
       inkscape:connector-curvature="0"
       id="path834"
       d="M 93.277064,95.746045 V 177.2007"
       style="fill:none;stroke:#000000;stroke-width:0.5291667;stroke-linecap:butt;stroke-linejoin:miter;stroke-miterlimit:4;stroke-dasharray:none;stroke-opacity:1;marker-start:url(#Arrow1Mstart);marker-end:url(#marker1679)" />
    <path
       inkscape:connector-curvature="0"
       id="path836"
       d="M 38.116924,140.38005 H 155.83228"
       style="fill:none;stroke:#000000;stroke-width:0.48960429;stroke-linecap:butt;stroke-linejoin:miter;stroke-miterlimit:4;stroke-dasharray:none;stroke-opacity:1;marker-start:url(#Arrow2Mstart);marker-end:url(#Arrow2Mend)" />
    <path
       inkscape:connector-curvature="0"
       id="path838"
       d="M 40.065475,124.07589 H 152.70238"
       style="fill:#000000;stroke:#070707;stroke-width:0.47867659;stroke-linecap:butt;stroke-linejoin:miter;stroke-miterlimit:4;stroke-dasharray:none;stroke-opacity:0.39548022;fill-opacity:0.66666669" />
    <path
       sodipodi:nodetypes="cazsc"
       inkscape:connector-curvature="0"
       id="path840"
       d="m 37.835419,93.781207 c 0,0 7.394515,4.84427 10.394344,8.034663 18.102908,19.25289 29.245795,65.58987 44.536188,65.58987 15.290419,0 23.511459,-45.87362 43.282869,-63.74403 6.43821,-5.819181 15.74645,-10.20189 15.74645,-10.20189"
       style="fill:none;stroke:#0400ff;stroke-width:0.70555556;stroke-linecap:butt;stroke-linejoin:miter;stroke-miterlimit:4;stroke-dasharray:none;stroke-opacity:1" />
    <path
       inkscape:connector-curvature="0"
       id="path842"
       d="m 62.744048,124.07589 v 16.44196"
       style="fill:none;stroke:#000000;stroke-width:0.5291667;stroke-linecap:butt;stroke-linejoin:miter;stroke-miterlimit:4;stroke-dasharray:1.05833333, 0.52916667;stroke-dashoffset:0;stroke-opacity:1" />
    <path
       inkscape:connector-curvature="0"
       id="path844"
       d="m 121.51935,124.07589 v 16.15848"
       style="fill:none;stroke:#000000;stroke-width:0.5291667;stroke-linecap:butt;stroke-linejoin:miter;stroke-miterlimit:4;stroke-dasharray:1.05833333, 0.52916667;stroke-dashoffset:0;stroke-opacity:1" />
    <g
       transform="translate(113.58955,81.784475)"
       id="g902"
       style="fill:#000000;fill-opacity:0.66666669">
      <g
         style="font-style:normal;font-variant:normal;font-weight:normal;font-stretch:normal;letter-spacing:normal;word-spacing:normal;text-anchor:start;fill:#000000;fill-opacity:0.66666669;fill-rule:evenodd;stroke:#000000;stroke-linecap:butt;stroke-linejoin:miter;stroke-miterlimit:10.43299961;stroke-dasharray:none;stroke-dashoffset:0;stroke-opacity:1"
         id="g900"
         transform="matrix(0.12008579,0,0,-0.12008579,-21.015013,96.617932)"
         xml:space="preserve"
         stroke-miterlimit="10.433"
         font-style="normal"
         font-variant="normal"
         font-weight="normal"
         font-stretch="normal"
         font-size-adjust="none"
         letter-spacing="normal"
         word-spacing="normal"><path
           style="fill:#000000;stroke-width:0;fill-opacity:0.66666669"
           inkscape:connector-curvature="0"
           d="m 490.8,417.81 0.01,0.02 0.01,0.03 0.02,0.05 0.02,0.05 0.02,0.05 0.02,0.05 0.02,0.05 0.02,0.05 0.01,0.05 0.01,0.03 0.01,0.02 0.01,0.02 0.01,0.03 v 0.02 l 0.01,0.02 0.01,0.02 v 0.02 l 0.01,0.02 v 0.02 l 0.01,0.01 v 0.02 0.02 0.01 0.01 l 0.01,0.01 c 0,0.05 0,0.55 -0.6,0.55 -0.45,0 -0.55,-0.3 -0.64,-0.61 -3.25,-7.38 -5.08,-10.7 -13.61,-10.7 h -7.26 c -0.71,0 -0.8,0 -1.1,0.04 -0.5,0.05 -0.65,0.1 -0.65,0.5 0,0.14 0,0.25 0.25,1.14 l 3.39,13.61 h 4.93 c 4.24,0 4.24,-1.04 4.24,-2.29 0,-0.35 0,-0.96 -0.36,-2.44 -0.09,-0.25 -0.14,-0.41 -0.14,-0.55 0,-0.25 0.19,-0.55 0.64,-0.55 0.41,0 0.55,0.25 0.75,0.99 l 2.84,11.67 c 0,0.3 -0.25,0.55 -0.61,0.55 -0.43,0 -0.54,-0.3 -0.68,-0.91 -1.05,-3.78 -1.96,-4.92 -6.54,-4.92 h -4.68 l 3,12 c 0.43,1.75 0.5,1.94 2.68,1.94 h 7.02 c 6.08,0 7.58,-1.44 7.58,-5.53 0,-1.19 0,-1.29 -0.2,-2.64 0,-0.3 -0.05,-0.65 -0.05,-0.9 0,-0.25 0.15,-0.59 0.59,-0.59 0.56,0 0.61,0.3 0.71,1.25 l 1,8.61 c 0.14,1.34 -0.1,1.34 -1.35,1.34 h -25.15 c -1,0 -1.5,0 -1.5,-1 0,-0.54 0.45,-0.54 1.39,-0.54 1.84,0 3.23,0 3.23,-0.89 0,-0.21 0,-0.3 -0.25,-1.21 l -6.56,-26.34 c -0.5,-1.95 -0.61,-2.34 -4.55,-2.34 -0.84,0 -1.39,0 -1.39,-0.96 0,-0.59 0.45,-0.59 1.39,-0.59 h 25.86 c 1.16,0 1.2,0.05 1.55,0.84 z"
           id="path898" /></g>    </g>
    <g
       transform="translate(113.85682,97.286108)"
       id="g946">
      <g
         style="font-style:normal;font-variant:normal;font-weight:normal;font-stretch:normal;letter-spacing:normal;word-spacing:normal;text-anchor:start;fill:none;fill-opacity:1;fill-rule:evenodd;stroke:#000000;stroke-linecap:butt;stroke-linejoin:miter;stroke-miterlimit:10.43299961;stroke-dasharray:none;stroke-dashoffset:0;stroke-opacity:1"
         word-spacing="normal"
         letter-spacing="normal"
         font-size-adjust="none"
         font-stretch="normal"
         font-weight="normal"
         font-variant="normal"
         font-style="normal"
         stroke-miterlimit="10.433"
         xml:space="preserve"
         transform="matrix(0.12008579,0,0,-0.12008579,-21.015013,96.617932)"
         id="g944"><path
           style="fill:#000000;stroke-width:0"
           inkscape:connector-curvature="0"
           id="path942"
           d="m 472.16,421.25 0.03,0.13 0.04,0.15 0.04,0.16 0.04,0.18 0.06,0.19 0.06,0.21 0.06,0.22 0.07,0.22 0.08,0.23 0.09,0.24 0.1,0.25 0.1,0.24 0.11,0.25 0.12,0.25 0.13,0.25 0.14,0.25 0.15,0.24 0.15,0.24 0.17,0.23 0.18,0.22 0.18,0.22 0.2,0.2 0.21,0.19 0.22,0.18 0.23,0.16 0.25,0.14 0.12,0.07 0.13,0.06 0.14,0.05 0.13,0.05 0.14,0.05 0.14,0.04 0.15,0.03 0.15,0.03 0.15,0.02 0.16,0.02 0.16,0.01 h 0.16 c 0.25,0 1.44,0 2.48,-0.64 -1.39,-0.25 -2.39,-1.5 -2.39,-2.69 0,-0.79 0.55,-1.75 1.89,-1.75 1.1,0 2.69,0.89 2.69,2.89 0,2.6 -2.94,3.28 -4.63,3.28 -2.89,0 -4.64,-2.64 -5.23,-3.78 -1.25,3.28 -3.94,3.78 -5.37,3.78 -5.19,0 -8.04,-6.42 -8.04,-7.67 0,-0.5 0.5,-0.5 0.61,-0.5 0.39,0 0.55,0.11 0.64,0.55 1.69,5.28 4.99,6.53 6.68,6.53 0.95,0 2.68,-0.44 2.68,-3.33 0,-1.54 -0.84,-4.89 -2.68,-11.86 -0.8,-3.09 -2.54,-5.18 -4.74,-5.18 -0.3,0 -1.44,0 -2.48,0.65 1.25,0.24 2.34,1.28 2.34,2.69 0,1.34 -1.09,1.73 -1.84,1.73 -1.5,0 -2.75,-1.29 -2.75,-2.89 0,-2.28 2.5,-3.28 4.68,-3.28 3.3,0 5.08,3.49 5.24,3.78 0.59,-1.84 2.39,-3.78 5.37,-3.78 5.14,0 7.99,6.42 7.99,7.67 0,0.5 -0.45,0.5 -0.61,0.5 -0.44,0 -0.55,-0.2 -0.64,-0.54 -1.64,-5.33 -5.03,-6.53 -6.63,-6.53 -1.95,0 -2.75,1.59 -2.75,3.29 0,1.1 0.3,2.19 0.86,4.38 z" /></g>    </g>
    <g
       transform="translate(26.192414,99.958803)"
       id="g996">
      <g
         style="font-style:normal;font-variant:normal;font-weight:normal;font-stretch:normal;letter-spacing:normal;word-spacing:normal;text-anchor:start;fill:none;fill-opacity:1;fill-rule:evenodd;stroke:#000000;stroke-linecap:butt;stroke-linejoin:miter;stroke-miterlimit:10.43299961;stroke-dasharray:none;stroke-dashoffset:0;stroke-opacity:1"
         id="g994"
         transform="matrix(0.12008579,0,0,-0.12008579,-21.015013,96.617932)"
         xml:space="preserve"
         stroke-miterlimit="10.433"
         font-style="normal"
         font-variant="normal"
         font-weight="normal"
         font-stretch="normal"
         font-size-adjust="none"
         letter-spacing="normal"
         word-spacing="normal"><path
           style="fill:#000000;stroke-width:0"
           inkscape:connector-curvature="0"
           d="m 464.44,411.93 -0.19,-0.3 -0.18,-0.29 -0.19,-0.28 -0.19,-0.26 -0.18,-0.25 -0.19,-0.23 -0.19,-0.22 -0.18,-0.21 -0.19,-0.2 -0.19,-0.18 -0.18,-0.17 -0.19,-0.16 -0.19,-0.15 -0.18,-0.14 -0.19,-0.13 -0.19,-0.12 -0.19,-0.11 -0.19,-0.1 -0.19,-0.09 -0.19,-0.09 -0.19,-0.07 -0.2,-0.07 -0.19,-0.07 -0.2,-0.05 -0.19,-0.05 -0.2,-0.04 -0.2,-0.04 -0.19,-0.03 -0.41,-0.05 -0.4,-0.03 c -0.61,-0.05 -1.05,-0.05 -1.05,-1 0,-0.3 0.25,-0.55 0.64,-0.55 1.34,0 2.89,0.16 4.28,0.16 1.64,0 3.39,-0.16 4.99,-0.16 0.29,0 0.95,0 0.95,0.95 0,0.55 -0.45,0.6 -0.8,0.6 -1.15,0.09 -2.34,0.5 -2.34,1.73 0,0.61 0.3,1.16 0.69,1.84 l 3.79,6.39 h 12.5 l -0.14,1.54 h -11.42 l 9.83,16.45 1.59,-16.45 0.14,-1.54 c 0.11,-1.04 0.8,-7.82 0.8,-8.32 0,-1.5 -2.59,-1.64 -3.58,-1.64 -0.7,0 -1.2,0 -1.2,-1 0,-0.55 0.59,-0.55 0.7,-0.55 2.03,0 4.19,0.16 6.22,0.16 1.25,0 4.39,-0.16 5.64,-0.16 0.3,0 0.89,0 0.89,1 0,0.55 -0.5,0.55 -1.14,0.55 -3.09,0 -3.09,0.34 -3.25,1.79 l -3.03,31.13 c -0.11,1 -0.11,1.2 -0.95,1.2 -0.8,0 -0.99,-0.34 -1.3,-0.84 z"
           id="path992" /></g>    </g>
    <g
       transform="translate(85.392614,99.557899)"
       id="g1052">
      <g
         style="font-style:normal;font-variant:normal;font-weight:normal;font-stretch:normal;letter-spacing:normal;word-spacing:normal;text-anchor:start;fill:none;fill-opacity:1;fill-rule:evenodd;stroke:#000000;stroke-linecap:butt;stroke-linejoin:miter;stroke-miterlimit:10.43299961;stroke-dasharray:none;stroke-dashoffset:0;stroke-opacity:1"
         word-spacing="normal"
         letter-spacing="normal"
         font-size-adjust="none"
         font-stretch="normal"
         font-weight="normal"
         font-variant="normal"
         font-style="normal"
         stroke-miterlimit="10.433"
         xml:space="preserve"
         transform="matrix(0.12008579,0,0,-0.12008579,-21.015013,96.617932)"
         id="g1050"><path
           style="fill:#000000;stroke-width:0"
           inkscape:connector-curvature="0"
           id="path1048"
           d="m 463.49,410.09 -0.05,-0.18 -0.04,-0.17 -0.05,-0.16 -0.04,-0.15 -0.04,-0.15 -0.05,-0.13 -0.05,-0.13 -0.05,-0.12 -0.05,-0.11 -0.06,-0.11 -0.07,-0.1 -0.07,-0.09 -0.07,-0.09 -0.09,-0.07 -0.09,-0.08 -0.11,-0.06 -0.11,-0.07 -0.13,-0.05 -0.13,-0.05 -0.15,-0.05 -0.16,-0.04 -0.09,-0.02 -0.09,-0.01 -0.09,-0.02 -0.1,-0.02 -0.1,-0.01 -0.1,-0.01 -0.11,-0.01 -0.12,-0.02 -0.11,-0.01 -0.13,-0.01 h -0.12 l -0.13,-0.01 -0.14,-0.01 h -0.14 l -0.14,-0.01 h -0.15 l -0.16,-0.01 h -0.16 -0.16 -0.17 -0.18 -0.18 c -0.85,0 -1.35,0 -1.35,-1 0,-0.55 0.46,-0.55 1.35,-0.55 h 17.78 c 7.87,0 13.75,5.87 13.75,10.76 0,3.58 -2.89,6.47 -7.72,7.02 5.19,0.95 10.42,4.64 10.42,9.38 0,3.68 -3.3,6.87 -9.28,6.87 l -0.69,-1.55 c 4.38,0 5.42,-2.93 5.42,-5.12 0,-4.39 -4.28,-9.13 -10.35,-9.13 h -7.27 l -0.3,-1.09 h 9.41 c 4.78,0 5.73,-3.69 5.73,-5.83 0,-4.94 -4.43,-9.76 -10.31,-9.76 h -6.78 c -0.69,0 -0.8,0 -1.09,0.04 -0.5,0.05 -0.64,0.1 -0.64,0.5 0,0.14 0,0.25 0.25,1.14 l 3.43,13.91 0.3,1.09 3.08,12.36 c 0.45,1.74 0.54,1.89 2.7,1.89 h 6.42 l 0.69,1.55 h -16.73 c -0.94,0 -1.44,0 -1.44,-1 0,-0.55 0.44,-0.55 1.39,-0.55 0.09,0 1.05,0 1.89,-0.09 0.89,-0.11 1.34,-0.16 1.34,-0.8 0,-0.2 -0.04,-0.36 -0.2,-0.95 z" /></g>    </g>
    <g
       id="g1208"
       transform="translate(71.681954,115.18836)"
       style="stroke:#1d00ff;stroke-opacity:0.39548022;fill:#1100ff;fill-opacity:1">
      <g
         word-spacing="normal"
         letter-spacing="normal"
         font-size-adjust="none"
         font-stretch="normal"
         font-weight="normal"
         font-variant="normal"
         font-style="normal"
         stroke-miterlimit="10.433"
         xml:space="preserve"
         transform="matrix(0.12008579,0,0,-0.12008579,-21.015013,96.617932)"
         id="g1206"
         style="font-style:normal;font-variant:normal;font-weight:normal;font-stretch:normal;letter-spacing:normal;word-spacing:normal;text-anchor:start;fill:#1100ff;fill-opacity:1;fill-rule:evenodd;stroke:#1d00ff;stroke-linecap:butt;stroke-linejoin:miter;stroke-miterlimit:10.43299961;stroke-dasharray:none;stroke-dashoffset:0;stroke-opacity:0.39548022"><path
           id="path1194"
           d="m 486.8,434.54 0.23,0.36 0.23,0.33 0.22,0.31 0.22,0.29 0.22,0.28 0.22,0.25 0.22,0.24 0.22,0.22 0.21,0.2 0.21,0.19 0.21,0.17 0.2,0.16 0.21,0.14 0.2,0.13 0.21,0.12 0.19,0.11 0.2,0.09 0.2,0.09 0.19,0.07 0.2,0.07 0.19,0.06 0.19,0.05 0.18,0.04 0.19,0.03 0.18,0.03 0.19,0.03 0.36,0.04 0.35,0.02 0.35,0.02 c 0.6,0.05 0.64,0.89 0.64,0.96 0,0.39 -0.25,0.59 -0.64,0.59 -1.3,0 -2.75,-0.16 -4.09,-0.16 -1.64,0 -3.35,0.16 -4.94,0.16 -0.3,0 -0.94,0 -0.94,-0.95 0,-0.55 0.46,-0.6 0.8,-0.6 1.34,-0.09 2.3,-0.59 2.3,-1.64 0,-0.75 -0.75,-1.84 -0.75,-1.89 l -15.3,-24.31 -3.39,26.34 c 0,0.85 1.14,1.5 3.44,1.5 0.7,0 1.25,0 1.25,1 0,0.44 -0.41,0.55 -0.71,0.55 -1.98,0 -4.14,-0.16 -6.17,-0.16 -0.9,0 -1.84,0.05 -2.75,0.05 -0.89,0 -1.84,0.11 -2.69,0.11 -0.34,0 -0.93,0 -0.93,-0.95 0,-0.6 0.43,-0.6 1.23,-0.6 2.8,0 2.84,-0.45 3,-1.68 l 3.92,-30.75 c 0.16,-1 0.36,-1.14 1,-1.14 0.8,0 1,0.25 1.41,0.89 z"
           inkscape:connector-curvature="0"
           style="fill:#1100ff;stroke-width:0;stroke:#1d00ff;stroke-opacity:0.39548022;fill-opacity:1" /><path
           id="path1196"
           d="m 512.2,394.25 v 0.02 0.03 0.01 0.02 l -0.01,0.01 v 0.02 l -0.01,0.01 v 0.02 l -0.01,0.02 -0.01,0.02 -0.01,0.02 -0.02,0.03 -0.01,0.02 -0.02,0.03 -0.02,0.03 -0.03,0.03 -0.02,0.03 -0.03,0.04 -0.02,0.02 -0.02,0.02 -0.01,0.02 -0.02,0.02 -0.02,0.02 -0.02,0.03 -0.02,0.02 -0.02,0.02 -0.03,0.03 -0.02,0.02 -0.02,0.03 -0.03,0.03 -0.03,0.03 -0.02,0.03 -0.03,0.03 -0.03,0.03 -0.03,0.03 -0.04,0.03 -0.03,0.04 -0.03,0.03 -0.04,0.04 -0.03,0.03 -0.04,0.04 -0.04,0.04 c -6.22,6.28 -7.81,15.69 -7.81,23.31 0,8.67 1.89,17.35 8.01,23.56 0.64,0.61 0.64,0.71 0.64,0.86 0,0.35 -0.18,0.49 -0.48,0.49 -0.5,0 -4.99,-3.38 -7.92,-9.7 -2.55,-5.49 -3.14,-11.02 -3.14,-15.21 0,-3.89 0.54,-9.9 3.28,-15.54 2.98,-6.13 7.28,-9.36 7.78,-9.36 0.3,0 0.48,0.14 0.48,0.5 z"
           inkscape:connector-curvature="0"
           style="fill:#1100ff;stroke-width:0;stroke:#1d00ff;stroke-opacity:0.39548022;fill-opacity:1" /><path
           id="path1198"
           d="m 531.68,421.25 0.03,0.13 0.03,0.15 0.04,0.16 0.05,0.18 0.05,0.19 0.06,0.21 0.07,0.22 0.07,0.22 0.08,0.23 0.09,0.24 0.09,0.25 0.11,0.24 0.11,0.25 0.12,0.25 0.13,0.25 0.13,0.25 0.15,0.24 0.16,0.24 0.16,0.23 0.18,0.22 0.19,0.22 0.2,0.2 0.21,0.19 0.22,0.18 0.23,0.16 0.24,0.14 0.13,0.07 0.13,0.06 0.13,0.05 0.14,0.05 0.14,0.05 0.14,0.04 0.15,0.03 0.14,0.03 0.16,0.02 0.15,0.02 0.16,0.01 h 0.16 c 0.25,0 1.44,0 2.49,-0.64 -1.39,-0.25 -2.39,-1.5 -2.39,-2.69 0,-0.79 0.54,-1.75 1.89,-1.75 1.09,0 2.68,0.89 2.68,2.89 0,2.6 -2.93,3.28 -4.62,3.28 -2.89,0 -4.64,-2.64 -5.23,-3.78 -1.25,3.28 -3.94,3.78 -5.38,3.78 -5.19,0 -8.03,-6.42 -8.03,-7.67 0,-0.5 0.5,-0.5 0.61,-0.5 0.39,0 0.55,0.11 0.64,0.55 1.69,5.28 4.98,6.53 6.67,6.53 0.96,0 2.69,-0.44 2.69,-3.33 0,-1.54 -0.85,-4.89 -2.69,-11.86 -0.79,-3.09 -2.53,-5.18 -4.73,-5.18 -0.3,0 -1.44,0 -2.49,0.65 1.25,0.24 2.35,1.28 2.35,2.69 0,1.34 -1.1,1.73 -1.85,1.73 -1.5,0 -2.75,-1.29 -2.75,-2.89 0,-2.28 2.5,-3.28 4.69,-3.28 3.3,0 5.08,3.49 5.24,3.78 0.59,-1.84 2.38,-3.78 5.37,-3.78 5.14,0 7.98,6.42 7.98,7.67 0,0.5 -0.45,0.5 -0.6,0.5 -0.44,0 -0.55,-0.2 -0.65,-0.54 -1.64,-5.33 -5.03,-6.53 -6.62,-6.53 -1.95,0 -2.75,1.59 -2.75,3.29 0,1.1 0.3,2.19 0.86,4.38 z"
           inkscape:connector-curvature="0"
           style="fill:#1100ff;stroke-width:0;stroke:#1d00ff;stroke-opacity:0.39548022;fill-opacity:1" /><path
           id="path1200"
           d="m 557.86,418.65 v 0.37 0.39 l -0.01,0.39 -0.02,0.41 -0.04,0.84 -0.06,0.88 -0.08,0.92 -0.1,0.95 -0.14,0.97 -0.16,1.01 -0.2,1.02 -0.23,1.03 -0.27,1.05 -0.3,1.06 -0.35,1.07 -0.39,1.07 -0.22,0.53 -0.22,0.53 -0.24,0.53 -0.25,0.53 c -2.98,6.12 -7.26,9.36 -7.76,9.36 -0.3,0 -0.5,-0.19 -0.5,-0.49 0,-0.15 0,-0.25 0.93,-1.15 4.9,-4.92 7.74,-12.85 7.74,-23.27 0,-8.51 -1.84,-17.28 -8.03,-23.56 -0.64,-0.59 -0.64,-0.7 -0.64,-0.84 0,-0.3 0.2,-0.5 0.5,-0.5 0.5,0 4.96,3.39 7.92,9.71 2.53,5.47 3.12,11 3.12,15.19 z"
           inkscape:connector-curvature="0"
           style="fill:#1100ff;stroke-width:0;stroke:#1d00ff;stroke-opacity:0.39548022;fill-opacity:1" /><path
           id="path1202"
           d="m 618.26,417.65 -0.25,-0.19 -0.25,-0.2 -0.23,-0.19 -0.23,-0.2 -0.22,-0.19 -0.22,-0.19 -0.2,-0.19 -0.2,-0.19 -0.19,-0.18 -0.18,-0.18 -0.18,-0.18 -0.17,-0.18 -0.16,-0.17 -0.15,-0.17 -0.15,-0.17 -0.14,-0.16 -0.13,-0.15 -0.13,-0.16 -0.12,-0.15 -0.11,-0.14 -0.11,-0.14 -0.1,-0.13 -0.09,-0.13 -0.09,-0.12 -0.08,-0.11 -0.08,-0.11 -0.07,-0.11 -0.06,-0.09 -0.06,-0.09 -0.05,-0.08 -0.05,-0.07 -0.04,-0.07 c -2.23,-3.44 -2.64,-6.58 -2.64,-6.62 0,-0.6 0.61,-0.6 1,-0.6 0.85,0 0.89,0.1 1.1,1 1.15,4.88 4.09,9.06 9.72,11.36 0.59,0.19 0.75,0.3 0.75,0.64 0,0.35 -0.3,0.5 -0.41,0.55 -2.19,0.84 -8.22,3.34 -10.11,11.72 -0.16,0.59 -0.2,0.73 -1.05,0.73 -0.39,0 -1,0 -1,-0.59 0,-0.1 0.46,-3.24 2.55,-6.58 1,-1.48 2.44,-3.23 4.58,-4.83 h -37.02 c -0.89,0 -1.79,0 -1.79,-1 0,-1 0.9,-1 1.79,-1 z"
           inkscape:connector-curvature="0"
           style="fill:#1100ff;stroke-width:0;stroke:#1d00ff;stroke-opacity:0.39548022;fill-opacity:1" /><path
           id="path1204"
           d="m 665.74,419.7 -0.25,0.31 -0.23,0.29 -0.23,0.29 -0.21,0.26 -0.2,0.26 -0.19,0.24 -0.19,0.23 -0.17,0.22 -0.17,0.2 -0.16,0.2 -0.16,0.19 -0.15,0.17 -0.14,0.17 -0.14,0.16 -0.13,0.16 -0.13,0.15 -0.13,0.14 -0.12,0.13 -0.12,0.13 -0.12,0.13 -0.23,0.23 -0.24,0.23 -0.24,0.22 -0.24,0.22 -0.26,0.22 -0.14,0.11 -0.14,0.11 c -2.8,2.25 -5.59,3.14 -8.13,3.14 -5.82,0 -9.62,-5.46 -9.62,-11.29 h 1.11 c 0,4.87 3.33,8.9 7.72,8.9 2.89,0 5.12,-2.09 6.17,-3.14 1.25,-1.34 2.39,-2.89 5.44,-6.81 v 0 c -2.05,-3.59 -5.74,-8.62 -11.36,-8.62 -5.28,0 -7.97,5.18 -7.97,9.67 h -1.11 c 0,-5.74 3.69,-11.27 9.42,-11.27 5.74,0 9.86,4.53 12.32,8.52 2.68,-3.39 3.28,-4.13 4.82,-5.38 2.78,-2.25 5.58,-3.14 8.13,-3.14 5.83,0 9.61,5.49 9.61,11.31 h -1.1 c 0,-4.89 -3.34,-8.92 -7.71,-8.92 -2.9,0 -5.15,2.1 -6.19,3.14 -1.24,1.35 -2.39,2.89 -5.43,6.83 v 0 c 2.04,3.58 5.72,8.61 11.37,8.61 5.28,0 7.96,-5.17 7.96,-9.66 h 1.1 c 0,5.72 -3.69,11.25 -9.43,11.25 -5.71,0 -9.85,-4.53 -12.29,-8.51 z"
           inkscape:connector-curvature="0"
           style="fill:#1100ff;stroke-width:0;stroke:#1d00ff;stroke-opacity:0.39548022;fill-opacity:1" /></g>    </g>
    <g
       transform="translate(70.517812,121.63897)"
       id="g1312"
       style="stroke:#1d00ff;stroke-opacity:0.39548022;fill:#1100ff;fill-opacity:1">
      <g
         style="font-style:normal;font-variant:normal;font-weight:normal;font-stretch:normal;letter-spacing:normal;word-spacing:normal;text-anchor:start;fill:#1100ff;fill-opacity:1;fill-rule:evenodd;stroke:#1d00ff;stroke-linecap:butt;stroke-linejoin:miter;stroke-miterlimit:10.43299961;stroke-dasharray:none;stroke-dashoffset:0;stroke-opacity:0.39548022"
         id="g1310"
         transform="matrix(0.12008579,0,0,-0.12008579,-21.015013,96.617932)"
         xml:space="preserve"
         stroke-miterlimit="10.433"
         font-style="normal"
         font-variant="normal"
         font-weight="normal"
         font-stretch="normal"
         font-size-adjust="none"
         letter-spacing="normal"
         word-spacing="normal"><path
           style="fill:#1100ff;stroke-width:0;stroke:#1d00ff;stroke-opacity:0.39548022;fill-opacity:1"
           inkscape:connector-curvature="0"
           d="m 472.11,409.98 0.03,-0.19 0.02,-0.18 0.04,-0.19 0.04,-0.18 0.05,-0.19 0.06,-0.18 0.06,-0.18 0.07,-0.18 0.07,-0.18 0.08,-0.17 0.09,-0.18 0.1,-0.16 0.1,-0.16 0.1,-0.16 0.12,-0.16 0.12,-0.14 0.12,-0.14 0.13,-0.14 0.14,-0.13 0.15,-0.12 0.15,-0.12 0.15,-0.1 0.17,-0.1 0.17,-0.09 0.17,-0.08 0.18,-0.07 0.19,-0.06 0.19,-0.05 0.2,-0.04 0.21,-0.03 0.21,-0.02 0.21,-0.01 c 1.04,0 4.08,0.71 4.08,4.74 v 2.78 h -1.25 v -2.78 c 0,-2.89 -1.23,-3.19 -1.79,-3.19 -1.65,0 -1.85,2.23 -1.85,2.48 v 9.97 c 0,2.1 0,4.03 -1.78,5.88 -1.95,1.93 -4.44,2.73 -6.83,2.73 -4.09,0 -7.53,-2.33 -7.53,-5.62 0,-1.49 1,-2.35 2.3,-2.35 1.39,0 2.29,1 2.29,2.3 0,0.59 -0.25,2.23 -2.54,2.3 1.34,1.73 3.78,2.28 5.37,2.28 2.46,0 5.28,-1.94 5.28,-6.38 v -1.84 -1.05 -4.98 c 0,-4.74 -3.57,-6.42 -5.82,-6.42 -2.44,0 -4.49,1.75 -4.49,4.23 0,2.73 2.1,6.88 10.31,7.17 v 0 1.05 c -2.53,-0.14 -6.01,-0.3 -9.15,-1.8 -3.74,-1.69 -4.99,-4.28 -4.99,-6.47 0,-4.03 4.83,-5.28 7.97,-5.28 3.3,0 5.58,1.99 6.53,4.33 z"
           id="path1296" /><path
           style="fill:#1100ff;stroke-width:0;stroke:#1d00ff;stroke-opacity:0.39548022;fill-opacity:1"
           inkscape:connector-curvature="0"
           d="m 490.84,415.87 0.11,-0.02 0.12,-0.02 0.15,-0.03 0.15,-0.04 0.17,-0.04 0.18,-0.04 0.19,-0.05 0.2,-0.06 0.2,-0.06 0.21,-0.07 0.22,-0.08 0.22,-0.08 0.22,-0.1 0.22,-0.1 0.22,-0.11 0.22,-0.12 0.22,-0.14 0.21,-0.14 0.2,-0.15 0.2,-0.16 0.19,-0.18 0.18,-0.19 0.17,-0.2 0.16,-0.21 0.14,-0.22 0.07,-0.12 0.06,-0.12 0.06,-0.13 0.05,-0.12 0.05,-0.14 0.05,-0.13 0.04,-0.14 0.03,-0.14 0.03,-0.15 0.03,-0.15 0.02,-0.16 0.01,-0.15 0.01,-0.17 v -0.16 c 0,-2.53 -1.75,-4.53 -5.62,-4.53 -4.19,0 -5.99,2.84 -6.94,7.07 -0.14,0.64 -0.19,0.85 -0.69,0.85 -0.65,0 -0.65,-0.35 -0.65,-1.25 v -6.58 c 0,-0.84 0,-1.19 0.54,-1.19 0.25,0 0.3,0.05 1.25,1 0.1,0.1 0.1,0.19 1,1.14 2.19,-2.09 4.44,-2.14 5.49,-2.14 5.72,0 8.01,3.35 8.01,6.92 0,2.64 -1.5,4.14 -2.09,4.74 -1.64,1.59 -3.59,2 -5.69,2.39 -2.78,0.55 -6.12,1.2 -6.12,4.09 0,1.74 1.29,3.78 5.58,3.78 5.48,0 5.73,-4.48 5.82,-6.03 0.07,-0.45 0.5,-0.45 0.61,-0.45 0.64,0 0.64,0.25 0.64,1.2 v 5.03 c 0,0.85 0,1.19 -0.54,1.19 -0.25,0 -0.35,0 -1,-0.59 -0.14,-0.21 -0.64,-0.64 -0.85,-0.8 -1.89,1.39 -3.93,1.39 -4.68,1.39 -6.08,0 -7.97,-3.33 -7.97,-6.12 0,-1.74 0.79,-3.14 2.14,-4.24 1.59,-1.29 3,-1.59 6.58,-2.28 z"
           id="path1298" /><path
           style="fill:#1100ff;stroke-width:0;stroke:#1d00ff;stroke-opacity:0.39548022;fill-opacity:1"
           inkscape:connector-curvature="0"
           d="m 524.64,441.78 v 0.16 0.17 l -0.01,0.16 v 0.08 l -0.01,0.08 -0.01,0.08 v 0.08 l -0.01,0.07 -0.02,0.07 -0.01,0.07 -0.02,0.07 -0.02,0.07 -0.02,0.06 -0.02,0.06 -0.03,0.06 -0.03,0.06 -0.04,0.05 -0.04,0.05 -0.04,0.05 -0.04,0.04 -0.05,0.04 -0.03,0.01 -0.03,0.02 -0.03,0.02 -0.03,0.01 -0.03,0.01 -0.03,0.02 -0.04,0.01 -0.03,0.01 -0.04,0.01 -0.04,0.01 h -0.04 l -0.04,0.01 h -0.04 l -0.04,0.01 h -0.05 -0.04 c -1,0 -1,-0.89 -1,-1.78 v -46.24 c 0,-0.9 0,-1.79 1,-1.79 1,0 1,0.89 1,1.79 z"
           id="path1300" /><path
           style="fill:#1100ff;stroke-width:0;stroke:#1d00ff;stroke-opacity:0.39548022;fill-opacity:1"
           inkscape:connector-curvature="0"
           d="m 547.15,421.25 0.03,0.13 0.04,0.15 0.04,0.16 0.05,0.18 0.05,0.19 0.06,0.21 0.06,0.22 0.08,0.22 0.08,0.23 0.08,0.24 0.1,0.25 0.1,0.24 0.11,0.25 0.12,0.25 0.13,0.25 0.14,0.25 0.15,0.24 0.15,0.24 0.17,0.23 0.18,0.22 0.19,0.22 0.19,0.2 0.21,0.19 0.22,0.18 0.24,0.16 0.24,0.14 0.13,0.07 0.13,0.06 0.13,0.05 0.14,0.05 0.13,0.05 0.15,0.04 0.14,0.03 0.15,0.03 0.15,0.02 0.16,0.02 0.16,0.01 h 0.16 c 0.25,0 1.44,0 2.48,-0.64 -1.39,-0.25 -2.39,-1.5 -2.39,-2.69 0,-0.79 0.55,-1.75 1.89,-1.75 1.1,0 2.69,0.89 2.69,2.89 0,2.6 -2.94,3.28 -4.62,3.28 -2.89,0 -4.64,-2.64 -5.24,-3.78 -1.25,3.28 -3.93,3.78 -5.37,3.78 -5.19,0 -8.03,-6.42 -8.03,-7.67 0,-0.5 0.5,-0.5 0.6,-0.5 0.4,0 0.55,0.11 0.65,0.55 1.68,5.28 4.98,6.53 6.67,6.53 0.95,0 2.68,-0.44 2.68,-3.33 0,-1.54 -0.84,-4.89 -2.68,-11.86 -0.8,-3.09 -2.53,-5.18 -4.74,-5.18 -0.29,0 -1.43,0 -2.48,0.65 1.25,0.24 2.34,1.28 2.34,2.69 0,1.34 -1.09,1.73 -1.84,1.73 -1.5,0 -2.75,-1.29 -2.75,-2.89 0,-2.28 2.5,-3.28 4.69,-3.28 3.29,0 5.08,3.49 5.23,3.78 0.6,-1.84 2.39,-3.78 5.38,-3.78 5.14,0 7.98,6.42 7.98,7.67 0,0.5 -0.45,0.5 -0.61,0.5 -0.44,0 -0.55,-0.2 -0.64,-0.54 -1.64,-5.33 -5.03,-6.53 -6.63,-6.53 -1.95,0 -2.75,1.59 -2.75,3.29 0,1.1 0.3,2.19 0.87,4.38 z"
           id="path1302" /><path
           style="fill:#1100ff;stroke-width:0;stroke:#1d00ff;stroke-opacity:0.39548022;fill-opacity:1"
           inkscape:connector-curvature="0"
           d="m 566.87,441.78 v 0.16 0.17 l -0.01,0.16 v 0.08 0.08 l -0.01,0.08 -0.01,0.08 -0.01,0.07 -0.01,0.07 -0.02,0.07 -0.01,0.07 -0.02,0.07 -0.02,0.06 -0.03,0.06 -0.03,0.06 -0.03,0.06 -0.03,0.05 -0.04,0.05 -0.04,0.05 -0.05,0.04 -0.05,0.04 -0.03,0.01 -0.03,0.02 -0.03,0.02 -0.03,0.01 -0.03,0.01 -0.03,0.02 -0.03,0.01 -0.04,0.01 -0.04,0.01 -0.03,0.01 h -0.04 l -0.04,0.01 h -0.04 l -0.05,0.01 h -0.04 -0.05 c -1,0 -1,-0.89 -1,-1.78 v -46.24 c 0,-0.9 0,-1.79 1,-1.79 1,0 1,0.89 1,1.79 z"
           id="path1304" /><path
           style="fill:#1100ff;stroke-width:0;stroke:#1d00ff;stroke-opacity:0.39548022;fill-opacity:1"
           inkscape:connector-curvature="0"
           d="m 628.22,417.65 -0.26,-0.19 -0.24,-0.2 -0.24,-0.19 -0.23,-0.2 -0.22,-0.19 -0.21,-0.19 -0.2,-0.19 -0.2,-0.19 -0.19,-0.18 -0.19,-0.18 -0.17,-0.18 -0.17,-0.18 -0.16,-0.17 -0.15,-0.17 -0.15,-0.17 -0.14,-0.16 -0.13,-0.15 -0.13,-0.16 -0.12,-0.15 -0.11,-0.14 -0.11,-0.14 -0.1,-0.13 -0.09,-0.13 -0.09,-0.12 -0.08,-0.11 -0.08,-0.11 -0.07,-0.11 -0.06,-0.09 -0.06,-0.09 -0.05,-0.08 -0.05,-0.07 -0.04,-0.07 c -2.23,-3.44 -2.64,-6.58 -2.64,-6.62 0,-0.6 0.61,-0.6 1,-0.6 0.84,0 0.89,0.1 1.09,1 1.16,4.88 4.1,9.06 9.72,11.36 0.6,0.19 0.75,0.3 0.75,0.64 0,0.35 -0.3,0.5 -0.4,0.55 -2.19,0.84 -8.22,3.34 -10.11,11.72 -0.16,0.59 -0.21,0.73 -1.05,0.73 -0.39,0 -1,0 -1,-0.59 0,-0.1 0.45,-3.24 2.55,-6.58 1,-1.48 2.43,-3.23 4.58,-4.83 H 591.2 c -0.89,0 -1.8,0 -1.8,-1 0,-1 0.91,-1 1.8,-1 z"
           id="path1306" /><path
           style="fill:#1100ff;stroke-width:0;stroke:#1d00ff;stroke-opacity:0.39548022;fill-opacity:1"
           inkscape:connector-curvature="0"
           d="m 675.7,419.7 -0.25,0.31 -0.23,0.29 -0.22,0.29 -0.22,0.26 -0.2,0.26 -0.19,0.24 -0.19,0.23 -0.17,0.22 -0.17,0.2 -0.16,0.2 -0.16,0.19 -0.15,0.17 -0.14,0.17 -0.14,0.16 -0.13,0.16 -0.13,0.15 -0.12,0.14 -0.13,0.13 -0.12,0.13 -0.12,0.13 -0.23,0.23 -0.24,0.23 -0.24,0.22 -0.24,0.22 -0.26,0.22 -0.14,0.11 -0.14,0.11 c -2.8,2.25 -5.59,3.14 -8.12,3.14 -5.83,0 -9.63,-5.46 -9.63,-11.29 h 1.11 c 0,4.87 3.33,8.9 7.72,8.9 2.89,0 5.12,-2.09 6.17,-3.14 1.25,-1.34 2.39,-2.89 5.44,-6.81 v 0 c -2.05,-3.59 -5.74,-8.62 -11.36,-8.62 -5.28,0 -7.97,5.18 -7.97,9.67 h -1.11 c 0,-5.74 3.69,-11.27 9.42,-11.27 5.74,0 9.86,4.53 12.31,8.52 2.69,-3.39 3.29,-4.13 4.83,-5.38 2.79,-2.25 5.58,-3.14 8.13,-3.14 5.83,0 9.61,5.49 9.61,11.31 h -1.1 c 0,-4.89 -3.34,-8.92 -7.72,-8.92 -2.88,0 -5.13,2.1 -6.18,3.14 -1.24,1.35 -2.39,2.89 -5.42,6.83 v 0 c 2.03,3.58 5.72,8.61 11.35,8.61 5.29,0 7.97,-5.17 7.97,-9.66 h 1.1 c 0,5.72 -3.69,11.25 -9.42,11.25 -5.72,0 -9.86,-4.53 -12.3,-8.51 z"
           id="path1308" /></g>    </g>
    <path
       style="fill:none;fill-opacity:1;stroke:none;stroke-width:0.89230621;stroke-miterlimit:4;stroke-dasharray:none;stroke-dashoffset:0;stroke-opacity:1"
       d=" M -6.0065565 126.904217 C -5.68426665152 126.904217 -5.36197680303 107.434770739 -5.03968695455 107.390581245 C -4.71739710606 107.346391751 -4.39510725758 95.5650950079 -4.07281740909 95.4767160199 C -3.75052756061 95.3883370319 -3.42823771212 95.9351576217 -3.10594786364 95.8025891397 C -2.78365801515 95.6700206577 -2.46136816667 108.418044203 -2.13907831818 108.241286227 C -1.8167884697 108.064528251 -1.49449862121 128.16938619 -1.17220877273 127.94843872 C -0.849918924242 127.72749125 -0.527629075758 147.514046124 -0.205339227273 147.24890916 C 0.116950621212 146.983772196 0.439240469697 158.935272728 0.761530318182 158.62594627 C 1.08382016667 158.316619812 1.40611001515 158.00217099 1.72839986364 157.648655038 C 2.05068971212 157.295139086 2.37297956061 145.095356248 2.69526940909 144.697650802 C 3.01755925758 144.299945356 3.33984910606 125.258719943 3.66213895455 124.816825003 C 3.98442880303 124.374930062 4.30671865152 106.235038249 4.6290085 105.748953815 C 4.95129834848 105.262869381 5.27358819697 95.4504744597 5.59587804545 94.9202005317 C 5.91816789394 94.3899266036 6.24045774242 97.1223892501 6.56274759091 96.5479258281 C 6.88503743939 95.973462406 7.20732728788 110.616849565 7.52961713636 109.998196649 C 7.85190698485 109.379543733 8.17419683333 130.695519858 8.49648668182 130.032677448 C 8.8187765303 129.369835038 9.14106637879 149.555781556 9.46335622727 148.848749652 C 9.78564607576 148.141717748 10.1079359242 159.869536871 10.4302257727 159.118315473 C 10.7525156212 158.367094075 11.0748054697 157.637205986 11.3970953182 156.841795094 C 11.7193851667 156.046384202 12.0416750152 143.745401357 12.3639648636 142.905800971 C 12.6862547121 142.066200585 13.0085445606 123.621628076 13.3308344091 122.737838196 C 13.6531242576 121.854048316 13.9754141061 105.120490538 14.2977039545 104.192511164 C 14.619993803 103.26453179 14.9422836515 95.4646422573 15.2645735 94.4924733892 C 15.5868633485 93.5203045212 15.909153197 98.431854949 16.2314430455 97.4154965869 C 16.5537328939 96.3991382249 16.8760227424 112.883729504 17.1983125909 111.823181648 C 17.5206024394 110.762633792 17.8428922879 133.20905632 18.1651821364 132.10431897 C 18.4874719848 130.99958162 18.8097618333 151.509154101 19.1320516818 150.360227257 C 19.4543415303 149.211300413 19.7766313788 160.674086208 20.0989212273 159.48096987 C 20.4212110758 158.287853532 20.7435009242 157.151692922 21.0657907727 155.91438709 C 21.3880806212 154.677081258 21.7103704697 142.331013735 22.0326603182 141.049518409 C 22.3549501667 139.768023082 22.6772400152 122.001312746 22.9995298636 120.675627926 C 23.3218197121 119.349943106 23.6441095606 104.09739485 23.9663994091 102.727520536 C 24.2886892576 101.357646222 24.6109791061 95.6093207069 24.9332689545 94.1952568988 C 25.255558803 92.7811930907 25.5778486515 99.8600613172 25.9001385 98.4018080151 C 26.2224283485 96.943554713 26.544718197 115.21133545 26.8670080455 113.708892654 C 27.1892978939 112.206449858 27.5115877424 135.701653807 27.8338775909 134.155021517 C 28.1561674394 132.608389226 28.4784572879 153.368077571 28.8007471364 151.777255787 C 29.1230369848 150.186434002 29.4453268333 161.34746046 29.7676166818 159.712449182 C 30.0899065303 158.077437904 30.4121963788 156.549366142 30.7344862273 154.87016537 C 31.0567760758 153.190964598 31.3790659242 140.859667976 31.7013557727 139.13627771 C 32.0236456212 137.412887444 32.3459354697 120.406077746 32.6682253182 118.638497986 C 32.9905151667 116.870918226 33.3128050152 103.171650186 33.6350948636 101.359880932 C 33.9573847121 99.5481116782 34.2796745606 95.8857065943 34.6019644091 94.0297478462 C 34.9242542576 92.1737890981 35.2465441061 101.403036827 35.5688339545 99.5028885844 C 35.891123803 97.6027403423 36.2134136515 117.59207431 36.5357035 115.647736574 C 36.8579933485 113.703398838 37.180283197 138.165054863 37.5025730455 136.176527632 C 37.8248628939 134.188000402 38.1471527424 155.126846092 38.4694425909 153.094129368 C 38.7917324394 151.061412644 39.1140222879 161.88872754 39.4363121364 159.811821322 C 39.7586019848 157.734915104 40.0808918333 155.834430358 40.4031816818 153.713334646 C 40.7254715303 151.592238934 41.0477613788 139.339068026 41.3700512273 137.17378282 C 41.6923410758 135.008497614 42.0146309242 118.84412588 42.3369207727 116.63465118 C 42.6592106212 114.42517648 42.9815004697 102.348763548 43.3037903182 100.095099354 C 43.6260801667 97.8414351597 43.9483700152 96.2944663663 44.2706598636 93.9966126782 C 44.5929497121 91.69875899 44.9152395606 103.056347814 45.2375294091 100.714304632 C 45.5598192576 98.3722614501 45.8821091061 120.018139044 46.2043989545 117.631906368 C 46.526688803 115.245673691 46.8489786515 140.591119596 47.1712685 138.160697426 C 47.4935583485 135.730275256 47.815848197 156.78015708 48.1381380455 154.305545416 C 48.4604278939 151.830933751 48.7827177424 162.297487312 49.1050075909 159.778686154 C 49.4272974394 157.259884996 49.7495872879 155.01154372 50.0718771364 152.448553068 C 50.3941669848 149.885562416 50.7164568333 137.77711616 51.0387466818 135.169936014 C 51.3610365303 132.562755868 51.6833263788 117.32352593 52.0056162273 114.67215629 C 52.3279060758 112.02078665 52.6501959242 101.633827764 52.9724857727 98.93826863 C 53.2947756212 96.2427094959 53.6170654697 96.8357334463 53.9393553182 94.0959848181 C 54.2616451667 91.35623619 54.5839350152 104.815116336 54.9062248636 102.031178213 C 55.2285147121 99.2472400913 55.5508045606 122.4815401 55.8730944091 119.653412483 C 56.1953842576 116.825284867 56.5176741061 142.971858456 56.8399639545 140.099541346 C 57.162253803 137.227224236 57.4845436515 158.323132589 57.8068335 155.406625985 C 58.1291233485 152.490119381 58.451413197 162.573873199 58.7737030455 159.613177101 C 59.0959928939 156.652481003 59.4182827424 154.085799056 59.7405725909 151.080913464 C 60.0628624394 148.076027871 60.3851522879 136.18188116 60.7074421364 133.132806074 C 61.0297319848 130.083730988 61.3520218333 115.852180172 61.6743116818 112.758915591 C 61.9966015303 109.665651011 62.3188913788 101.031500984 62.6411812273 97.8940469099 C 62.9634710758 94.7565928357 63.2857609242 97.5091076978 63.6080507727 94.3274641296 C 63.9303406212 91.1458205615 64.2526304697 106.674039805 64.5749203182 103.448206743 C 64.8972101667 100.222373681 65.2195000152 124.974137586 65.5417898636 121.70411503 C 65.8640797121 118.434092474 66.1863695606 145.299464402 66.5086594091 141.985252352 C 66.8309492576 138.671040302 67.1532391061 159.751338957 67.4755289545 156.392937413 C 67.797818803 153.034535869 68.1201086515 162.718551649 68.4423985 159.315960611 C 68.7646883485 155.913369573 69.086978197 153.062703368 69.4092680455 149.615922836 C 69.7315578939 146.169142304 70.0538477424 134.56156583 70.3761375909 131.070595804 C 70.6984274394 127.579625778 71.0207172879 114.437792549 71.3430071364 110.902633029 C 71.6652969848 107.367473509 71.9875868333 100.54598792 72.3098766818 96.9666389058 C 72.6321665303 93.3872898916 72.9544563788 98.3136570354 73.2767462273 94.6901185272 C 73.5990360758 91.066580019 73.9213259242 108.62741235 74.2436157727 104.959684348 C 74.5659056212 101.291956345 74.8881954697 127.487674048 75.2104853182 123.775756552 C 75.5327751667 120.063839056 75.8550650152 147.566344341 76.1773548636 143.810237351 C 76.4996447121 140.054130361 76.8219345606 161.060804656 77.1442244091 157.260508172 C 77.4665142576 153.460211688 77.7888041061 162.732719447 78.1110939545 158.888233468 C 78.433383803 155.04374749 78.7556736515 151.948155657 79.0779635 148.059480185 C 79.4002533485 144.170804713 79.722543197 132.924473964 80.0448330455 128.991608997 C 80.3671228939 125.058744031 80.6894127424 113.087837658 81.0117025909 109.110783198 C 81.3339924394 105.133728738 81.6562822879 100.181022917 81.9785721364 96.1597789624 C 82.3008619848 92.1385350081 82.6231518333 99.2479211778 82.9454416818 95.1824877295 C 83.2677315303 91.1170542813 83.5900213788 110.669147782 83.9123112273 106.55952484 C 84.2346010758 102.449901898 84.5568909242 130.013807716 84.8791807727 125.85999528 C 85.2014706212 121.706182844 85.5237604697 149.765149704 85.8460503182 145.567147773 C 86.1683401667 141.369145843 86.4906300152 162.248036285 86.8129198636 158.00584486 C 87.1352097121 153.763653436 87.4574995606 162.618098898 87.7797894091 158.33171798 C 88.1020792576 154.045337062 88.4243691061 150.748423168 88.7466589545 146.417852755 C 89.068948803 142.087282343 89.3912386515 131.278976906 89.7135285 126.904217"
       title="sin(10*x)"
       id="path1030" />
    <path
       id="path1278-3"
       title="sin(5*x)"
       d="m 91.328098,120.26288 c 0.05632,0.58667 0.112616,0.81104 0.168966,1.39476 0.05633,0.58373 0.112616,0.7793 0.168966,1.36007 0.05633,0.58078 0.112626,0.71374 0.168975,1.29156 0.05632,0.57782 0.112617,0.61605 0.168966,1.19092 0.05632,0.57488 0.112617,0.48874 0.168966,1.06066 0.05632,0.57193 0.112617,0.33505 0.168967,0.90403 0.05632,0.56898 0.112616,0.15888 0.168966,0.72491 0.05632,0.56606 0.112616,-0.0353 0.168966,0.52776 0.05632,0.56308 0.112616,-0.24266 0.168966,0.31748 0.05632,0.56013 0.112625,-0.45789 0.168975,0.0993 0.05632,0.55719 0.112616,-0.67557 0.168966,-0.12133 0.05632,0.55424 0.112616,-0.89025 0.168966,-0.33895 0.05632,0.55129 0.112616,-1.09649 0.168966,-0.54815 0.05632,0.54835 0.112616,-1.2891 0.168966,-0.74371 0.05632,0.5454 0.112617,-1.46322 0.168966,-0.92077 0.05632,0.54245 0.112626,-1.61443 0.168976,-1.07493 0.05631,0.5395 0.112616,-1.73892 0.168966,-1.20236 0.05632,0.53654 0.112616,-1.8335 0.168966,-1.2999 0.05632,0.5336 0.112616,-1.89574 0.168966,-1.36508 0.05632,0.53065 0.112616,-1.92404 0.168966,-1.39633 0.05632,0.52771 0.112616,-1.91761 0.168966,-1.39285 0.05632,0.52476 0.112616,-1.87653 0.168966,-1.35472 0.05632,0.52181 0.112626,-1.80177 0.168975,-1.28291 0.05632,0.51887 0.112617,-1.69509 0.168966,-1.17917 0.05632,0.51591 0.112617,-1.5591 0.168967,-1.04613 0.05632,0.51297 0.112616,-1.39707 0.168966,-0.88706 0.05632,0.51002 0.112616,-1.213 0.168966,-0.70592 0.05632,0.50707 0.112616,-1.01136 0.168966,-0.50724 0.05632,0.50412 0.112625,-0.79711 0.168975,-0.29593 0.05632,0.50115 0.112616,-0.57553 0.168966,-0.0773 0.05632,0.49823 0.112616,-0.35196 0.168966,0.14332 0.05632,0.49528 0.112616,-0.13199 0.168966,0.36034 0.05632,0.4923 0.112616,0.079 0.168966,0.5684 0.05632,0.48938 0.112617,0.27589 0.168966,0.76232 0.05632,0.48644 0.112617,0.4538 0.168966,0.93729 0.05632,0.48349 0.112617,0.6084 0.168966,1.08894 0.05633,0.48054 0.112626,0.73591 0.168976,1.2135 0.05632,0.47759 0.112616,0.83326 0.168966,1.3079 0.05632,0.47464 0.112616,0.89807 0.168966,1.36976 0.05632,0.47169 0.112616,0.9288 0.168966,1.39755 0.05632,0.46874 0.112616,0.92479 0.168966,1.39058 0.05632,0.4658 0.112616,0.88618 0.168966,1.34904 0.05632,0.46285 0.112616,0.81402 0.168966,1.27392 0.05633,0.4599 0.112626,0.7102 0.168976,1.16715 0.05632,0.45695 0.112616,0.57733 0.168966,1.03133 0.05632,0.454 0.112616,0.41881 0.168966,0.86987 0.05632,0.45106 0.112616,0.23865 0.168966,0.68676 0.05632,0.44809 0.112616,0.0414 0.168966,0.48659 0.05632,0.44516 0.112616,-0.1679 0.168966,0.27432 0.05632,0.44221 0.112616,-0.38407 0.168966,0.0552 0.05632,0.43927 0.112625,-0.60159 0.168975,-0.16527 0.05632,0.43632 0.112619,-0.81501 0.168969,-0.38164 0.0563,0.43337 0.11261,-1.01893 0.16896,-0.58851 0.0563,0.43042 0.11262,-1.20822 0.16897,-0.78075 0.0563,0.42748 0.11262,-1.37809 0.16897,-0.95356 0.0563,0.42452 0.11261,-1.52426 0.16896,-1.10268 0.0563,0.42158 0.11263,-1.64298 0.16898,-1.22435 0.0563,0.41863 0.11261,-1.73126 0.16896,-1.31558 0.0563,0.41569 0.11262,-1.78682 0.16897,-1.37408 0.0563,0.41273 0.11262,-1.80821 0.16897,-1.39842 0.0563,0.40978 0.11261,-1.79482 0.16896,-1.38798 0.0563,0.40684 0.11262,-1.74689 0.16897,-1.34301 0.0563,0.40389 0.11261,-1.66557 0.16896,-1.26464 0.0563,0.40095 0.11263,-1.55281 0.16898,-1.15481 0.0563,0.39799 0.11261,-1.41132 0.16896,-1.01628 0.0563,0.39504 0.11262,-1.24456 0.16897,-0.85246 0.0563,0.3921 0.11262,-1.05659 0.16897,-0.66744 0.0563,0.38915 0.11261,-0.85202 0.16896,-0.46582 0.0563,0.3862 0.11262,-0.63587 0.16897,-0.25262 0.0563,0.38328 0.11262,-0.4134 0.16896,-0.0331 0.0563,0.38031 0.11263,-0.19017 0.16898,0.18719 0.0563,0.37734 0.11262,0.0284 0.16897,0.40284 0.0564,0.3744 0.11261,0.23701 0.16896,0.60847 0.0564,0.37146 0.11262,0.43047 0.16897,0.79898 0.0564,0.36851 0.11261,0.60405 0.16896,0.96961 0.0564,0.36556 0.11262,0.75351 0.16897,1.11613 0.0564,0.36262 0.11263,0.87522 0.16897,1.23488 0.0564,0.35967 0.11262,0.96622 0.16897,1.32293 0.0564,0.35673 0.11262,1.02431 0.16897,1.37808 0.0563,0.35377 0.11261,1.04813 0.16896,1.39895 0.0564,0.35082 0.11262,1.03714 0.16897,1.38502 0.0563,0.34787 0.11262,0.99172 0.16897,1.33664 0.0563,0.34493 0.11261,0.91306 0.16896,1.25503 0.0563,0.34198 0.11263,0.80319 0.16898,1.14221 0.0563,0.33903 0.11261,0.66489 0.16896,1.00097 0.0563,0.33609 0.11262,0.5017 0.16897,0.83484 0.0563,0.33313 0.11262,0.31777 0.16896,0.64795 0.0563,0.33018 0.11262,0.1177 0.16897,0.44493 0.0563,0.32727 0.11262,-0.0934 0.16897,0.23087 0.0563,0.32425 0.11261,-0.31034 0.16896,0.011 0.0563,0.32134 0.11263,-0.52744 0.16898,-0.20905 0.0564,0.3184 0.11261,-0.73939 0.16896,-0.42394 0.0564,0.31545 0.11262,-0.94079 0.16897,-0.62828 0.0564,0.31249 0.11262,-1.12657 0.16897,-0.81702 0.0564,0.30955 0.11261,-1.29201 0.16896,-0.98541 0.0564,0.3066 0.11262,-1.43296 0.16897,-1.12931 0.0564,0.30365 0.11261,-1.54582 0.16896,-1.24512 0.0564,0.30071 0.11263,-1.62771 0.16898,-1.32995 0.0563,0.29776 0.11262,-1.67653 0.16897,-1.38172 0.0563,0.29481 0.11261,-1.69098 0.16896,-1.39912 0.0563,0.29186 0.11262,-1.67063 0.16897,-1.38172 0.0563,0.28891 0.11261,-1.61592 0.16896,-1.32996 0.0563,0.28597 0.11262,-1.52813 0.16897,-1.24511 0.0563,0.28301 0.11262,-1.40937 0.16897,-1.12931 0.0563,0.28007 0.11262,-1.26253 0.16897,-0.98541 0.0563,0.27712 0.11262,-1.09119 0.16897,-0.81701 0.0563,0.27417 0.11261,-0.89952 0.16896,-0.62829 0.0563,0.27122 0.11262,-0.69222 0.16897,-0.42394 0.0563,0.26828 0.11262,-0.47438 0.16897,-0.20905 0.0564,0.26528 0.11261,-0.25139 0.16896,0.011 0.0563,0.26245 0.11262,-0.0286 0.16897,0.23085 0.0564,0.25943 0.11262,0.18846 0.16897,0.44494 0.0564,0.25649 0.11262,0.39441 0.16897,0.64794 0.0564,0.25354 0.11262,0.58425 0.16897,0.83484 0.0563,0.25059 0.11261,0.75334 0.16896,1.00098 0.0564,0.24763 0.11262,0.89751 0.16897,1.1422 0.0563,0.24469 0.11261,1.01329 0.16896,1.25504 0.0564,0.24174 0.11263,1.09785 0.16898,1.33665 0.0563,0.23879 0.11262,1.14917 0.16897,1.38502 0.0563,0.23584 0.11261,1.16603 0.16896,1.39894 0.0563,0.2329 0.11262,1.14812 0.16897,1.37807 0.0563,0.22996 0.11261,1.09593 0.16896,1.32293 0.0563,0.22701 0.11262,1.01084 0.16897,1.23489 0.0563,0.22406 0.11262,0.89502 0.16897,1.11613 0.0563,0.22111 0.11262,0.75145 0.16897,0.96961 0.0564,0.21816 0.11261,0.58377 0.16896,0.79898 0.0563,0.21521 0.11262,0.39621 0.16897,0.60848 0.0564,0.21226 0.11262,0.19352 0.16897,0.40284 0.0564,0.20927 0.11262,-0.0192 0.16897,0.18717 0.0563,0.20639 0.11261,-0.23652 0.16896,-0.0331 0.0564,0.20342 0.11262,-0.45309 0.16897,-0.25262 0.0564,0.20048 0.11261,-0.66334 0.16896,-0.46581 0.0564,0.19752 0.11262,-0.86202 0.16897,-0.66744 0.0564,0.19457 0.11262,-1.04409 0.16897,-0.85247 0.0563,0.19163 0.11262,-1.20495 0.16897,-1.01628 0.0563,0.18868 0.11262,-1.34054 0.16897,-1.15481 0.0563,0.18573 0.11261,-1.44742 0.16896,-1.26464 0.0563,0.18278 0.11262,-1.52284 0.16897,-1.34301 0.0563,0.17983 0.11262,-1.56486 0.16897,-1.38797 0.0563,0.17688 0.11261,-1.57236 0.16896,-1.39843 0.0563,0.17394 0.11263,-1.54508 0.16898,-1.37408 0.0563,0.17098 0.11261,-1.48362 0.16896,-1.31558 0.0563,0.16804 0.11262,-1.38945 0.16897,-1.22435 0.0563,0.1651 0.11261,-1.26482 0.16896,-1.10267 0.0563,0.16214 0.11262,-1.11276 0.16897,-0.95357 0.0563,0.1592 0.11262,-0.937 0.16897,-0.78074 0.0564,0.15624 0.11262,-0.74182 0.16897,-0.58852 0.0564,0.1533 0.11262,-0.53199 0.16897,-0.38164 0.0564,0.15036 0.11261,-0.31267 0.16896,-0.16526 0.0564,0.1474 0.11262,-0.0893 0.16897,0.0552 0.0564,0.14445 0.11262,0.13279 0.16897,0.2743 0.0563,0.14151 0.11261,0.34803 0.16896,0.48659 0.0564,0.13856 0.11262,0.55116 0.16897,0.68677 0.0563,0.13561 0.11262,0.7372 0.16897,0.86986 0.0563,0.13267 0.11262,0.90162 0.16897,1.03134 0.0563,0.12971 0.11262,1.04037 0.16897,1.16714 0.0563,0.12677 0.11261,1.15011 0.16896,1.27393 0.0563,0.12382 0.11262,1.22816 0.16897,1.34904 0.0563,0.12087 0.11261,1.27266 0.16896,1.39058 0.0563,0.11792 0.11262,1.28257 0.16897,1.39755 0.0563,0.11497 0.11263,1.25772 0.16898,1.36976 0.0564,0.11202 0.11261,1.19881 0.16896,1.30789 0.0564,0.10908 0.11262,1.10738 0.16897,1.21351 0.0564,0.10613 0.11261,0.98576 0.16896,1.08894 0.0564,0.10318 0.11262,0.83705 0.16897,0.93728 0.0564,0.10024 0.11262,0.66503 0.16897,0.76233 0.0564,0.0973 0.11261,0.4741 0.16896,0.5684 0.0564,0.0943 0.11263,0.26893 0.16898,0.36033 0.0563,0.0913 0.11261,0.0549 0.16896,0.14333 0.0564,0.0884 0.11262,-0.1628 0.16897,-0.0773 0.0563,0.0855 0.11262,-0.37842 0.16897,-0.29592 0.0563,0.0825 0.11261,-0.58684 0.16896,-0.50724 0.0563,0.0796 0.11262,-0.78262 0.16897,-0.70592 0.0563,0.0766 0.11261,-0.96077 0.16896,-0.88707 0.0563,0.0737 0.11263,-1.11692 0.16898,-1.04612 0.0563,0.0707 0.11262,-1.24698 0.16896,-1.17918 0.0563,0.0678 0.11262,-1.34781 0.16897,-1.28291 0.0563,0.0649 0.11262,-1.41662 0.16897,-1.35472 0.0563,0.0619 0.11261,-1.45174 0.16896,-1.39284 0.0563,0.059 0.11262,-1.45233 0.16897,-1.39633 0.0563,0.056 0.11262,-1.41819 0.16897,-1.36509 0.0564,0.0531 0.11262,-1.34998 0.16897,-1.29988 0.0564,0.0501 0.11262,-1.24957 0.16897,-1.20237 0.0564,0.0472 0.11261,-1.11913 0.16896,-1.07493 0.0564,0.0442 0.11262,-0.96208 0.16897,-0.92078 0.0564,0.0413 0.11261,-0.782 0.16896,-0.7437 0.0564,0.0383 0.11262,-0.58345 0.16897,-0.54815 0.0564,0.0354 0.11262,-0.37135 0.16897,-0.33895 0.0563,0.0324 0.11262,-0.15084 0.16897,-0.12134 0.0563,0.0295 0.11262,0.0727 0.16897,0.0993 0.0563,0.0265 0.11261,0.29388 0.16896,0.31748 0.0563,0.0236 0.11262,0.50716 0.16897,0.52776 0.0563,0.0206 0.11262,0.7072 0.16897,0.7249 0.0563,0.0177 0.11261,0.88933 0.16896,0.90403 0.0563,0.0147 0.11263,1.04887 0.16898,1.06067 0.0563,0.0118 0.11261,1.18191 0.16896,1.19091 0.0563,0.009 0.11262,1.28556 0.16897,1.29156 0.0563,0.006 0.11262,1.35708 0.16897,1.36008 0.0564,0.003 0.11261,1.39475 0.16896,1.39475 0,0 -0.42599,8.67422 3.09852,12.47707 3.52451,3.80286 18.04997,5.21843 18.04997,5.21843"
       style="fill:none;fill-opacity:1;stroke:#ff0013;stroke-width:0.50943291;stroke-miterlimit:4;stroke-dasharray:none;stroke-dashoffset:0;stroke-opacity:1"
       inkscape:connector-curvature="0" />
    <path
       id="path1278-3-6"
       title="sin(5*x)"
       d="m 93.014806,120.33991 c -0.05267,0.58667 -0.105259,0.81104 -0.157928,1.39476 -0.05267,0.58373 -0.105259,0.7793 -0.157927,1.36007 -0.05267,0.58078 -0.105268,0.71374 -0.157937,1.29156 -0.05267,0.57782 -0.105259,0.61605 -0.157927,1.19092 -0.05267,0.57488 -0.10526,0.48874 -0.157928,1.06066 -0.05267,0.57193 -0.105258,0.33505 -0.157927,0.90403 -0.05267,0.56898 -0.105259,0.15888 -0.157928,0.72491 -0.05267,0.56606 -0.105259,-0.0353 -0.157927,0.52776 -0.05267,0.56308 -0.10526,-0.24266 -0.157928,0.31748 -0.05267,0.56013 -0.105268,-0.45789 -0.157936,0.0993 -0.05267,0.55719 -0.10526,-0.67557 -0.157928,-0.12133 -0.05267,0.55424 -0.105259,-0.89025 -0.157928,-0.33895 -0.05267,0.55129 -0.105259,-1.09649 -0.157928,-0.54815 -0.05267,0.54835 -0.105259,-1.2891 -0.157927,-0.74371 -0.05267,0.5454 -0.105259,-1.46322 -0.157928,-0.92077 -0.05267,0.54245 -0.105268,-1.61443 -0.157936,-1.07493 -0.05267,0.5395 -0.105259,-1.73892 -0.157928,-1.20236 -0.05267,0.53654 -0.105259,-1.8335 -0.157928,-1.2999 -0.05267,0.5336 -0.105259,-1.89574 -0.157927,-1.36508 -0.05267,0.53065 -0.10526,-1.92404 -0.157928,-1.39633 -0.05267,0.52771 -0.105259,-1.91761 -0.157928,-1.39285 -0.05267,0.52476 -0.105259,-1.87653 -0.157928,-1.35472 -0.05267,0.52181 -0.105267,-1.80177 -0.157936,-1.28291 -0.05267,0.51887 -0.105259,-1.69509 -0.157928,-1.17917 -0.05267,0.51591 -0.105259,-1.5591 -0.157927,-1.04613 -0.05267,0.51297 -0.105259,-1.39707 -0.157928,-0.88706 -0.05267,0.51002 -0.105259,-1.213 -0.157928,-0.70592 -0.05267,0.50707 -0.105259,-1.01136 -0.157927,-0.50724 -0.05267,0.50412 -0.105268,-0.79711 -0.157937,-0.29593 -0.05267,0.50115 -0.105259,-0.57553 -0.157928,-0.0773 -0.05267,0.49823 -0.105259,-0.35196 -0.157927,0.14332 -0.05267,0.49528 -0.105259,-0.13199 -0.157928,0.36034 -0.05267,0.4923 -0.105259,0.079 -0.157928,0.5684 -0.05267,0.48938 -0.105259,0.27589 -0.157927,0.76232 -0.05267,0.48644 -0.105259,0.4538 -0.157928,0.93729 -0.05267,0.48349 -0.105259,0.6084 -0.157928,1.08894 -0.05267,0.48054 -0.105268,0.73591 -0.157936,1.2135 -0.05267,0.47759 -0.105259,0.83326 -0.157928,1.3079 -0.05267,0.47464 -0.105259,0.89807 -0.157928,1.36976 -0.05267,0.47169 -0.105259,0.9288 -0.157927,1.39755 -0.05267,0.46874 -0.105259,0.92479 -0.157928,1.39058 -0.05267,0.4658 -0.105259,0.88618 -0.157928,1.34904 -0.05267,0.46285 -0.105259,0.81402 -0.157927,1.27392 -0.05267,0.4599 -0.105268,0.7102 -0.157937,1.16715 -0.05267,0.45695 -0.105259,0.57733 -0.157927,1.03133 -0.05267,0.454 -0.10526,0.41881 -0.157928,0.86987 -0.05267,0.45106 -0.105259,0.23865 -0.157928,0.68676 -0.05267,0.44809 -0.105259,0.0414 -0.157928,0.48659 -0.05267,0.44516 -0.105259,-0.1679 -0.157927,0.27432 -0.05267,0.44221 -0.105259,-0.38407 -0.157928,0.0552 -0.05267,0.43927 -0.105268,-0.60159 -0.157936,-0.16527 -0.05267,0.43632 -0.105259,-0.81501 -0.157928,-0.38164 -0.05267,0.43337 -0.105259,-1.01893 -0.157928,-0.58851 -0.05267,0.43042 -0.105259,-1.20822 -0.157927,-0.78075 -0.05267,0.42748 -0.10526,-1.37809 -0.157928,-0.95356 -0.05267,0.42452 -0.105259,-1.52426 -0.157928,-1.10268 -0.05267,0.42158 -0.105268,-1.64298 -0.157936,-1.22435 -0.05267,0.41863 -0.105259,-1.73126 -0.157928,-1.31558 -0.05267,0.41569 -0.105259,-1.78682 -0.157928,-1.37408 -0.05267,0.41273 -0.105259,-1.80821 -0.157927,-1.39842 -0.05267,0.40978 -0.105259,-1.79482 -0.157928,-1.38798 -0.05267,0.40684 -0.105259,-1.74689 -0.157928,-1.34301 -0.05267,0.40389 -0.105259,-1.66557 -0.157927,-1.26464 -0.05267,0.40095 -0.105268,-1.55281 -0.157937,-1.15481 -0.05267,0.39799 -0.105259,-1.41132 -0.157927,-1.01628 -0.05267,0.39504 -0.10526,-1.24456 -0.157928,-0.85246 -0.05267,0.3921 -0.105259,-1.05659 -0.157928,-0.66744 -0.05267,0.38915 -0.105259,-0.85202 -0.157928,-0.46582 -0.05267,0.3862 -0.105259,-0.63587 -0.157927,-0.25262 -0.05267,0.38328 -0.105259,-0.4134 -0.157928,-0.0331 -0.05267,0.38031 -0.105268,-0.19017 -0.157936,0.18719 -0.05267,0.37734 -0.10526,0.0284 -0.157928,0.40284 -0.05267,0.3744 -0.105259,0.23701 -0.157928,0.60847 -0.05267,0.37146 -0.105259,0.43047 -0.157927,0.79898 -0.05267,0.36851 -0.10526,0.60405 -0.157928,0.96961 -0.05267,0.36556 -0.105259,0.75351 -0.157928,1.11613 -0.05267,0.36262 -0.105268,0.87522 -0.157936,1.23488 -0.05267,0.35967 -0.105259,0.96622 -0.157928,1.32293 -0.05267,0.35673 -0.105259,1.02431 -0.157928,1.37808 -0.05267,0.35377 -0.105259,1.04813 -0.157927,1.39895 -0.05267,0.35082 -0.10526,1.03714 -0.157928,1.38502 -0.05267,0.34787 -0.105259,0.99172 -0.157928,1.33664 -0.05267,0.34493 -0.105259,0.91306 -0.157927,1.25503 -0.05267,0.34198 -0.105268,0.80319 -0.157937,1.14221 -0.05267,0.33903 -0.105259,0.66489 -0.157928,1.00097 -0.05267,0.33609 -0.105259,0.5017 -0.157927,0.83484 -0.05267,0.33313 -0.105259,0.31777 -0.157928,0.64795 -0.05267,0.33018 -0.105259,0.1177 -0.157928,0.44493 -0.05267,0.32727 -0.105259,-0.0934 -0.157927,0.23087 -0.05267,0.32425 -0.10526,-0.31034 -0.157928,0.011 -0.05267,0.32134 -0.105268,-0.52744 -0.157936,-0.20905 -0.05267,0.3184 -0.10526,-0.73939 -0.157928,-0.42394 -0.05267,0.31545 -0.105259,-0.94079 -0.157928,-0.62828 -0.05267,0.31249 -0.105259,-1.12657 -0.157928,-0.81702 -0.05267,0.30955 -0.105259,-1.29201 -0.157927,-0.98541 -0.05267,0.3066 -0.105259,-1.43296 -0.157928,-1.12931 -0.05267,0.30365 -0.105259,-1.54582 -0.157928,-1.24512 -0.05267,0.30071 -0.105267,-1.62771 -0.157936,-1.32995 -0.05267,0.29776 -0.105259,-1.67653 -0.157928,-1.38172 -0.05267,0.29481 -0.105259,-1.69098 -0.157927,-1.39912 -0.05267,0.29186 -0.10526,-1.67063 -0.157928,-1.38172 -0.05267,0.28891 -0.105259,-1.61593 -0.157928,-1.32997 -0.05267,0.28597 -0.105259,-1.52813 -0.157928,-1.24511 -0.05267,0.28301 -0.105259,-1.40937 -0.157927,-1.12931 -0.05267,0.28007 -0.105268,-1.26253 -0.157937,-0.98541 -0.05267,0.27712 -0.105259,-1.09119 -0.157927,-0.81701 -0.05267,0.27417 -0.105259,-0.89952 -0.157928,-0.62829 -0.05267,0.27122 -0.105259,-0.69222 -0.157928,-0.42394 -0.05267,0.26828 -0.105259,-0.47438 -0.157927,-0.20905 -0.05267,0.26528 -0.10526,-0.25139 -0.157928,0.011 -0.05267,0.26245 -0.105259,-0.0286 -0.157928,0.23085 -0.05267,0.25943 -0.105268,0.18846 -0.157936,0.44494 -0.05267,0.25649 -0.105259,0.39441 -0.157928,0.64794 -0.05267,0.25354 -0.105259,0.58425 -0.157928,0.83484 -0.05267,0.25059 -0.105259,0.75334 -0.157927,1.00098 -0.05267,0.24763 -0.105259,0.89751 -0.157928,1.1422 -0.05267,0.24469 -0.105259,1.01329 -0.157928,1.25504 -0.05267,0.24174 -0.105268,1.09786 -0.157936,1.33666 -0.05267,0.23879 -0.105259,1.14917 -0.157928,1.38502 -0.05267,0.23584 -0.105259,1.16603 -0.157928,1.39894 -0.05267,0.2329 -0.105259,1.14812 -0.157927,1.37807 -0.05267,0.22996 -0.105259,1.09593 -0.157928,1.32293 -0.05267,0.22701 -0.105259,1.01084 -0.157928,1.23489 -0.05267,0.22406 -0.105259,0.89502 -0.157927,1.11613 -0.05267,0.22111 -0.105268,0.75145 -0.157937,0.96961 -0.05267,0.21816 -0.10525,0.58377 -0.157919,0.79898 -0.05267,0.21521 -0.105268,0.39621 -0.157936,0.60848 -0.05267,0.21226 -0.105259,0.19352 -0.157928,0.40284 -0.05267,0.20927 -0.105259,-0.0192 -0.157928,0.18717 -0.05267,0.20639 -0.105259,-0.23652 -0.157927,-0.0331 -0.05267,0.20342 -0.105259,-0.45309 -0.157928,-0.25262 -0.05267,0.20048 -0.105259,-0.66334 -0.157928,-0.46581 -0.05267,0.19752 -0.105259,-0.86202 -0.157927,-0.66744 -0.05267,0.19457 -0.105268,-1.04409 -0.157937,-0.85247 -0.05267,0.19163 -0.105259,-1.20495 -0.157927,-1.01628 -0.05267,0.18868 -0.10526,-1.34054 -0.157928,-1.15481 -0.05267,0.18573 -0.105259,-1.44742 -0.157928,-1.26464 -0.05267,0.18278 -0.105259,-1.52284 -0.157928,-1.34301 -0.05267,0.17983 -0.105259,-1.56486 -0.157927,-1.38797 -0.05267,0.17688 -0.105259,-1.57236 -0.157928,-1.39843 -0.05267,0.17394 -0.105268,-1.54509 -0.157936,-1.37408 -0.05267,0.17098 -0.105259,-1.48363 -0.157928,-1.31559 -0.05267,0.16804 -0.105259,-1.38945 -0.157928,-1.22435 -0.05267,0.1651 -0.105259,-1.26482 -0.157936,-1.10267 -0.05267,0.16214 -0.105259,-1.11276 -0.157919,-0.95357 -0.05267,0.1592 -0.105259,-0.937 -0.157928,-0.78074 -0.05267,0.15624 -0.105268,-0.74182 -0.157936,-0.58852 -0.05267,0.1533 -0.105259,-0.53199 -0.157937,-0.38164 -0.05267,0.15036 -0.10525,-0.31267 -0.157919,-0.16526 -0.05267,0.1474 -0.105262,-0.0893 -0.157932,0.0552 -0.05267,0.14445 -0.105259,0.13279 -0.157926,0.2743 -0.05267,0.14151 -0.10526,0.34803 -0.157929,0.48659 -0.05267,0.13856 -0.105259,0.55116 -0.157926,0.68677 -0.05267,0.13561 -0.105269,0.7372 -0.157938,0.86986 -0.05267,0.13267 -0.105259,0.90162 -0.157927,1.03134 -0.05267,0.12971 -0.105259,1.04037 -0.157929,1.16714 -0.05267,0.12677 -0.105259,1.15011 -0.157925,1.27393 -0.05267,0.12382 -0.105262,1.22817 -0.157929,1.34905 -0.05267,0.12087 -0.105259,1.27266 -0.15793,1.39058 -0.05267,0.11792 -0.105258,1.28257 -0.157925,1.39755 -0.05267,0.11497 -0.105269,1.25772 -0.157939,1.36976 -0.05267,0.11202 -0.105259,1.19881 -0.157926,1.30789 -0.05267,0.10908 -0.105259,1.10738 -0.157928,1.21351 -0.05267,0.10613 -0.105259,0.98576 -0.157927,1.08894 -0.05267,0.10318 -0.105259,0.83705 -0.157929,0.93728 -0.05267,0.10024 -0.105259,0.66503 -0.157926,0.76233 -0.05267,0.0973 -0.105259,0.4741 -0.157929,0.5684 -0.05267,0.0943 -0.105268,0.26893 -0.157935,0.36033 -0.05267,0.0913 -0.10526,0.0549 -0.157929,0.14333 -0.05267,0.0884 -0.105259,-0.1628 -0.157926,-0.0773 -0.05267,0.0855 -0.105259,-0.37842 -0.157929,-0.29592 -0.05267,0.0825 -0.105259,-0.58684 -0.157929,-0.50724 -0.05267,0.0796 -0.105259,-0.78262 -0.157926,-0.70592 -0.05267,0.0766 -0.105256,-0.96077 -0.157933,-0.88707 -0.05267,0.0737 -0.105268,-1.11692 -0.157928,-1.04612 -0.05267,0.0707 -0.105259,-1.24698 -0.157936,-1.17918 -0.05267,0.0678 -0.105259,-1.34781 -0.157919,-1.28291 -0.05267,0.0649 -0.105259,-1.41662 -0.157936,-1.35472 -0.05267,0.0619 -0.105259,-1.45174 -0.157919,-1.39284 -0.05267,0.059 -0.10526,-1.45233 -0.157937,-1.39633 -0.05267,0.056 -0.105259,-1.4182 -0.157919,-1.3651 -0.05267,0.0531 -0.105268,-1.34998 -0.157945,-1.29988 -0.05267,0.0501 -0.105259,-1.24957 -0.157919,-1.20237 -0.05267,0.0472 -0.105259,-1.11913 -0.157936,-1.07493 -0.05267,0.0442 -0.105259,-0.96208 -0.157919,-0.92078 -0.05267,0.0413 -0.105268,-0.782 -0.157928,-0.7437 -0.05267,0.0383 -0.105259,-0.58345 -0.157936,-0.54815 -0.05267,0.0354 -0.105259,-0.37135 -0.157919,-0.33895 -0.05267,0.0324 -0.105277,-0.15084 -0.157945,-0.12134 -0.05267,0.0295 -0.10526,0.0727 -0.157919,0.0993 -0.05267,0.0265 -0.10526,0.29388 -0.157937,0.31748 -0.05267,0.0236 -0.105259,0.50716 -0.157919,0.52776 -0.05267,0.0206 -0.105259,0.7072 -0.157936,0.7249 -0.05267,0.0177 -0.105259,0.88933 -0.157919,0.90403 -0.05267,0.0147 -0.105268,1.04887 -0.157945,1.06067 -0.05267,0.0118 -0.105259,1.18191 -0.157919,1.19091 -0.05267,0.009 -0.105259,1.28556 -0.157937,1.29156 -0.05267,0.006 -0.105259,1.35709 -0.157919,1.36009 -0.05267,0.003 -0.105259,1.39475 -0.157936,1.39475 0,0 0.398159,8.67422 -2.896086,12.47707 -3.294271,3.80286 -16.870787,5.21843 -16.870787,5.21843"
       style="fill:none;fill-opacity:1;stroke:#ff9a00;stroke-width:0.4925116;stroke-miterlimit:4;stroke-dasharray:none;stroke-dashoffset:0;stroke-opacity:1"
       inkscape:connector-curvature="0" />
  </g>
</svg>
